%TF.GenerationSoftware,KiCad,Pcbnew,5.1.11-e4df9d881f~92~ubuntu20.04.1*%
%TF.CreationDate,2021-11-07T19:48:14-08:00*%
%TF.ProjectId,TeensyKeyerFrontPanel,5465656e-7379-44b6-9579-657246726f6e,rev?*%
%TF.SameCoordinates,PX4c4b400PY42c1d80*%
%TF.FileFunction,Profile,NP*%
%FSLAX46Y46*%
G04 Gerber Fmt 4.6, Leading zero omitted, Abs format (unit mm)*
G04 Created by KiCad (PCBNEW 5.1.11-e4df9d881f~92~ubuntu20.04.1) date 2021-11-07 19:48:14*
%MOMM*%
%LPD*%
G01*
G04 APERTURE LIST*
%TA.AperFunction,Profile*%
%ADD10C,0.050000*%
%TD*%
G04 APERTURE END LIST*
D10*
X36900000Y-38300000D02*
G75*
G03*
X36900000Y-38300000I-500000J0D01*
G01*
X36900000Y-36700000D02*
G75*
G03*
X36900000Y-36700000I-500000J0D01*
G01*
X38500000Y-38300000D02*
G75*
G03*
X38500000Y-38300000I-500000J0D01*
G01*
X38500000Y-36700000D02*
G75*
G03*
X38500000Y-36700000I-500000J0D01*
G01*
X69500000Y-31200000D02*
G75*
G03*
X69500000Y-31200000I-1000000J0D01*
G01*
X0Y-15300000D02*
X0Y-34700000D01*
X44800000Y0D02*
X86600000Y0D01*
X1666666Y0D02*
G75*
G03*
X1666666Y0I-1666666J0D01*
G01*
X-2500000Y0D02*
X2500000Y0D01*
X0Y2500000D02*
X0Y-2500000D01*
X44800000Y0D02*
X2500000Y0D01*
X97500000Y0D02*
X86600000Y0D01*
X100000000Y-47500000D02*
X100000000Y-2500000D01*
X2500000Y-50000000D02*
X97500000Y-50000000D01*
X0Y-34700000D02*
X0Y-47500000D01*
X0Y-2500000D02*
X0Y-15300000D01*
X100000000Y-47500000D02*
G75*
G02*
X97500000Y-50000000I-2500000J0D01*
G01*
X97500000Y0D02*
G75*
G02*
X100000000Y-2500000I0J-2500000D01*
G01*
X0Y-2500000D02*
G75*
G02*
X2500000Y0I2500000J0D01*
G01*
X2500000Y-50000000D02*
G75*
G02*
X0Y-47500000I0J2500000D01*
G01*
M02*
