%TF.GenerationSoftware,KiCad,Pcbnew,5.1.12-84ad8e8a86~92~ubuntu20.04.1*%
%TF.CreationDate,2021-11-09T22:05:52-08:00*%
%TF.ProjectId,TeensyKeyerShield,5465656e-7379-44b6-9579-657253686965,0.91*%
%TF.SameCoordinates,PX4c4b400PY42c1d80*%
%TF.FileFunction,Paste,Top*%
%TF.FilePolarity,Positive*%
%FSLAX46Y46*%
G04 Gerber Fmt 4.6, Leading zero omitted, Abs format (unit mm)*
G04 Created by KiCad (PCBNEW 5.1.12-84ad8e8a86~92~ubuntu20.04.1) date 2021-11-09 22:05:52*
%MOMM*%
%LPD*%
G01*
G04 APERTURE LIST*
%ADD10R,1.200000X1.400000*%
%ADD11R,1.000000X1.400000*%
%ADD12C,0.900000*%
%ADD13C,0.100000*%
G04 APERTURE END LIST*
%TO.C,C17*%
G36*
G01*
X31762500Y-11637500D02*
X31762500Y-11162500D01*
G75*
G02*
X32000000Y-10925000I237500J0D01*
G01*
X32600000Y-10925000D01*
G75*
G02*
X32837500Y-11162500I0J-237500D01*
G01*
X32837500Y-11637500D01*
G75*
G02*
X32600000Y-11875000I-237500J0D01*
G01*
X32000000Y-11875000D01*
G75*
G02*
X31762500Y-11637500I0J237500D01*
G01*
G37*
G36*
G01*
X33487500Y-11637500D02*
X33487500Y-11162500D01*
G75*
G02*
X33725000Y-10925000I237500J0D01*
G01*
X34325000Y-10925000D01*
G75*
G02*
X34562500Y-11162500I0J-237500D01*
G01*
X34562500Y-11637500D01*
G75*
G02*
X34325000Y-11875000I-237500J0D01*
G01*
X33725000Y-11875000D01*
G75*
G02*
X33487500Y-11637500I0J237500D01*
G01*
G37*
%TD*%
%TO.C,C1*%
G36*
G01*
X20925000Y-17249998D02*
X20925000Y-18550002D01*
G75*
G02*
X20675002Y-18800000I-249998J0D01*
G01*
X19849998Y-18800000D01*
G75*
G02*
X19600000Y-18550002I0J249998D01*
G01*
X19600000Y-17249998D01*
G75*
G02*
X19849998Y-17000000I249998J0D01*
G01*
X20675002Y-17000000D01*
G75*
G02*
X20925000Y-17249998I0J-249998D01*
G01*
G37*
G36*
G01*
X17800000Y-17249998D02*
X17800000Y-18550002D01*
G75*
G02*
X17550002Y-18800000I-249998J0D01*
G01*
X16724998Y-18800000D01*
G75*
G02*
X16475000Y-18550002I0J249998D01*
G01*
X16475000Y-17249998D01*
G75*
G02*
X16724998Y-17000000I249998J0D01*
G01*
X17550002Y-17000000D01*
G75*
G02*
X17800000Y-17249998I0J-249998D01*
G01*
G37*
%TD*%
%TO.C,C2*%
G36*
G01*
X36062500Y-29262500D02*
X36537500Y-29262500D01*
G75*
G02*
X36775000Y-29500000I0J-237500D01*
G01*
X36775000Y-30100000D01*
G75*
G02*
X36537500Y-30337500I-237500J0D01*
G01*
X36062500Y-30337500D01*
G75*
G02*
X35825000Y-30100000I0J237500D01*
G01*
X35825000Y-29500000D01*
G75*
G02*
X36062500Y-29262500I237500J0D01*
G01*
G37*
G36*
G01*
X36062500Y-27537500D02*
X36537500Y-27537500D01*
G75*
G02*
X36775000Y-27775000I0J-237500D01*
G01*
X36775000Y-28375000D01*
G75*
G02*
X36537500Y-28612500I-237500J0D01*
G01*
X36062500Y-28612500D01*
G75*
G02*
X35825000Y-28375000I0J237500D01*
G01*
X35825000Y-27775000D01*
G75*
G02*
X36062500Y-27537500I237500J0D01*
G01*
G37*
%TD*%
%TO.C,C3*%
G36*
G01*
X34937500Y-30337500D02*
X34462500Y-30337500D01*
G75*
G02*
X34225000Y-30100000I0J237500D01*
G01*
X34225000Y-29500000D01*
G75*
G02*
X34462500Y-29262500I237500J0D01*
G01*
X34937500Y-29262500D01*
G75*
G02*
X35175000Y-29500000I0J-237500D01*
G01*
X35175000Y-30100000D01*
G75*
G02*
X34937500Y-30337500I-237500J0D01*
G01*
G37*
G36*
G01*
X34937500Y-28612500D02*
X34462500Y-28612500D01*
G75*
G02*
X34225000Y-28375000I0J237500D01*
G01*
X34225000Y-27775000D01*
G75*
G02*
X34462500Y-27537500I237500J0D01*
G01*
X34937500Y-27537500D01*
G75*
G02*
X35175000Y-27775000I0J-237500D01*
G01*
X35175000Y-28375000D01*
G75*
G02*
X34937500Y-28612500I-237500J0D01*
G01*
G37*
%TD*%
%TO.C,C4*%
G36*
G01*
X20837500Y-27262500D02*
X20837500Y-27737500D01*
G75*
G02*
X20600000Y-27975000I-237500J0D01*
G01*
X20000000Y-27975000D01*
G75*
G02*
X19762500Y-27737500I0J237500D01*
G01*
X19762500Y-27262500D01*
G75*
G02*
X20000000Y-27025000I237500J0D01*
G01*
X20600000Y-27025000D01*
G75*
G02*
X20837500Y-27262500I0J-237500D01*
G01*
G37*
G36*
G01*
X19112500Y-27262500D02*
X19112500Y-27737500D01*
G75*
G02*
X18875000Y-27975000I-237500J0D01*
G01*
X18275000Y-27975000D01*
G75*
G02*
X18037500Y-27737500I0J237500D01*
G01*
X18037500Y-27262500D01*
G75*
G02*
X18275000Y-27025000I237500J0D01*
G01*
X18875000Y-27025000D01*
G75*
G02*
X19112500Y-27262500I0J-237500D01*
G01*
G37*
%TD*%
%TO.C,C5*%
G36*
G01*
X17912500Y-15562500D02*
X17912500Y-16037500D01*
G75*
G02*
X17675000Y-16275000I-237500J0D01*
G01*
X17075000Y-16275000D01*
G75*
G02*
X16837500Y-16037500I0J237500D01*
G01*
X16837500Y-15562500D01*
G75*
G02*
X17075000Y-15325000I237500J0D01*
G01*
X17675000Y-15325000D01*
G75*
G02*
X17912500Y-15562500I0J-237500D01*
G01*
G37*
G36*
G01*
X19637500Y-15562500D02*
X19637500Y-16037500D01*
G75*
G02*
X19400000Y-16275000I-237500J0D01*
G01*
X18800000Y-16275000D01*
G75*
G02*
X18562500Y-16037500I0J237500D01*
G01*
X18562500Y-15562500D01*
G75*
G02*
X18800000Y-15325000I237500J0D01*
G01*
X19400000Y-15325000D01*
G75*
G02*
X19637500Y-15562500I0J-237500D01*
G01*
G37*
%TD*%
%TO.C,C6*%
G36*
G01*
X24550002Y-35487500D02*
X23249998Y-35487500D01*
G75*
G02*
X23000000Y-35237502I0J249998D01*
G01*
X23000000Y-34412498D01*
G75*
G02*
X23249998Y-34162500I249998J0D01*
G01*
X24550002Y-34162500D01*
G75*
G02*
X24800000Y-34412498I0J-249998D01*
G01*
X24800000Y-35237502D01*
G75*
G02*
X24550002Y-35487500I-249998J0D01*
G01*
G37*
G36*
G01*
X24550002Y-32362500D02*
X23249998Y-32362500D01*
G75*
G02*
X23000000Y-32112502I0J249998D01*
G01*
X23000000Y-31287498D01*
G75*
G02*
X23249998Y-31037500I249998J0D01*
G01*
X24550002Y-31037500D01*
G75*
G02*
X24800000Y-31287498I0J-249998D01*
G01*
X24800000Y-32112502D01*
G75*
G02*
X24550002Y-32362500I-249998J0D01*
G01*
G37*
%TD*%
%TO.C,C7*%
G36*
G01*
X19537500Y-23550002D02*
X19537500Y-22249998D01*
G75*
G02*
X19787498Y-22000000I249998J0D01*
G01*
X20612502Y-22000000D01*
G75*
G02*
X20862500Y-22249998I0J-249998D01*
G01*
X20862500Y-23550002D01*
G75*
G02*
X20612502Y-23800000I-249998J0D01*
G01*
X19787498Y-23800000D01*
G75*
G02*
X19537500Y-23550002I0J249998D01*
G01*
G37*
G36*
G01*
X16412500Y-23550002D02*
X16412500Y-22249998D01*
G75*
G02*
X16662498Y-22000000I249998J0D01*
G01*
X17487502Y-22000000D01*
G75*
G02*
X17737500Y-22249998I0J-249998D01*
G01*
X17737500Y-23550002D01*
G75*
G02*
X17487502Y-23800000I-249998J0D01*
G01*
X16662498Y-23800000D01*
G75*
G02*
X16412500Y-23550002I0J249998D01*
G01*
G37*
%TD*%
%TO.C,C8*%
G36*
G01*
X16412500Y-26050002D02*
X16412500Y-24749998D01*
G75*
G02*
X16662498Y-24500000I249998J0D01*
G01*
X17487502Y-24500000D01*
G75*
G02*
X17737500Y-24749998I0J-249998D01*
G01*
X17737500Y-26050002D01*
G75*
G02*
X17487502Y-26300000I-249998J0D01*
G01*
X16662498Y-26300000D01*
G75*
G02*
X16412500Y-26050002I0J249998D01*
G01*
G37*
G36*
G01*
X19537500Y-26050002D02*
X19537500Y-24749998D01*
G75*
G02*
X19787498Y-24500000I249998J0D01*
G01*
X20612502Y-24500000D01*
G75*
G02*
X20862500Y-24749998I0J-249998D01*
G01*
X20862500Y-26050002D01*
G75*
G02*
X20612502Y-26300000I-249998J0D01*
G01*
X19787498Y-26300000D01*
G75*
G02*
X19537500Y-26050002I0J249998D01*
G01*
G37*
%TD*%
%TO.C,C9*%
G36*
G01*
X27262500Y-32262500D02*
X27737500Y-32262500D01*
G75*
G02*
X27975000Y-32500000I0J-237500D01*
G01*
X27975000Y-33100000D01*
G75*
G02*
X27737500Y-33337500I-237500J0D01*
G01*
X27262500Y-33337500D01*
G75*
G02*
X27025000Y-33100000I0J237500D01*
G01*
X27025000Y-32500000D01*
G75*
G02*
X27262500Y-32262500I237500J0D01*
G01*
G37*
G36*
G01*
X27262500Y-33987500D02*
X27737500Y-33987500D01*
G75*
G02*
X27975000Y-34225000I0J-237500D01*
G01*
X27975000Y-34825000D01*
G75*
G02*
X27737500Y-35062500I-237500J0D01*
G01*
X27262500Y-35062500D01*
G75*
G02*
X27025000Y-34825000I0J237500D01*
G01*
X27025000Y-34225000D01*
G75*
G02*
X27262500Y-33987500I237500J0D01*
G01*
G37*
%TD*%
%TO.C,C10*%
G36*
G01*
X22437500Y-19612500D02*
X21962500Y-19612500D01*
G75*
G02*
X21725000Y-19375000I0J237500D01*
G01*
X21725000Y-18775000D01*
G75*
G02*
X21962500Y-18537500I237500J0D01*
G01*
X22437500Y-18537500D01*
G75*
G02*
X22675000Y-18775000I0J-237500D01*
G01*
X22675000Y-19375000D01*
G75*
G02*
X22437500Y-19612500I-237500J0D01*
G01*
G37*
G36*
G01*
X22437500Y-21337500D02*
X21962500Y-21337500D01*
G75*
G02*
X21725000Y-21100000I0J237500D01*
G01*
X21725000Y-20500000D01*
G75*
G02*
X21962500Y-20262500I237500J0D01*
G01*
X22437500Y-20262500D01*
G75*
G02*
X22675000Y-20500000I0J-237500D01*
G01*
X22675000Y-21100000D01*
G75*
G02*
X22437500Y-21337500I-237500J0D01*
G01*
G37*
%TD*%
%TO.C,C11*%
G36*
G01*
X32862500Y-33987500D02*
X33337500Y-33987500D01*
G75*
G02*
X33575000Y-34225000I0J-237500D01*
G01*
X33575000Y-34825000D01*
G75*
G02*
X33337500Y-35062500I-237500J0D01*
G01*
X32862500Y-35062500D01*
G75*
G02*
X32625000Y-34825000I0J237500D01*
G01*
X32625000Y-34225000D01*
G75*
G02*
X32862500Y-33987500I237500J0D01*
G01*
G37*
G36*
G01*
X32862500Y-32262500D02*
X33337500Y-32262500D01*
G75*
G02*
X33575000Y-32500000I0J-237500D01*
G01*
X33575000Y-33100000D01*
G75*
G02*
X33337500Y-33337500I-237500J0D01*
G01*
X32862500Y-33337500D01*
G75*
G02*
X32625000Y-33100000I0J237500D01*
G01*
X32625000Y-32500000D01*
G75*
G02*
X32862500Y-32262500I237500J0D01*
G01*
G37*
%TD*%
%TO.C,C12*%
G36*
G01*
X17737500Y-19749998D02*
X17737500Y-21050002D01*
G75*
G02*
X17487502Y-21300000I-249998J0D01*
G01*
X16662498Y-21300000D01*
G75*
G02*
X16412500Y-21050002I0J249998D01*
G01*
X16412500Y-19749998D01*
G75*
G02*
X16662498Y-19500000I249998J0D01*
G01*
X17487502Y-19500000D01*
G75*
G02*
X17737500Y-19749998I0J-249998D01*
G01*
G37*
G36*
G01*
X20862500Y-19749998D02*
X20862500Y-21050002D01*
G75*
G02*
X20612502Y-21300000I-249998J0D01*
G01*
X19787498Y-21300000D01*
G75*
G02*
X19537500Y-21050002I0J249998D01*
G01*
X19537500Y-19749998D01*
G75*
G02*
X19787498Y-19500000I249998J0D01*
G01*
X20612502Y-19500000D01*
G75*
G02*
X20862500Y-19749998I0J-249998D01*
G01*
G37*
%TD*%
%TO.C,C13*%
G36*
G01*
X14862500Y-22725000D02*
X15337500Y-22725000D01*
G75*
G02*
X15575000Y-22962500I0J-237500D01*
G01*
X15575000Y-23562500D01*
G75*
G02*
X15337500Y-23800000I-237500J0D01*
G01*
X14862500Y-23800000D01*
G75*
G02*
X14625000Y-23562500I0J237500D01*
G01*
X14625000Y-22962500D01*
G75*
G02*
X14862500Y-22725000I237500J0D01*
G01*
G37*
G36*
G01*
X14862500Y-21000000D02*
X15337500Y-21000000D01*
G75*
G02*
X15575000Y-21237500I0J-237500D01*
G01*
X15575000Y-21837500D01*
G75*
G02*
X15337500Y-22075000I-237500J0D01*
G01*
X14862500Y-22075000D01*
G75*
G02*
X14625000Y-21837500I0J237500D01*
G01*
X14625000Y-21237500D01*
G75*
G02*
X14862500Y-21000000I237500J0D01*
G01*
G37*
%TD*%
%TO.C,C14*%
G36*
G01*
X13462500Y-24462500D02*
X13937500Y-24462500D01*
G75*
G02*
X14175000Y-24700000I0J-237500D01*
G01*
X14175000Y-25300000D01*
G75*
G02*
X13937500Y-25537500I-237500J0D01*
G01*
X13462500Y-25537500D01*
G75*
G02*
X13225000Y-25300000I0J237500D01*
G01*
X13225000Y-24700000D01*
G75*
G02*
X13462500Y-24462500I237500J0D01*
G01*
G37*
G36*
G01*
X13462500Y-26187500D02*
X13937500Y-26187500D01*
G75*
G02*
X14175000Y-26425000I0J-237500D01*
G01*
X14175000Y-27025000D01*
G75*
G02*
X13937500Y-27262500I-237500J0D01*
G01*
X13462500Y-27262500D01*
G75*
G02*
X13225000Y-27025000I0J237500D01*
G01*
X13225000Y-26425000D01*
G75*
G02*
X13462500Y-26187500I237500J0D01*
G01*
G37*
%TD*%
%TO.C,C15*%
G36*
G01*
X29337500Y-35062500D02*
X28862500Y-35062500D01*
G75*
G02*
X28625000Y-34825000I0J237500D01*
G01*
X28625000Y-34225000D01*
G75*
G02*
X28862500Y-33987500I237500J0D01*
G01*
X29337500Y-33987500D01*
G75*
G02*
X29575000Y-34225000I0J-237500D01*
G01*
X29575000Y-34825000D01*
G75*
G02*
X29337500Y-35062500I-237500J0D01*
G01*
G37*
G36*
G01*
X29337500Y-33337500D02*
X28862500Y-33337500D01*
G75*
G02*
X28625000Y-33100000I0J237500D01*
G01*
X28625000Y-32500000D01*
G75*
G02*
X28862500Y-32262500I237500J0D01*
G01*
X29337500Y-32262500D01*
G75*
G02*
X29575000Y-32500000I0J-237500D01*
G01*
X29575000Y-33100000D01*
G75*
G02*
X29337500Y-33337500I-237500J0D01*
G01*
G37*
%TD*%
%TO.C,C16*%
G36*
G01*
X21662500Y-11637500D02*
X21662500Y-11162500D01*
G75*
G02*
X21900000Y-10925000I237500J0D01*
G01*
X22500000Y-10925000D01*
G75*
G02*
X22737500Y-11162500I0J-237500D01*
G01*
X22737500Y-11637500D01*
G75*
G02*
X22500000Y-11875000I-237500J0D01*
G01*
X21900000Y-11875000D01*
G75*
G02*
X21662500Y-11637500I0J237500D01*
G01*
G37*
G36*
G01*
X23387500Y-11637500D02*
X23387500Y-11162500D01*
G75*
G02*
X23625000Y-10925000I237500J0D01*
G01*
X24225000Y-10925000D01*
G75*
G02*
X24462500Y-11162500I0J-237500D01*
G01*
X24462500Y-11637500D01*
G75*
G02*
X24225000Y-11875000I-237500J0D01*
G01*
X23625000Y-11875000D01*
G75*
G02*
X23387500Y-11637500I0J237500D01*
G01*
G37*
%TD*%
%TO.C,C18*%
G36*
G01*
X19962500Y-11637500D02*
X19962500Y-11162500D01*
G75*
G02*
X20200000Y-10925000I237500J0D01*
G01*
X20800000Y-10925000D01*
G75*
G02*
X21037500Y-11162500I0J-237500D01*
G01*
X21037500Y-11637500D01*
G75*
G02*
X20800000Y-11875000I-237500J0D01*
G01*
X20200000Y-11875000D01*
G75*
G02*
X19962500Y-11637500I0J237500D01*
G01*
G37*
G36*
G01*
X18237500Y-11637500D02*
X18237500Y-11162500D01*
G75*
G02*
X18475000Y-10925000I237500J0D01*
G01*
X19075000Y-10925000D01*
G75*
G02*
X19312500Y-11162500I0J-237500D01*
G01*
X19312500Y-11637500D01*
G75*
G02*
X19075000Y-11875000I-237500J0D01*
G01*
X18475000Y-11875000D01*
G75*
G02*
X18237500Y-11637500I0J237500D01*
G01*
G37*
%TD*%
%TO.C,C19*%
G36*
G01*
X25837500Y-11975000D02*
X25362500Y-11975000D01*
G75*
G02*
X25125000Y-11737500I0J237500D01*
G01*
X25125000Y-11137500D01*
G75*
G02*
X25362500Y-10900000I237500J0D01*
G01*
X25837500Y-10900000D01*
G75*
G02*
X26075000Y-11137500I0J-237500D01*
G01*
X26075000Y-11737500D01*
G75*
G02*
X25837500Y-11975000I-237500J0D01*
G01*
G37*
G36*
G01*
X25837500Y-13700000D02*
X25362500Y-13700000D01*
G75*
G02*
X25125000Y-13462500I0J237500D01*
G01*
X25125000Y-12862500D01*
G75*
G02*
X25362500Y-12625000I237500J0D01*
G01*
X25837500Y-12625000D01*
G75*
G02*
X26075000Y-12862500I0J-237500D01*
G01*
X26075000Y-13462500D01*
G75*
G02*
X25837500Y-13700000I-237500J0D01*
G01*
G37*
%TD*%
%TO.C,C20*%
G36*
G01*
X28237500Y-11637500D02*
X28237500Y-11162500D01*
G75*
G02*
X28475000Y-10925000I237500J0D01*
G01*
X29075000Y-10925000D01*
G75*
G02*
X29312500Y-11162500I0J-237500D01*
G01*
X29312500Y-11637500D01*
G75*
G02*
X29075000Y-11875000I-237500J0D01*
G01*
X28475000Y-11875000D01*
G75*
G02*
X28237500Y-11637500I0J237500D01*
G01*
G37*
G36*
G01*
X29962500Y-11637500D02*
X29962500Y-11162500D01*
G75*
G02*
X30200000Y-10925000I237500J0D01*
G01*
X30800000Y-10925000D01*
G75*
G02*
X31037500Y-11162500I0J-237500D01*
G01*
X31037500Y-11637500D01*
G75*
G02*
X30800000Y-11875000I-237500J0D01*
G01*
X30200000Y-11875000D01*
G75*
G02*
X29962500Y-11637500I0J237500D01*
G01*
G37*
%TD*%
%TO.C,C21*%
G36*
G01*
X37237500Y-16037500D02*
X36762500Y-16037500D01*
G75*
G02*
X36525000Y-15800000I0J237500D01*
G01*
X36525000Y-15200000D01*
G75*
G02*
X36762500Y-14962500I237500J0D01*
G01*
X37237500Y-14962500D01*
G75*
G02*
X37475000Y-15200000I0J-237500D01*
G01*
X37475000Y-15800000D01*
G75*
G02*
X37237500Y-16037500I-237500J0D01*
G01*
G37*
G36*
G01*
X37237500Y-14312500D02*
X36762500Y-14312500D01*
G75*
G02*
X36525000Y-14075000I0J237500D01*
G01*
X36525000Y-13475000D01*
G75*
G02*
X36762500Y-13237500I237500J0D01*
G01*
X37237500Y-13237500D01*
G75*
G02*
X37475000Y-13475000I0J-237500D01*
G01*
X37475000Y-14075000D01*
G75*
G02*
X37237500Y-14312500I-237500J0D01*
G01*
G37*
%TD*%
%TO.C,C22*%
G36*
G01*
X31750002Y-35487500D02*
X30449998Y-35487500D01*
G75*
G02*
X30200000Y-35237502I0J249998D01*
G01*
X30200000Y-34412498D01*
G75*
G02*
X30449998Y-34162500I249998J0D01*
G01*
X31750002Y-34162500D01*
G75*
G02*
X32000000Y-34412498I0J-249998D01*
G01*
X32000000Y-35237502D01*
G75*
G02*
X31750002Y-35487500I-249998J0D01*
G01*
G37*
G36*
G01*
X31750002Y-32362500D02*
X30449998Y-32362500D01*
G75*
G02*
X30200000Y-32112502I0J249998D01*
G01*
X30200000Y-31287498D01*
G75*
G02*
X30449998Y-31037500I249998J0D01*
G01*
X31750002Y-31037500D01*
G75*
G02*
X32000000Y-31287498I0J-249998D01*
G01*
X32000000Y-32112502D01*
G75*
G02*
X31750002Y-32362500I-249998J0D01*
G01*
G37*
%TD*%
%TO.C,C23*%
G36*
G01*
X30462500Y-38162500D02*
X30937500Y-38162500D01*
G75*
G02*
X31175000Y-38400000I0J-237500D01*
G01*
X31175000Y-39000000D01*
G75*
G02*
X30937500Y-39237500I-237500J0D01*
G01*
X30462500Y-39237500D01*
G75*
G02*
X30225000Y-39000000I0J237500D01*
G01*
X30225000Y-38400000D01*
G75*
G02*
X30462500Y-38162500I237500J0D01*
G01*
G37*
G36*
G01*
X30462500Y-36437500D02*
X30937500Y-36437500D01*
G75*
G02*
X31175000Y-36675000I0J-237500D01*
G01*
X31175000Y-37275000D01*
G75*
G02*
X30937500Y-37512500I-237500J0D01*
G01*
X30462500Y-37512500D01*
G75*
G02*
X30225000Y-37275000I0J237500D01*
G01*
X30225000Y-36675000D01*
G75*
G02*
X30462500Y-36437500I237500J0D01*
G01*
G37*
%TD*%
%TO.C,C24*%
G36*
G01*
X32912500Y-38062500D02*
X32912500Y-38537500D01*
G75*
G02*
X32675000Y-38775000I-237500J0D01*
G01*
X32075000Y-38775000D01*
G75*
G02*
X31837500Y-38537500I0J237500D01*
G01*
X31837500Y-38062500D01*
G75*
G02*
X32075000Y-37825000I237500J0D01*
G01*
X32675000Y-37825000D01*
G75*
G02*
X32912500Y-38062500I0J-237500D01*
G01*
G37*
G36*
G01*
X34637500Y-38062500D02*
X34637500Y-38537500D01*
G75*
G02*
X34400000Y-38775000I-237500J0D01*
G01*
X33800000Y-38775000D01*
G75*
G02*
X33562500Y-38537500I0J237500D01*
G01*
X33562500Y-38062500D01*
G75*
G02*
X33800000Y-37825000I237500J0D01*
G01*
X34400000Y-37825000D01*
G75*
G02*
X34637500Y-38062500I0J-237500D01*
G01*
G37*
%TD*%
%TO.C,C25*%
G36*
G01*
X35462500Y-40137500D02*
X35462500Y-39662500D01*
G75*
G02*
X35700000Y-39425000I237500J0D01*
G01*
X36300000Y-39425000D01*
G75*
G02*
X36537500Y-39662500I0J-237500D01*
G01*
X36537500Y-40137500D01*
G75*
G02*
X36300000Y-40375000I-237500J0D01*
G01*
X35700000Y-40375000D01*
G75*
G02*
X35462500Y-40137500I0J237500D01*
G01*
G37*
G36*
G01*
X37187500Y-40137500D02*
X37187500Y-39662500D01*
G75*
G02*
X37425000Y-39425000I237500J0D01*
G01*
X38025000Y-39425000D01*
G75*
G02*
X38262500Y-39662500I0J-237500D01*
G01*
X38262500Y-40137500D01*
G75*
G02*
X38025000Y-40375000I-237500J0D01*
G01*
X37425000Y-40375000D01*
G75*
G02*
X37187500Y-40137500I0J237500D01*
G01*
G37*
%TD*%
%TO.C,C26*%
G36*
G01*
X30262500Y-43712500D02*
X30737500Y-43712500D01*
G75*
G02*
X30975000Y-43950000I0J-237500D01*
G01*
X30975000Y-44550000D01*
G75*
G02*
X30737500Y-44787500I-237500J0D01*
G01*
X30262500Y-44787500D01*
G75*
G02*
X30025000Y-44550000I0J237500D01*
G01*
X30025000Y-43950000D01*
G75*
G02*
X30262500Y-43712500I237500J0D01*
G01*
G37*
G36*
G01*
X30262500Y-41987500D02*
X30737500Y-41987500D01*
G75*
G02*
X30975000Y-42225000I0J-237500D01*
G01*
X30975000Y-42825000D01*
G75*
G02*
X30737500Y-43062500I-237500J0D01*
G01*
X30262500Y-43062500D01*
G75*
G02*
X30025000Y-42825000I0J237500D01*
G01*
X30025000Y-42225000D01*
G75*
G02*
X30262500Y-41987500I237500J0D01*
G01*
G37*
%TD*%
%TO.C,C27*%
G36*
G01*
X50262500Y-43737500D02*
X50737500Y-43737500D01*
G75*
G02*
X50975000Y-43975000I0J-237500D01*
G01*
X50975000Y-44575000D01*
G75*
G02*
X50737500Y-44812500I-237500J0D01*
G01*
X50262500Y-44812500D01*
G75*
G02*
X50025000Y-44575000I0J237500D01*
G01*
X50025000Y-43975000D01*
G75*
G02*
X50262500Y-43737500I237500J0D01*
G01*
G37*
G36*
G01*
X50262500Y-42012500D02*
X50737500Y-42012500D01*
G75*
G02*
X50975000Y-42250000I0J-237500D01*
G01*
X50975000Y-42850000D01*
G75*
G02*
X50737500Y-43087500I-237500J0D01*
G01*
X50262500Y-43087500D01*
G75*
G02*
X50025000Y-42850000I0J237500D01*
G01*
X50025000Y-42250000D01*
G75*
G02*
X50262500Y-42012500I237500J0D01*
G01*
G37*
%TD*%
%TO.C,C28*%
G36*
G01*
X70262500Y-42000000D02*
X70737500Y-42000000D01*
G75*
G02*
X70975000Y-42237500I0J-237500D01*
G01*
X70975000Y-42837500D01*
G75*
G02*
X70737500Y-43075000I-237500J0D01*
G01*
X70262500Y-43075000D01*
G75*
G02*
X70025000Y-42837500I0J237500D01*
G01*
X70025000Y-42237500D01*
G75*
G02*
X70262500Y-42000000I237500J0D01*
G01*
G37*
G36*
G01*
X70262500Y-43725000D02*
X70737500Y-43725000D01*
G75*
G02*
X70975000Y-43962500I0J-237500D01*
G01*
X70975000Y-44562500D01*
G75*
G02*
X70737500Y-44800000I-237500J0D01*
G01*
X70262500Y-44800000D01*
G75*
G02*
X70025000Y-44562500I0J237500D01*
G01*
X70025000Y-43962500D01*
G75*
G02*
X70262500Y-43725000I237500J0D01*
G01*
G37*
%TD*%
%TO.C,C29*%
G36*
G01*
X85037500Y-15837500D02*
X84562500Y-15837500D01*
G75*
G02*
X84325000Y-15600000I0J237500D01*
G01*
X84325000Y-15000000D01*
G75*
G02*
X84562500Y-14762500I237500J0D01*
G01*
X85037500Y-14762500D01*
G75*
G02*
X85275000Y-15000000I0J-237500D01*
G01*
X85275000Y-15600000D01*
G75*
G02*
X85037500Y-15837500I-237500J0D01*
G01*
G37*
G36*
G01*
X85037500Y-14112500D02*
X84562500Y-14112500D01*
G75*
G02*
X84325000Y-13875000I0J237500D01*
G01*
X84325000Y-13275000D01*
G75*
G02*
X84562500Y-13037500I237500J0D01*
G01*
X85037500Y-13037500D01*
G75*
G02*
X85275000Y-13275000I0J-237500D01*
G01*
X85275000Y-13875000D01*
G75*
G02*
X85037500Y-14112500I-237500J0D01*
G01*
G37*
%TD*%
%TO.C,C30*%
G36*
G01*
X80137500Y-14112500D02*
X79662500Y-14112500D01*
G75*
G02*
X79425000Y-13875000I0J237500D01*
G01*
X79425000Y-13275000D01*
G75*
G02*
X79662500Y-13037500I237500J0D01*
G01*
X80137500Y-13037500D01*
G75*
G02*
X80375000Y-13275000I0J-237500D01*
G01*
X80375000Y-13875000D01*
G75*
G02*
X80137500Y-14112500I-237500J0D01*
G01*
G37*
G36*
G01*
X80137500Y-15837500D02*
X79662500Y-15837500D01*
G75*
G02*
X79425000Y-15600000I0J237500D01*
G01*
X79425000Y-15000000D01*
G75*
G02*
X79662500Y-14762500I237500J0D01*
G01*
X80137500Y-14762500D01*
G75*
G02*
X80375000Y-15000000I0J-237500D01*
G01*
X80375000Y-15600000D01*
G75*
G02*
X80137500Y-15837500I-237500J0D01*
G01*
G37*
%TD*%
%TO.C,C31*%
G36*
G01*
X89137500Y-15800000D02*
X88662500Y-15800000D01*
G75*
G02*
X88425000Y-15562500I0J237500D01*
G01*
X88425000Y-14962500D01*
G75*
G02*
X88662500Y-14725000I237500J0D01*
G01*
X89137500Y-14725000D01*
G75*
G02*
X89375000Y-14962500I0J-237500D01*
G01*
X89375000Y-15562500D01*
G75*
G02*
X89137500Y-15800000I-237500J0D01*
G01*
G37*
G36*
G01*
X89137500Y-14075000D02*
X88662500Y-14075000D01*
G75*
G02*
X88425000Y-13837500I0J237500D01*
G01*
X88425000Y-13237500D01*
G75*
G02*
X88662500Y-13000000I237500J0D01*
G01*
X89137500Y-13000000D01*
G75*
G02*
X89375000Y-13237500I0J-237500D01*
G01*
X89375000Y-13837500D01*
G75*
G02*
X89137500Y-14075000I-237500J0D01*
G01*
G37*
%TD*%
%TO.C,C32*%
G36*
G01*
X93537500Y-14075000D02*
X93062500Y-14075000D01*
G75*
G02*
X92825000Y-13837500I0J237500D01*
G01*
X92825000Y-13237500D01*
G75*
G02*
X93062500Y-13000000I237500J0D01*
G01*
X93537500Y-13000000D01*
G75*
G02*
X93775000Y-13237500I0J-237500D01*
G01*
X93775000Y-13837500D01*
G75*
G02*
X93537500Y-14075000I-237500J0D01*
G01*
G37*
G36*
G01*
X93537500Y-15800000D02*
X93062500Y-15800000D01*
G75*
G02*
X92825000Y-15562500I0J237500D01*
G01*
X92825000Y-14962500D01*
G75*
G02*
X93062500Y-14725000I237500J0D01*
G01*
X93537500Y-14725000D01*
G75*
G02*
X93775000Y-14962500I0J-237500D01*
G01*
X93775000Y-15562500D01*
G75*
G02*
X93537500Y-15800000I-237500J0D01*
G01*
G37*
%TD*%
%TO.C,C33*%
G36*
G01*
X89862500Y-42212500D02*
X89862500Y-41737500D01*
G75*
G02*
X90100000Y-41500000I237500J0D01*
G01*
X90700000Y-41500000D01*
G75*
G02*
X90937500Y-41737500I0J-237500D01*
G01*
X90937500Y-42212500D01*
G75*
G02*
X90700000Y-42450000I-237500J0D01*
G01*
X90100000Y-42450000D01*
G75*
G02*
X89862500Y-42212500I0J237500D01*
G01*
G37*
G36*
G01*
X91587500Y-42212500D02*
X91587500Y-41737500D01*
G75*
G02*
X91825000Y-41500000I237500J0D01*
G01*
X92425000Y-41500000D01*
G75*
G02*
X92662500Y-41737500I0J-237500D01*
G01*
X92662500Y-42212500D01*
G75*
G02*
X92425000Y-42450000I-237500J0D01*
G01*
X91825000Y-42450000D01*
G75*
G02*
X91587500Y-42212500I0J237500D01*
G01*
G37*
%TD*%
%TO.C,C34*%
G36*
G01*
X94650002Y-33037500D02*
X93349998Y-33037500D01*
G75*
G02*
X93100000Y-32787502I0J249998D01*
G01*
X93100000Y-31962498D01*
G75*
G02*
X93349998Y-31712500I249998J0D01*
G01*
X94650002Y-31712500D01*
G75*
G02*
X94900000Y-31962498I0J-249998D01*
G01*
X94900000Y-32787502D01*
G75*
G02*
X94650002Y-33037500I-249998J0D01*
G01*
G37*
G36*
G01*
X94650002Y-36162500D02*
X93349998Y-36162500D01*
G75*
G02*
X93100000Y-35912502I0J249998D01*
G01*
X93100000Y-35087498D01*
G75*
G02*
X93349998Y-34837500I249998J0D01*
G01*
X94650002Y-34837500D01*
G75*
G02*
X94900000Y-35087498I0J-249998D01*
G01*
X94900000Y-35912502D01*
G75*
G02*
X94650002Y-36162500I-249998J0D01*
G01*
G37*
%TD*%
%TO.C,C35*%
G36*
G01*
X91837500Y-34412500D02*
X91362500Y-34412500D01*
G75*
G02*
X91125000Y-34175000I0J237500D01*
G01*
X91125000Y-33575000D01*
G75*
G02*
X91362500Y-33337500I237500J0D01*
G01*
X91837500Y-33337500D01*
G75*
G02*
X92075000Y-33575000I0J-237500D01*
G01*
X92075000Y-34175000D01*
G75*
G02*
X91837500Y-34412500I-237500J0D01*
G01*
G37*
G36*
G01*
X91837500Y-36137500D02*
X91362500Y-36137500D01*
G75*
G02*
X91125000Y-35900000I0J237500D01*
G01*
X91125000Y-35300000D01*
G75*
G02*
X91362500Y-35062500I237500J0D01*
G01*
X91837500Y-35062500D01*
G75*
G02*
X92075000Y-35300000I0J-237500D01*
G01*
X92075000Y-35900000D01*
G75*
G02*
X91837500Y-36137500I-237500J0D01*
G01*
G37*
%TD*%
%TO.C,C36*%
G36*
G01*
X20462500Y-15162500D02*
X20937500Y-15162500D01*
G75*
G02*
X21175000Y-15400000I0J-237500D01*
G01*
X21175000Y-16000000D01*
G75*
G02*
X20937500Y-16237500I-237500J0D01*
G01*
X20462500Y-16237500D01*
G75*
G02*
X20225000Y-16000000I0J237500D01*
G01*
X20225000Y-15400000D01*
G75*
G02*
X20462500Y-15162500I237500J0D01*
G01*
G37*
G36*
G01*
X20462500Y-13437500D02*
X20937500Y-13437500D01*
G75*
G02*
X21175000Y-13675000I0J-237500D01*
G01*
X21175000Y-14275000D01*
G75*
G02*
X20937500Y-14512500I-237500J0D01*
G01*
X20462500Y-14512500D01*
G75*
G02*
X20225000Y-14275000I0J237500D01*
G01*
X20225000Y-13675000D01*
G75*
G02*
X20462500Y-13437500I237500J0D01*
G01*
G37*
%TD*%
%TO.C,C37*%
G36*
G01*
X25362500Y-14600000D02*
X25837500Y-14600000D01*
G75*
G02*
X26075000Y-14837500I0J-237500D01*
G01*
X26075000Y-15437500D01*
G75*
G02*
X25837500Y-15675000I-237500J0D01*
G01*
X25362500Y-15675000D01*
G75*
G02*
X25125000Y-15437500I0J237500D01*
G01*
X25125000Y-14837500D01*
G75*
G02*
X25362500Y-14600000I237500J0D01*
G01*
G37*
G36*
G01*
X25362500Y-16325000D02*
X25837500Y-16325000D01*
G75*
G02*
X26075000Y-16562500I0J-237500D01*
G01*
X26075000Y-17162500D01*
G75*
G02*
X25837500Y-17400000I-237500J0D01*
G01*
X25362500Y-17400000D01*
G75*
G02*
X25125000Y-17162500I0J237500D01*
G01*
X25125000Y-16562500D01*
G75*
G02*
X25362500Y-16325000I237500J0D01*
G01*
G37*
%TD*%
%TO.C,C38*%
G36*
G01*
X30637500Y-19137500D02*
X30162500Y-19137500D01*
G75*
G02*
X29925000Y-18900000I0J237500D01*
G01*
X29925000Y-18300000D01*
G75*
G02*
X30162500Y-18062500I237500J0D01*
G01*
X30637500Y-18062500D01*
G75*
G02*
X30875000Y-18300000I0J-237500D01*
G01*
X30875000Y-18900000D01*
G75*
G02*
X30637500Y-19137500I-237500J0D01*
G01*
G37*
G36*
G01*
X30637500Y-20862500D02*
X30162500Y-20862500D01*
G75*
G02*
X29925000Y-20625000I0J237500D01*
G01*
X29925000Y-20025000D01*
G75*
G02*
X30162500Y-19787500I237500J0D01*
G01*
X30637500Y-19787500D01*
G75*
G02*
X30875000Y-20025000I0J-237500D01*
G01*
X30875000Y-20625000D01*
G75*
G02*
X30637500Y-20862500I-237500J0D01*
G01*
G37*
%TD*%
%TO.C,C39*%
G36*
G01*
X33837500Y-20862500D02*
X33362500Y-20862500D01*
G75*
G02*
X33125000Y-20625000I0J237500D01*
G01*
X33125000Y-20025000D01*
G75*
G02*
X33362500Y-19787500I237500J0D01*
G01*
X33837500Y-19787500D01*
G75*
G02*
X34075000Y-20025000I0J-237500D01*
G01*
X34075000Y-20625000D01*
G75*
G02*
X33837500Y-20862500I-237500J0D01*
G01*
G37*
G36*
G01*
X33837500Y-19137500D02*
X33362500Y-19137500D01*
G75*
G02*
X33125000Y-18900000I0J237500D01*
G01*
X33125000Y-18300000D01*
G75*
G02*
X33362500Y-18062500I237500J0D01*
G01*
X33837500Y-18062500D01*
G75*
G02*
X34075000Y-18300000I0J-237500D01*
G01*
X34075000Y-18900000D01*
G75*
G02*
X33837500Y-19137500I-237500J0D01*
G01*
G37*
%TD*%
D10*
%TO.C,D1*%
X15270000Y-11700000D03*
D11*
X13550000Y-11700000D03*
X13550000Y-13900000D03*
X15450000Y-13900000D03*
%TD*%
%TO.C,FB1*%
G36*
G01*
X39262500Y-29337500D02*
X39737500Y-29337500D01*
G75*
G02*
X39975000Y-29575000I0J-237500D01*
G01*
X39975000Y-30075000D01*
G75*
G02*
X39737500Y-30312500I-237500J0D01*
G01*
X39262500Y-30312500D01*
G75*
G02*
X39025000Y-30075000I0J237500D01*
G01*
X39025000Y-29575000D01*
G75*
G02*
X39262500Y-29337500I237500J0D01*
G01*
G37*
G36*
G01*
X39262500Y-27512500D02*
X39737500Y-27512500D01*
G75*
G02*
X39975000Y-27750000I0J-237500D01*
G01*
X39975000Y-28250000D01*
G75*
G02*
X39737500Y-28487500I-237500J0D01*
G01*
X39262500Y-28487500D01*
G75*
G02*
X39025000Y-28250000I0J237500D01*
G01*
X39025000Y-27750000D01*
G75*
G02*
X39262500Y-27512500I237500J0D01*
G01*
G37*
%TD*%
%TO.C,FB2*%
G36*
G01*
X21662500Y-27000000D02*
X22137500Y-27000000D01*
G75*
G02*
X22375000Y-27237500I0J-237500D01*
G01*
X22375000Y-27737500D01*
G75*
G02*
X22137500Y-27975000I-237500J0D01*
G01*
X21662500Y-27975000D01*
G75*
G02*
X21425000Y-27737500I0J237500D01*
G01*
X21425000Y-27237500D01*
G75*
G02*
X21662500Y-27000000I237500J0D01*
G01*
G37*
G36*
G01*
X21662500Y-28825000D02*
X22137500Y-28825000D01*
G75*
G02*
X22375000Y-29062500I0J-237500D01*
G01*
X22375000Y-29562500D01*
G75*
G02*
X22137500Y-29800000I-237500J0D01*
G01*
X21662500Y-29800000D01*
G75*
G02*
X21425000Y-29562500I0J237500D01*
G01*
X21425000Y-29062500D01*
G75*
G02*
X21662500Y-28825000I237500J0D01*
G01*
G37*
%TD*%
%TO.C,FB3*%
G36*
G01*
X25362500Y-18087500D02*
X25837500Y-18087500D01*
G75*
G02*
X26075000Y-18325000I0J-237500D01*
G01*
X26075000Y-18825000D01*
G75*
G02*
X25837500Y-19062500I-237500J0D01*
G01*
X25362500Y-19062500D01*
G75*
G02*
X25125000Y-18825000I0J237500D01*
G01*
X25125000Y-18325000D01*
G75*
G02*
X25362500Y-18087500I237500J0D01*
G01*
G37*
G36*
G01*
X25362500Y-19912500D02*
X25837500Y-19912500D01*
G75*
G02*
X26075000Y-20150000I0J-237500D01*
G01*
X26075000Y-20650000D01*
G75*
G02*
X25837500Y-20887500I-237500J0D01*
G01*
X25362500Y-20887500D01*
G75*
G02*
X25125000Y-20650000I0J237500D01*
G01*
X25125000Y-20150000D01*
G75*
G02*
X25362500Y-19912500I237500J0D01*
G01*
G37*
%TD*%
%TO.C,FB4*%
G36*
G01*
X26962500Y-19937500D02*
X27437500Y-19937500D01*
G75*
G02*
X27675000Y-20175000I0J-237500D01*
G01*
X27675000Y-20675000D01*
G75*
G02*
X27437500Y-20912500I-237500J0D01*
G01*
X26962500Y-20912500D01*
G75*
G02*
X26725000Y-20675000I0J237500D01*
G01*
X26725000Y-20175000D01*
G75*
G02*
X26962500Y-19937500I237500J0D01*
G01*
G37*
G36*
G01*
X26962500Y-18112500D02*
X27437500Y-18112500D01*
G75*
G02*
X27675000Y-18350000I0J-237500D01*
G01*
X27675000Y-18850000D01*
G75*
G02*
X27437500Y-19087500I-237500J0D01*
G01*
X26962500Y-19087500D01*
G75*
G02*
X26725000Y-18850000I0J237500D01*
G01*
X26725000Y-18350000D01*
G75*
G02*
X26962500Y-18112500I237500J0D01*
G01*
G37*
%TD*%
%TO.C,FB5*%
G36*
G01*
X28562500Y-19925000D02*
X29037500Y-19925000D01*
G75*
G02*
X29275000Y-20162500I0J-237500D01*
G01*
X29275000Y-20662500D01*
G75*
G02*
X29037500Y-20900000I-237500J0D01*
G01*
X28562500Y-20900000D01*
G75*
G02*
X28325000Y-20662500I0J237500D01*
G01*
X28325000Y-20162500D01*
G75*
G02*
X28562500Y-19925000I237500J0D01*
G01*
G37*
G36*
G01*
X28562500Y-18100000D02*
X29037500Y-18100000D01*
G75*
G02*
X29275000Y-18337500I0J-237500D01*
G01*
X29275000Y-18837500D01*
G75*
G02*
X29037500Y-19075000I-237500J0D01*
G01*
X28562500Y-19075000D01*
G75*
G02*
X28325000Y-18837500I0J237500D01*
G01*
X28325000Y-18337500D01*
G75*
G02*
X28562500Y-18100000I237500J0D01*
G01*
G37*
%TD*%
%TO.C,FB6*%
G36*
G01*
X31762500Y-18100000D02*
X32237500Y-18100000D01*
G75*
G02*
X32475000Y-18337500I0J-237500D01*
G01*
X32475000Y-18837500D01*
G75*
G02*
X32237500Y-19075000I-237500J0D01*
G01*
X31762500Y-19075000D01*
G75*
G02*
X31525000Y-18837500I0J237500D01*
G01*
X31525000Y-18337500D01*
G75*
G02*
X31762500Y-18100000I237500J0D01*
G01*
G37*
G36*
G01*
X31762500Y-19925000D02*
X32237500Y-19925000D01*
G75*
G02*
X32475000Y-20162500I0J-237500D01*
G01*
X32475000Y-20662500D01*
G75*
G02*
X32237500Y-20900000I-237500J0D01*
G01*
X31762500Y-20900000D01*
G75*
G02*
X31525000Y-20662500I0J237500D01*
G01*
X31525000Y-20162500D01*
G75*
G02*
X31762500Y-19925000I237500J0D01*
G01*
G37*
%TD*%
%TO.C,FB7*%
G36*
G01*
X13187500Y-40037500D02*
X13187500Y-39562500D01*
G75*
G02*
X13425000Y-39325000I237500J0D01*
G01*
X13925000Y-39325000D01*
G75*
G02*
X14162500Y-39562500I0J-237500D01*
G01*
X14162500Y-40037500D01*
G75*
G02*
X13925000Y-40275000I-237500J0D01*
G01*
X13425000Y-40275000D01*
G75*
G02*
X13187500Y-40037500I0J237500D01*
G01*
G37*
G36*
G01*
X15012500Y-40037500D02*
X15012500Y-39562500D01*
G75*
G02*
X15250000Y-39325000I237500J0D01*
G01*
X15750000Y-39325000D01*
G75*
G02*
X15987500Y-39562500I0J-237500D01*
G01*
X15987500Y-40037500D01*
G75*
G02*
X15750000Y-40275000I-237500J0D01*
G01*
X15250000Y-40275000D01*
G75*
G02*
X15012500Y-40037500I0J237500D01*
G01*
G37*
%TD*%
%TO.C,FB8*%
G36*
G01*
X33612500Y-40137500D02*
X33612500Y-39662500D01*
G75*
G02*
X33850000Y-39425000I237500J0D01*
G01*
X34350000Y-39425000D01*
G75*
G02*
X34587500Y-39662500I0J-237500D01*
G01*
X34587500Y-40137500D01*
G75*
G02*
X34350000Y-40375000I-237500J0D01*
G01*
X33850000Y-40375000D01*
G75*
G02*
X33612500Y-40137500I0J237500D01*
G01*
G37*
G36*
G01*
X31787500Y-40137500D02*
X31787500Y-39662500D01*
G75*
G02*
X32025000Y-39425000I237500J0D01*
G01*
X32525000Y-39425000D01*
G75*
G02*
X32762500Y-39662500I0J-237500D01*
G01*
X32762500Y-40137500D01*
G75*
G02*
X32525000Y-40375000I-237500J0D01*
G01*
X32025000Y-40375000D01*
G75*
G02*
X31787500Y-40137500I0J237500D01*
G01*
G37*
%TD*%
%TO.C,FB10*%
G36*
G01*
X83237500Y-15812500D02*
X82762500Y-15812500D01*
G75*
G02*
X82525000Y-15575000I0J237500D01*
G01*
X82525000Y-15075000D01*
G75*
G02*
X82762500Y-14837500I237500J0D01*
G01*
X83237500Y-14837500D01*
G75*
G02*
X83475000Y-15075000I0J-237500D01*
G01*
X83475000Y-15575000D01*
G75*
G02*
X83237500Y-15812500I-237500J0D01*
G01*
G37*
G36*
G01*
X83237500Y-13987500D02*
X82762500Y-13987500D01*
G75*
G02*
X82525000Y-13750000I0J237500D01*
G01*
X82525000Y-13250000D01*
G75*
G02*
X82762500Y-13012500I237500J0D01*
G01*
X83237500Y-13012500D01*
G75*
G02*
X83475000Y-13250000I0J-237500D01*
G01*
X83475000Y-13750000D01*
G75*
G02*
X83237500Y-13987500I-237500J0D01*
G01*
G37*
%TD*%
%TO.C,FB11*%
G36*
G01*
X78237500Y-15787500D02*
X77762500Y-15787500D01*
G75*
G02*
X77525000Y-15550000I0J237500D01*
G01*
X77525000Y-15050000D01*
G75*
G02*
X77762500Y-14812500I237500J0D01*
G01*
X78237500Y-14812500D01*
G75*
G02*
X78475000Y-15050000I0J-237500D01*
G01*
X78475000Y-15550000D01*
G75*
G02*
X78237500Y-15787500I-237500J0D01*
G01*
G37*
G36*
G01*
X78237500Y-13962500D02*
X77762500Y-13962500D01*
G75*
G02*
X77525000Y-13725000I0J237500D01*
G01*
X77525000Y-13225000D01*
G75*
G02*
X77762500Y-12987500I237500J0D01*
G01*
X78237500Y-12987500D01*
G75*
G02*
X78475000Y-13225000I0J-237500D01*
G01*
X78475000Y-13725000D01*
G75*
G02*
X78237500Y-13962500I-237500J0D01*
G01*
G37*
%TD*%
%TO.C,FB12*%
G36*
G01*
X87337500Y-13962500D02*
X86862500Y-13962500D01*
G75*
G02*
X86625000Y-13725000I0J237500D01*
G01*
X86625000Y-13225000D01*
G75*
G02*
X86862500Y-12987500I237500J0D01*
G01*
X87337500Y-12987500D01*
G75*
G02*
X87575000Y-13225000I0J-237500D01*
G01*
X87575000Y-13725000D01*
G75*
G02*
X87337500Y-13962500I-237500J0D01*
G01*
G37*
G36*
G01*
X87337500Y-15787500D02*
X86862500Y-15787500D01*
G75*
G02*
X86625000Y-15550000I0J237500D01*
G01*
X86625000Y-15050000D01*
G75*
G02*
X86862500Y-14812500I237500J0D01*
G01*
X87337500Y-14812500D01*
G75*
G02*
X87575000Y-15050000I0J-237500D01*
G01*
X87575000Y-15550000D01*
G75*
G02*
X87337500Y-15787500I-237500J0D01*
G01*
G37*
%TD*%
%TO.C,FB13*%
G36*
G01*
X91737500Y-15800000D02*
X91262500Y-15800000D01*
G75*
G02*
X91025000Y-15562500I0J237500D01*
G01*
X91025000Y-15062500D01*
G75*
G02*
X91262500Y-14825000I237500J0D01*
G01*
X91737500Y-14825000D01*
G75*
G02*
X91975000Y-15062500I0J-237500D01*
G01*
X91975000Y-15562500D01*
G75*
G02*
X91737500Y-15800000I-237500J0D01*
G01*
G37*
G36*
G01*
X91737500Y-13975000D02*
X91262500Y-13975000D01*
G75*
G02*
X91025000Y-13737500I0J237500D01*
G01*
X91025000Y-13237500D01*
G75*
G02*
X91262500Y-13000000I237500J0D01*
G01*
X91737500Y-13000000D01*
G75*
G02*
X91975000Y-13237500I0J-237500D01*
G01*
X91975000Y-13737500D01*
G75*
G02*
X91737500Y-13975000I-237500J0D01*
G01*
G37*
%TD*%
%TO.C,L1*%
G36*
G01*
X24275000Y-13912500D02*
X22125000Y-13912500D01*
G75*
G02*
X21875000Y-13662500I0J250000D01*
G01*
X21875000Y-12737500D01*
G75*
G02*
X22125000Y-12487500I250000J0D01*
G01*
X24275000Y-12487500D01*
G75*
G02*
X24525000Y-12737500I0J-250000D01*
G01*
X24525000Y-13662500D01*
G75*
G02*
X24275000Y-13912500I-250000J0D01*
G01*
G37*
G36*
G01*
X24275000Y-16887500D02*
X22125000Y-16887500D01*
G75*
G02*
X21875000Y-16637500I0J250000D01*
G01*
X21875000Y-15712500D01*
G75*
G02*
X22125000Y-15462500I250000J0D01*
G01*
X24275000Y-15462500D01*
G75*
G02*
X24525000Y-15712500I0J-250000D01*
G01*
X24525000Y-16637500D01*
G75*
G02*
X24275000Y-16887500I-250000J0D01*
G01*
G37*
%TD*%
%TO.C,L2*%
G36*
G01*
X29075000Y-16912500D02*
X26925000Y-16912500D01*
G75*
G02*
X26675000Y-16662500I0J250000D01*
G01*
X26675000Y-15737500D01*
G75*
G02*
X26925000Y-15487500I250000J0D01*
G01*
X29075000Y-15487500D01*
G75*
G02*
X29325000Y-15737500I0J-250000D01*
G01*
X29325000Y-16662500D01*
G75*
G02*
X29075000Y-16912500I-250000J0D01*
G01*
G37*
G36*
G01*
X29075000Y-13937500D02*
X26925000Y-13937500D01*
G75*
G02*
X26675000Y-13687500I0J250000D01*
G01*
X26675000Y-12762500D01*
G75*
G02*
X26925000Y-12512500I250000J0D01*
G01*
X29075000Y-12512500D01*
G75*
G02*
X29325000Y-12762500I0J-250000D01*
G01*
X29325000Y-13687500D01*
G75*
G02*
X29075000Y-13937500I-250000J0D01*
G01*
G37*
%TD*%
%TO.C,L3*%
G36*
G01*
X32375000Y-13937500D02*
X30225000Y-13937500D01*
G75*
G02*
X29975000Y-13687500I0J250000D01*
G01*
X29975000Y-12762500D01*
G75*
G02*
X30225000Y-12512500I250000J0D01*
G01*
X32375000Y-12512500D01*
G75*
G02*
X32625000Y-12762500I0J-250000D01*
G01*
X32625000Y-13687500D01*
G75*
G02*
X32375000Y-13937500I-250000J0D01*
G01*
G37*
G36*
G01*
X32375000Y-16912500D02*
X30225000Y-16912500D01*
G75*
G02*
X29975000Y-16662500I0J250000D01*
G01*
X29975000Y-15737500D01*
G75*
G02*
X30225000Y-15487500I250000J0D01*
G01*
X32375000Y-15487500D01*
G75*
G02*
X32625000Y-15737500I0J-250000D01*
G01*
X32625000Y-16662500D01*
G75*
G02*
X32375000Y-16912500I-250000J0D01*
G01*
G37*
%TD*%
%TO.C,L4*%
G36*
G01*
X35675000Y-16912500D02*
X33525000Y-16912500D01*
G75*
G02*
X33275000Y-16662500I0J250000D01*
G01*
X33275000Y-15737500D01*
G75*
G02*
X33525000Y-15487500I250000J0D01*
G01*
X35675000Y-15487500D01*
G75*
G02*
X35925000Y-15737500I0J-250000D01*
G01*
X35925000Y-16662500D01*
G75*
G02*
X35675000Y-16912500I-250000J0D01*
G01*
G37*
G36*
G01*
X35675000Y-13937500D02*
X33525000Y-13937500D01*
G75*
G02*
X33275000Y-13687500I0J250000D01*
G01*
X33275000Y-12762500D01*
G75*
G02*
X33525000Y-12512500I250000J0D01*
G01*
X35675000Y-12512500D01*
G75*
G02*
X35925000Y-12762500I0J-250000D01*
G01*
X35925000Y-13687500D01*
G75*
G02*
X35675000Y-13937500I-250000J0D01*
G01*
G37*
%TD*%
%TO.C,L5*%
G36*
G01*
X31875000Y-36937500D02*
X31875000Y-36462500D01*
G75*
G02*
X32112500Y-36225000I237500J0D01*
G01*
X32687500Y-36225000D01*
G75*
G02*
X32925000Y-36462500I0J-237500D01*
G01*
X32925000Y-36937500D01*
G75*
G02*
X32687500Y-37175000I-237500J0D01*
G01*
X32112500Y-37175000D01*
G75*
G02*
X31875000Y-36937500I0J237500D01*
G01*
G37*
G36*
G01*
X33625000Y-36937500D02*
X33625000Y-36462500D01*
G75*
G02*
X33862500Y-36225000I237500J0D01*
G01*
X34437500Y-36225000D01*
G75*
G02*
X34675000Y-36462500I0J-237500D01*
G01*
X34675000Y-36937500D01*
G75*
G02*
X34437500Y-37175000I-237500J0D01*
G01*
X33862500Y-37175000D01*
G75*
G02*
X33625000Y-36937500I0J237500D01*
G01*
G37*
%TD*%
D12*
%TO.C,MIC1*%
X36000000Y-38300000D03*
X38460000Y-38300000D03*
X38460000Y-36600000D03*
X36000000Y-36600000D03*
%TD*%
%TO.C,R1*%
G36*
G01*
X58187500Y-36962500D02*
X58187500Y-37437500D01*
G75*
G02*
X57950000Y-37675000I-237500J0D01*
G01*
X57450000Y-37675000D01*
G75*
G02*
X57212500Y-37437500I0J237500D01*
G01*
X57212500Y-36962500D01*
G75*
G02*
X57450000Y-36725000I237500J0D01*
G01*
X57950000Y-36725000D01*
G75*
G02*
X58187500Y-36962500I0J-237500D01*
G01*
G37*
G36*
G01*
X56362500Y-36962500D02*
X56362500Y-37437500D01*
G75*
G02*
X56125000Y-37675000I-237500J0D01*
G01*
X55625000Y-37675000D01*
G75*
G02*
X55387500Y-37437500I0J237500D01*
G01*
X55387500Y-36962500D01*
G75*
G02*
X55625000Y-36725000I237500J0D01*
G01*
X56125000Y-36725000D01*
G75*
G02*
X56362500Y-36962500I0J-237500D01*
G01*
G37*
%TD*%
%TO.C,R2*%
G36*
G01*
X53412500Y-37437500D02*
X53412500Y-36962500D01*
G75*
G02*
X53650000Y-36725000I237500J0D01*
G01*
X54150000Y-36725000D01*
G75*
G02*
X54387500Y-36962500I0J-237500D01*
G01*
X54387500Y-37437500D01*
G75*
G02*
X54150000Y-37675000I-237500J0D01*
G01*
X53650000Y-37675000D01*
G75*
G02*
X53412500Y-37437500I0J237500D01*
G01*
G37*
G36*
G01*
X51587500Y-37437500D02*
X51587500Y-36962500D01*
G75*
G02*
X51825000Y-36725000I237500J0D01*
G01*
X52325000Y-36725000D01*
G75*
G02*
X52562500Y-36962500I0J-237500D01*
G01*
X52562500Y-37437500D01*
G75*
G02*
X52325000Y-37675000I-237500J0D01*
G01*
X51825000Y-37675000D01*
G75*
G02*
X51587500Y-37437500I0J237500D01*
G01*
G37*
%TD*%
%TO.C,R3*%
G36*
G01*
X38137500Y-28462500D02*
X37662500Y-28462500D01*
G75*
G02*
X37425000Y-28225000I0J237500D01*
G01*
X37425000Y-27725000D01*
G75*
G02*
X37662500Y-27487500I237500J0D01*
G01*
X38137500Y-27487500D01*
G75*
G02*
X38375000Y-27725000I0J-237500D01*
G01*
X38375000Y-28225000D01*
G75*
G02*
X38137500Y-28462500I-237500J0D01*
G01*
G37*
G36*
G01*
X38137500Y-30287500D02*
X37662500Y-30287500D01*
G75*
G02*
X37425000Y-30050000I0J237500D01*
G01*
X37425000Y-29550000D01*
G75*
G02*
X37662500Y-29312500I237500J0D01*
G01*
X38137500Y-29312500D01*
G75*
G02*
X38375000Y-29550000I0J-237500D01*
G01*
X38375000Y-30050000D01*
G75*
G02*
X38137500Y-30287500I-237500J0D01*
G01*
G37*
%TD*%
%TO.C,R4*%
G36*
G01*
X36012500Y-26637500D02*
X36012500Y-26162500D01*
G75*
G02*
X36250000Y-25925000I237500J0D01*
G01*
X36750000Y-25925000D01*
G75*
G02*
X36987500Y-26162500I0J-237500D01*
G01*
X36987500Y-26637500D01*
G75*
G02*
X36750000Y-26875000I-237500J0D01*
G01*
X36250000Y-26875000D01*
G75*
G02*
X36012500Y-26637500I0J237500D01*
G01*
G37*
G36*
G01*
X34187500Y-26637500D02*
X34187500Y-26162500D01*
G75*
G02*
X34425000Y-25925000I237500J0D01*
G01*
X34925000Y-25925000D01*
G75*
G02*
X35162500Y-26162500I0J-237500D01*
G01*
X35162500Y-26637500D01*
G75*
G02*
X34925000Y-26875000I-237500J0D01*
G01*
X34425000Y-26875000D01*
G75*
G02*
X34187500Y-26637500I0J237500D01*
G01*
G37*
%TD*%
%TO.C,R5*%
G36*
G01*
X22137500Y-34212500D02*
X21662500Y-34212500D01*
G75*
G02*
X21425000Y-33975000I0J237500D01*
G01*
X21425000Y-33475000D01*
G75*
G02*
X21662500Y-33237500I237500J0D01*
G01*
X22137500Y-33237500D01*
G75*
G02*
X22375000Y-33475000I0J-237500D01*
G01*
X22375000Y-33975000D01*
G75*
G02*
X22137500Y-34212500I-237500J0D01*
G01*
G37*
G36*
G01*
X22137500Y-32387500D02*
X21662500Y-32387500D01*
G75*
G02*
X21425000Y-32150000I0J237500D01*
G01*
X21425000Y-31650000D01*
G75*
G02*
X21662500Y-31412500I237500J0D01*
G01*
X22137500Y-31412500D01*
G75*
G02*
X22375000Y-31650000I0J-237500D01*
G01*
X22375000Y-32150000D01*
G75*
G02*
X22137500Y-32387500I-237500J0D01*
G01*
G37*
%TD*%
%TO.C,R6*%
G36*
G01*
X13737500Y-23800000D02*
X13262500Y-23800000D01*
G75*
G02*
X13025000Y-23562500I0J237500D01*
G01*
X13025000Y-23062500D01*
G75*
G02*
X13262500Y-22825000I237500J0D01*
G01*
X13737500Y-22825000D01*
G75*
G02*
X13975000Y-23062500I0J-237500D01*
G01*
X13975000Y-23562500D01*
G75*
G02*
X13737500Y-23800000I-237500J0D01*
G01*
G37*
G36*
G01*
X13737500Y-21975000D02*
X13262500Y-21975000D01*
G75*
G02*
X13025000Y-21737500I0J237500D01*
G01*
X13025000Y-21237500D01*
G75*
G02*
X13262500Y-21000000I237500J0D01*
G01*
X13737500Y-21000000D01*
G75*
G02*
X13975000Y-21237500I0J-237500D01*
G01*
X13975000Y-21737500D01*
G75*
G02*
X13737500Y-21975000I-237500J0D01*
G01*
G37*
%TD*%
%TO.C,R7*%
G36*
G01*
X15537500Y-27312500D02*
X15062500Y-27312500D01*
G75*
G02*
X14825000Y-27075000I0J237500D01*
G01*
X14825000Y-26575000D01*
G75*
G02*
X15062500Y-26337500I237500J0D01*
G01*
X15537500Y-26337500D01*
G75*
G02*
X15775000Y-26575000I0J-237500D01*
G01*
X15775000Y-27075000D01*
G75*
G02*
X15537500Y-27312500I-237500J0D01*
G01*
G37*
G36*
G01*
X15537500Y-25487500D02*
X15062500Y-25487500D01*
G75*
G02*
X14825000Y-25250000I0J237500D01*
G01*
X14825000Y-24750000D01*
G75*
G02*
X15062500Y-24512500I237500J0D01*
G01*
X15537500Y-24512500D01*
G75*
G02*
X15775000Y-24750000I0J-237500D01*
G01*
X15775000Y-25250000D01*
G75*
G02*
X15537500Y-25487500I-237500J0D01*
G01*
G37*
%TD*%
%TO.C,R8*%
G36*
G01*
X89562500Y-27362500D02*
X90037500Y-27362500D01*
G75*
G02*
X90275000Y-27600000I0J-237500D01*
G01*
X90275000Y-28100000D01*
G75*
G02*
X90037500Y-28337500I-237500J0D01*
G01*
X89562500Y-28337500D01*
G75*
G02*
X89325000Y-28100000I0J237500D01*
G01*
X89325000Y-27600000D01*
G75*
G02*
X89562500Y-27362500I237500J0D01*
G01*
G37*
G36*
G01*
X89562500Y-25537500D02*
X90037500Y-25537500D01*
G75*
G02*
X90275000Y-25775000I0J-237500D01*
G01*
X90275000Y-26275000D01*
G75*
G02*
X90037500Y-26512500I-237500J0D01*
G01*
X89562500Y-26512500D01*
G75*
G02*
X89325000Y-26275000I0J237500D01*
G01*
X89325000Y-25775000D01*
G75*
G02*
X89562500Y-25537500I237500J0D01*
G01*
G37*
%TD*%
%TO.C,R9*%
G36*
G01*
X87062500Y-27362500D02*
X87537500Y-27362500D01*
G75*
G02*
X87775000Y-27600000I0J-237500D01*
G01*
X87775000Y-28100000D01*
G75*
G02*
X87537500Y-28337500I-237500J0D01*
G01*
X87062500Y-28337500D01*
G75*
G02*
X86825000Y-28100000I0J237500D01*
G01*
X86825000Y-27600000D01*
G75*
G02*
X87062500Y-27362500I237500J0D01*
G01*
G37*
G36*
G01*
X87062500Y-25537500D02*
X87537500Y-25537500D01*
G75*
G02*
X87775000Y-25775000I0J-237500D01*
G01*
X87775000Y-26275000D01*
G75*
G02*
X87537500Y-26512500I-237500J0D01*
G01*
X87062500Y-26512500D01*
G75*
G02*
X86825000Y-26275000I0J237500D01*
G01*
X86825000Y-25775000D01*
G75*
G02*
X87062500Y-25537500I237500J0D01*
G01*
G37*
%TD*%
%TO.C,R10*%
G36*
G01*
X54487500Y-14262500D02*
X54487500Y-14737500D01*
G75*
G02*
X54250000Y-14975000I-237500J0D01*
G01*
X53750000Y-14975000D01*
G75*
G02*
X53512500Y-14737500I0J237500D01*
G01*
X53512500Y-14262500D01*
G75*
G02*
X53750000Y-14025000I237500J0D01*
G01*
X54250000Y-14025000D01*
G75*
G02*
X54487500Y-14262500I0J-237500D01*
G01*
G37*
G36*
G01*
X56312500Y-14262500D02*
X56312500Y-14737500D01*
G75*
G02*
X56075000Y-14975000I-237500J0D01*
G01*
X55575000Y-14975000D01*
G75*
G02*
X55337500Y-14737500I0J237500D01*
G01*
X55337500Y-14262500D01*
G75*
G02*
X55575000Y-14025000I237500J0D01*
G01*
X56075000Y-14025000D01*
G75*
G02*
X56312500Y-14262500I0J-237500D01*
G01*
G37*
%TD*%
%TO.C,R11*%
G36*
G01*
X56312500Y-16862500D02*
X56312500Y-17337500D01*
G75*
G02*
X56075000Y-17575000I-237500J0D01*
G01*
X55575000Y-17575000D01*
G75*
G02*
X55337500Y-17337500I0J237500D01*
G01*
X55337500Y-16862500D01*
G75*
G02*
X55575000Y-16625000I237500J0D01*
G01*
X56075000Y-16625000D01*
G75*
G02*
X56312500Y-16862500I0J-237500D01*
G01*
G37*
G36*
G01*
X54487500Y-16862500D02*
X54487500Y-17337500D01*
G75*
G02*
X54250000Y-17575000I-237500J0D01*
G01*
X53750000Y-17575000D01*
G75*
G02*
X53512500Y-17337500I0J237500D01*
G01*
X53512500Y-16862500D01*
G75*
G02*
X53750000Y-16625000I237500J0D01*
G01*
X54250000Y-16625000D01*
G75*
G02*
X54487500Y-16862500I0J-237500D01*
G01*
G37*
%TD*%
%TO.C,R12*%
G36*
G01*
X92162500Y-27387500D02*
X92637500Y-27387500D01*
G75*
G02*
X92875000Y-27625000I0J-237500D01*
G01*
X92875000Y-28125000D01*
G75*
G02*
X92637500Y-28362500I-237500J0D01*
G01*
X92162500Y-28362500D01*
G75*
G02*
X91925000Y-28125000I0J237500D01*
G01*
X91925000Y-27625000D01*
G75*
G02*
X92162500Y-27387500I237500J0D01*
G01*
G37*
G36*
G01*
X92162500Y-25562500D02*
X92637500Y-25562500D01*
G75*
G02*
X92875000Y-25800000I0J-237500D01*
G01*
X92875000Y-26300000D01*
G75*
G02*
X92637500Y-26537500I-237500J0D01*
G01*
X92162500Y-26537500D01*
G75*
G02*
X91925000Y-26300000I0J237500D01*
G01*
X91925000Y-25800000D01*
G75*
G02*
X92162500Y-25562500I237500J0D01*
G01*
G37*
%TD*%
%TO.C,R13*%
G36*
G01*
X94662500Y-25562500D02*
X95137500Y-25562500D01*
G75*
G02*
X95375000Y-25800000I0J-237500D01*
G01*
X95375000Y-26300000D01*
G75*
G02*
X95137500Y-26537500I-237500J0D01*
G01*
X94662500Y-26537500D01*
G75*
G02*
X94425000Y-26300000I0J237500D01*
G01*
X94425000Y-25800000D01*
G75*
G02*
X94662500Y-25562500I237500J0D01*
G01*
G37*
G36*
G01*
X94662500Y-27387500D02*
X95137500Y-27387500D01*
G75*
G02*
X95375000Y-27625000I0J-237500D01*
G01*
X95375000Y-28125000D01*
G75*
G02*
X95137500Y-28362500I-237500J0D01*
G01*
X94662500Y-28362500D01*
G75*
G02*
X94425000Y-28125000I0J237500D01*
G01*
X94425000Y-27625000D01*
G75*
G02*
X94662500Y-27387500I237500J0D01*
G01*
G37*
%TD*%
%TO.C,U1*%
G36*
G01*
X27012500Y-28775000D02*
X26887500Y-28775000D01*
G75*
G02*
X26825000Y-28712500I0J62500D01*
G01*
X26825000Y-27962500D01*
G75*
G02*
X26887500Y-27900000I62500J0D01*
G01*
X27012500Y-27900000D01*
G75*
G02*
X27075000Y-27962500I0J-62500D01*
G01*
X27075000Y-28712500D01*
G75*
G02*
X27012500Y-28775000I-62500J0D01*
G01*
G37*
G36*
G01*
X27512500Y-28775000D02*
X27387500Y-28775000D01*
G75*
G02*
X27325000Y-28712500I0J62500D01*
G01*
X27325000Y-27962500D01*
G75*
G02*
X27387500Y-27900000I62500J0D01*
G01*
X27512500Y-27900000D01*
G75*
G02*
X27575000Y-27962500I0J-62500D01*
G01*
X27575000Y-28712500D01*
G75*
G02*
X27512500Y-28775000I-62500J0D01*
G01*
G37*
G36*
G01*
X28012500Y-28775000D02*
X27887500Y-28775000D01*
G75*
G02*
X27825000Y-28712500I0J62500D01*
G01*
X27825000Y-27962500D01*
G75*
G02*
X27887500Y-27900000I62500J0D01*
G01*
X28012500Y-27900000D01*
G75*
G02*
X28075000Y-27962500I0J-62500D01*
G01*
X28075000Y-28712500D01*
G75*
G02*
X28012500Y-28775000I-62500J0D01*
G01*
G37*
G36*
G01*
X28512500Y-28775000D02*
X28387500Y-28775000D01*
G75*
G02*
X28325000Y-28712500I0J62500D01*
G01*
X28325000Y-27962500D01*
G75*
G02*
X28387500Y-27900000I62500J0D01*
G01*
X28512500Y-27900000D01*
G75*
G02*
X28575000Y-27962500I0J-62500D01*
G01*
X28575000Y-28712500D01*
G75*
G02*
X28512500Y-28775000I-62500J0D01*
G01*
G37*
G36*
G01*
X29012500Y-28775000D02*
X28887500Y-28775000D01*
G75*
G02*
X28825000Y-28712500I0J62500D01*
G01*
X28825000Y-27962500D01*
G75*
G02*
X28887500Y-27900000I62500J0D01*
G01*
X29012500Y-27900000D01*
G75*
G02*
X29075000Y-27962500I0J-62500D01*
G01*
X29075000Y-28712500D01*
G75*
G02*
X29012500Y-28775000I-62500J0D01*
G01*
G37*
G36*
G01*
X29512500Y-28775000D02*
X29387500Y-28775000D01*
G75*
G02*
X29325000Y-28712500I0J62500D01*
G01*
X29325000Y-27962500D01*
G75*
G02*
X29387500Y-27900000I62500J0D01*
G01*
X29512500Y-27900000D01*
G75*
G02*
X29575000Y-27962500I0J-62500D01*
G01*
X29575000Y-28712500D01*
G75*
G02*
X29512500Y-28775000I-62500J0D01*
G01*
G37*
G36*
G01*
X30012500Y-28775000D02*
X29887500Y-28775000D01*
G75*
G02*
X29825000Y-28712500I0J62500D01*
G01*
X29825000Y-27962500D01*
G75*
G02*
X29887500Y-27900000I62500J0D01*
G01*
X30012500Y-27900000D01*
G75*
G02*
X30075000Y-27962500I0J-62500D01*
G01*
X30075000Y-28712500D01*
G75*
G02*
X30012500Y-28775000I-62500J0D01*
G01*
G37*
G36*
G01*
X30512500Y-28775000D02*
X30387500Y-28775000D01*
G75*
G02*
X30325000Y-28712500I0J62500D01*
G01*
X30325000Y-27962500D01*
G75*
G02*
X30387500Y-27900000I62500J0D01*
G01*
X30512500Y-27900000D01*
G75*
G02*
X30575000Y-27962500I0J-62500D01*
G01*
X30575000Y-28712500D01*
G75*
G02*
X30512500Y-28775000I-62500J0D01*
G01*
G37*
G36*
G01*
X31512500Y-27775000D02*
X30762500Y-27775000D01*
G75*
G02*
X30700000Y-27712500I0J62500D01*
G01*
X30700000Y-27587500D01*
G75*
G02*
X30762500Y-27525000I62500J0D01*
G01*
X31512500Y-27525000D01*
G75*
G02*
X31575000Y-27587500I0J-62500D01*
G01*
X31575000Y-27712500D01*
G75*
G02*
X31512500Y-27775000I-62500J0D01*
G01*
G37*
G36*
G01*
X31512500Y-27275000D02*
X30762500Y-27275000D01*
G75*
G02*
X30700000Y-27212500I0J62500D01*
G01*
X30700000Y-27087500D01*
G75*
G02*
X30762500Y-27025000I62500J0D01*
G01*
X31512500Y-27025000D01*
G75*
G02*
X31575000Y-27087500I0J-62500D01*
G01*
X31575000Y-27212500D01*
G75*
G02*
X31512500Y-27275000I-62500J0D01*
G01*
G37*
G36*
G01*
X31512500Y-26775000D02*
X30762500Y-26775000D01*
G75*
G02*
X30700000Y-26712500I0J62500D01*
G01*
X30700000Y-26587500D01*
G75*
G02*
X30762500Y-26525000I62500J0D01*
G01*
X31512500Y-26525000D01*
G75*
G02*
X31575000Y-26587500I0J-62500D01*
G01*
X31575000Y-26712500D01*
G75*
G02*
X31512500Y-26775000I-62500J0D01*
G01*
G37*
G36*
G01*
X31512500Y-26275000D02*
X30762500Y-26275000D01*
G75*
G02*
X30700000Y-26212500I0J62500D01*
G01*
X30700000Y-26087500D01*
G75*
G02*
X30762500Y-26025000I62500J0D01*
G01*
X31512500Y-26025000D01*
G75*
G02*
X31575000Y-26087500I0J-62500D01*
G01*
X31575000Y-26212500D01*
G75*
G02*
X31512500Y-26275000I-62500J0D01*
G01*
G37*
G36*
G01*
X31512500Y-25775000D02*
X30762500Y-25775000D01*
G75*
G02*
X30700000Y-25712500I0J62500D01*
G01*
X30700000Y-25587500D01*
G75*
G02*
X30762500Y-25525000I62500J0D01*
G01*
X31512500Y-25525000D01*
G75*
G02*
X31575000Y-25587500I0J-62500D01*
G01*
X31575000Y-25712500D01*
G75*
G02*
X31512500Y-25775000I-62500J0D01*
G01*
G37*
G36*
G01*
X31512500Y-25275000D02*
X30762500Y-25275000D01*
G75*
G02*
X30700000Y-25212500I0J62500D01*
G01*
X30700000Y-25087500D01*
G75*
G02*
X30762500Y-25025000I62500J0D01*
G01*
X31512500Y-25025000D01*
G75*
G02*
X31575000Y-25087500I0J-62500D01*
G01*
X31575000Y-25212500D01*
G75*
G02*
X31512500Y-25275000I-62500J0D01*
G01*
G37*
G36*
G01*
X31512500Y-24775000D02*
X30762500Y-24775000D01*
G75*
G02*
X30700000Y-24712500I0J62500D01*
G01*
X30700000Y-24587500D01*
G75*
G02*
X30762500Y-24525000I62500J0D01*
G01*
X31512500Y-24525000D01*
G75*
G02*
X31575000Y-24587500I0J-62500D01*
G01*
X31575000Y-24712500D01*
G75*
G02*
X31512500Y-24775000I-62500J0D01*
G01*
G37*
G36*
G01*
X31512500Y-24275000D02*
X30762500Y-24275000D01*
G75*
G02*
X30700000Y-24212500I0J62500D01*
G01*
X30700000Y-24087500D01*
G75*
G02*
X30762500Y-24025000I62500J0D01*
G01*
X31512500Y-24025000D01*
G75*
G02*
X31575000Y-24087500I0J-62500D01*
G01*
X31575000Y-24212500D01*
G75*
G02*
X31512500Y-24275000I-62500J0D01*
G01*
G37*
G36*
G01*
X30512500Y-23900000D02*
X30387500Y-23900000D01*
G75*
G02*
X30325000Y-23837500I0J62500D01*
G01*
X30325000Y-23087500D01*
G75*
G02*
X30387500Y-23025000I62500J0D01*
G01*
X30512500Y-23025000D01*
G75*
G02*
X30575000Y-23087500I0J-62500D01*
G01*
X30575000Y-23837500D01*
G75*
G02*
X30512500Y-23900000I-62500J0D01*
G01*
G37*
G36*
G01*
X30012500Y-23900000D02*
X29887500Y-23900000D01*
G75*
G02*
X29825000Y-23837500I0J62500D01*
G01*
X29825000Y-23087500D01*
G75*
G02*
X29887500Y-23025000I62500J0D01*
G01*
X30012500Y-23025000D01*
G75*
G02*
X30075000Y-23087500I0J-62500D01*
G01*
X30075000Y-23837500D01*
G75*
G02*
X30012500Y-23900000I-62500J0D01*
G01*
G37*
G36*
G01*
X29512500Y-23900000D02*
X29387500Y-23900000D01*
G75*
G02*
X29325000Y-23837500I0J62500D01*
G01*
X29325000Y-23087500D01*
G75*
G02*
X29387500Y-23025000I62500J0D01*
G01*
X29512500Y-23025000D01*
G75*
G02*
X29575000Y-23087500I0J-62500D01*
G01*
X29575000Y-23837500D01*
G75*
G02*
X29512500Y-23900000I-62500J0D01*
G01*
G37*
G36*
G01*
X29012500Y-23900000D02*
X28887500Y-23900000D01*
G75*
G02*
X28825000Y-23837500I0J62500D01*
G01*
X28825000Y-23087500D01*
G75*
G02*
X28887500Y-23025000I62500J0D01*
G01*
X29012500Y-23025000D01*
G75*
G02*
X29075000Y-23087500I0J-62500D01*
G01*
X29075000Y-23837500D01*
G75*
G02*
X29012500Y-23900000I-62500J0D01*
G01*
G37*
G36*
G01*
X28512500Y-23900000D02*
X28387500Y-23900000D01*
G75*
G02*
X28325000Y-23837500I0J62500D01*
G01*
X28325000Y-23087500D01*
G75*
G02*
X28387500Y-23025000I62500J0D01*
G01*
X28512500Y-23025000D01*
G75*
G02*
X28575000Y-23087500I0J-62500D01*
G01*
X28575000Y-23837500D01*
G75*
G02*
X28512500Y-23900000I-62500J0D01*
G01*
G37*
G36*
G01*
X28012500Y-23900000D02*
X27887500Y-23900000D01*
G75*
G02*
X27825000Y-23837500I0J62500D01*
G01*
X27825000Y-23087500D01*
G75*
G02*
X27887500Y-23025000I62500J0D01*
G01*
X28012500Y-23025000D01*
G75*
G02*
X28075000Y-23087500I0J-62500D01*
G01*
X28075000Y-23837500D01*
G75*
G02*
X28012500Y-23900000I-62500J0D01*
G01*
G37*
G36*
G01*
X27512500Y-23900000D02*
X27387500Y-23900000D01*
G75*
G02*
X27325000Y-23837500I0J62500D01*
G01*
X27325000Y-23087500D01*
G75*
G02*
X27387500Y-23025000I62500J0D01*
G01*
X27512500Y-23025000D01*
G75*
G02*
X27575000Y-23087500I0J-62500D01*
G01*
X27575000Y-23837500D01*
G75*
G02*
X27512500Y-23900000I-62500J0D01*
G01*
G37*
G36*
G01*
X27012500Y-23900000D02*
X26887500Y-23900000D01*
G75*
G02*
X26825000Y-23837500I0J62500D01*
G01*
X26825000Y-23087500D01*
G75*
G02*
X26887500Y-23025000I62500J0D01*
G01*
X27012500Y-23025000D01*
G75*
G02*
X27075000Y-23087500I0J-62500D01*
G01*
X27075000Y-23837500D01*
G75*
G02*
X27012500Y-23900000I-62500J0D01*
G01*
G37*
G36*
G01*
X26637500Y-24275000D02*
X25887500Y-24275000D01*
G75*
G02*
X25825000Y-24212500I0J62500D01*
G01*
X25825000Y-24087500D01*
G75*
G02*
X25887500Y-24025000I62500J0D01*
G01*
X26637500Y-24025000D01*
G75*
G02*
X26700000Y-24087500I0J-62500D01*
G01*
X26700000Y-24212500D01*
G75*
G02*
X26637500Y-24275000I-62500J0D01*
G01*
G37*
G36*
G01*
X26637500Y-24775000D02*
X25887500Y-24775000D01*
G75*
G02*
X25825000Y-24712500I0J62500D01*
G01*
X25825000Y-24587500D01*
G75*
G02*
X25887500Y-24525000I62500J0D01*
G01*
X26637500Y-24525000D01*
G75*
G02*
X26700000Y-24587500I0J-62500D01*
G01*
X26700000Y-24712500D01*
G75*
G02*
X26637500Y-24775000I-62500J0D01*
G01*
G37*
G36*
G01*
X26637500Y-25275000D02*
X25887500Y-25275000D01*
G75*
G02*
X25825000Y-25212500I0J62500D01*
G01*
X25825000Y-25087500D01*
G75*
G02*
X25887500Y-25025000I62500J0D01*
G01*
X26637500Y-25025000D01*
G75*
G02*
X26700000Y-25087500I0J-62500D01*
G01*
X26700000Y-25212500D01*
G75*
G02*
X26637500Y-25275000I-62500J0D01*
G01*
G37*
G36*
G01*
X26637500Y-25775000D02*
X25887500Y-25775000D01*
G75*
G02*
X25825000Y-25712500I0J62500D01*
G01*
X25825000Y-25587500D01*
G75*
G02*
X25887500Y-25525000I62500J0D01*
G01*
X26637500Y-25525000D01*
G75*
G02*
X26700000Y-25587500I0J-62500D01*
G01*
X26700000Y-25712500D01*
G75*
G02*
X26637500Y-25775000I-62500J0D01*
G01*
G37*
G36*
G01*
X26637500Y-26275000D02*
X25887500Y-26275000D01*
G75*
G02*
X25825000Y-26212500I0J62500D01*
G01*
X25825000Y-26087500D01*
G75*
G02*
X25887500Y-26025000I62500J0D01*
G01*
X26637500Y-26025000D01*
G75*
G02*
X26700000Y-26087500I0J-62500D01*
G01*
X26700000Y-26212500D01*
G75*
G02*
X26637500Y-26275000I-62500J0D01*
G01*
G37*
G36*
G01*
X26637500Y-26775000D02*
X25887500Y-26775000D01*
G75*
G02*
X25825000Y-26712500I0J62500D01*
G01*
X25825000Y-26587500D01*
G75*
G02*
X25887500Y-26525000I62500J0D01*
G01*
X26637500Y-26525000D01*
G75*
G02*
X26700000Y-26587500I0J-62500D01*
G01*
X26700000Y-26712500D01*
G75*
G02*
X26637500Y-26775000I-62500J0D01*
G01*
G37*
G36*
G01*
X26637500Y-27275000D02*
X25887500Y-27275000D01*
G75*
G02*
X25825000Y-27212500I0J62500D01*
G01*
X25825000Y-27087500D01*
G75*
G02*
X25887500Y-27025000I62500J0D01*
G01*
X26637500Y-27025000D01*
G75*
G02*
X26700000Y-27087500I0J-62500D01*
G01*
X26700000Y-27212500D01*
G75*
G02*
X26637500Y-27275000I-62500J0D01*
G01*
G37*
G36*
G01*
X26637500Y-27775000D02*
X25887500Y-27775000D01*
G75*
G02*
X25825000Y-27712500I0J62500D01*
G01*
X25825000Y-27587500D01*
G75*
G02*
X25887500Y-27525000I62500J0D01*
G01*
X26637500Y-27525000D01*
G75*
G02*
X26700000Y-27587500I0J-62500D01*
G01*
X26700000Y-27712500D01*
G75*
G02*
X26637500Y-27775000I-62500J0D01*
G01*
G37*
G36*
G01*
X28401557Y-26803113D02*
X27998443Y-26803113D01*
G75*
G02*
X27796887Y-26601557I0J201556D01*
G01*
X27796887Y-26198443D01*
G75*
G02*
X27998443Y-25996887I201556J0D01*
G01*
X28401557Y-25996887D01*
G75*
G02*
X28603113Y-26198443I0J-201556D01*
G01*
X28603113Y-26601557D01*
G75*
G02*
X28401557Y-26803113I-201556J0D01*
G01*
G37*
G36*
G01*
X29401557Y-26803113D02*
X28998443Y-26803113D01*
G75*
G02*
X28796887Y-26601557I0J201556D01*
G01*
X28796887Y-26198443D01*
G75*
G02*
X28998443Y-25996887I201556J0D01*
G01*
X29401557Y-25996887D01*
G75*
G02*
X29603113Y-26198443I0J-201556D01*
G01*
X29603113Y-26601557D01*
G75*
G02*
X29401557Y-26803113I-201556J0D01*
G01*
G37*
G36*
G01*
X28401557Y-25803113D02*
X27998443Y-25803113D01*
G75*
G02*
X27796887Y-25601557I0J201556D01*
G01*
X27796887Y-25198443D01*
G75*
G02*
X27998443Y-24996887I201556J0D01*
G01*
X28401557Y-24996887D01*
G75*
G02*
X28603113Y-25198443I0J-201556D01*
G01*
X28603113Y-25601557D01*
G75*
G02*
X28401557Y-25803113I-201556J0D01*
G01*
G37*
G36*
G01*
X29401557Y-25803113D02*
X28998443Y-25803113D01*
G75*
G02*
X28796887Y-25601557I0J201556D01*
G01*
X28796887Y-25198443D01*
G75*
G02*
X28998443Y-24996887I201556J0D01*
G01*
X29401557Y-24996887D01*
G75*
G02*
X29603113Y-25198443I0J-201556D01*
G01*
X29603113Y-25601557D01*
G75*
G02*
X29401557Y-25803113I-201556J0D01*
G01*
G37*
D13*
G36*
X27798459Y-27103885D02*
G01*
X27803115Y-27088535D01*
X27810676Y-27074390D01*
X27820852Y-27061991D01*
X27888635Y-26994208D01*
X27901034Y-26984032D01*
X27915179Y-26976471D01*
X27930529Y-26971815D01*
X27946491Y-26970243D01*
X28453509Y-26970243D01*
X28469471Y-26971815D01*
X28484821Y-26976471D01*
X28498966Y-26984032D01*
X28511365Y-26994208D01*
X28579148Y-27061991D01*
X28589324Y-27074390D01*
X28596885Y-27088535D01*
X28601541Y-27103885D01*
X28603113Y-27119847D01*
X28603113Y-27472936D01*
X28601541Y-27488898D01*
X28596885Y-27504248D01*
X28589324Y-27518393D01*
X28579148Y-27530792D01*
X28566749Y-27540968D01*
X28552604Y-27548529D01*
X28537254Y-27553185D01*
X28521292Y-27554757D01*
X27878708Y-27554757D01*
X27862746Y-27553185D01*
X27847396Y-27548529D01*
X27833251Y-27540968D01*
X27820852Y-27530792D01*
X27810676Y-27518393D01*
X27803115Y-27504248D01*
X27798459Y-27488898D01*
X27796887Y-27472936D01*
X27796887Y-27119847D01*
X27798459Y-27103885D01*
G37*
G36*
X28798459Y-27103885D02*
G01*
X28803115Y-27088535D01*
X28810676Y-27074390D01*
X28820852Y-27061991D01*
X28888635Y-26994208D01*
X28901034Y-26984032D01*
X28915179Y-26976471D01*
X28930529Y-26971815D01*
X28946491Y-26970243D01*
X29453509Y-26970243D01*
X29469471Y-26971815D01*
X29484821Y-26976471D01*
X29498966Y-26984032D01*
X29511365Y-26994208D01*
X29579148Y-27061991D01*
X29589324Y-27074390D01*
X29596885Y-27088535D01*
X29601541Y-27103885D01*
X29603113Y-27119847D01*
X29603113Y-27472936D01*
X29601541Y-27488898D01*
X29596885Y-27504248D01*
X29589324Y-27518393D01*
X29579148Y-27530792D01*
X29566749Y-27540968D01*
X29552604Y-27548529D01*
X29537254Y-27553185D01*
X29521292Y-27554757D01*
X28878708Y-27554757D01*
X28862746Y-27553185D01*
X28847396Y-27548529D01*
X28833251Y-27540968D01*
X28820852Y-27530792D01*
X28810676Y-27518393D01*
X28803115Y-27504248D01*
X28798459Y-27488898D01*
X28796887Y-27472936D01*
X28796887Y-27119847D01*
X28798459Y-27103885D01*
G37*
G36*
X27798459Y-24311102D02*
G01*
X27803115Y-24295752D01*
X27810676Y-24281607D01*
X27820852Y-24269208D01*
X27833251Y-24259032D01*
X27847396Y-24251471D01*
X27862746Y-24246815D01*
X27878708Y-24245243D01*
X28521292Y-24245243D01*
X28537254Y-24246815D01*
X28552604Y-24251471D01*
X28566749Y-24259032D01*
X28579148Y-24269208D01*
X28589324Y-24281607D01*
X28596885Y-24295752D01*
X28601541Y-24311102D01*
X28603113Y-24327064D01*
X28603113Y-24680153D01*
X28601541Y-24696115D01*
X28596885Y-24711465D01*
X28589324Y-24725610D01*
X28579148Y-24738009D01*
X28511365Y-24805792D01*
X28498966Y-24815968D01*
X28484821Y-24823529D01*
X28469471Y-24828185D01*
X28453509Y-24829757D01*
X27946491Y-24829757D01*
X27930529Y-24828185D01*
X27915179Y-24823529D01*
X27901034Y-24815968D01*
X27888635Y-24805792D01*
X27820852Y-24738009D01*
X27810676Y-24725610D01*
X27803115Y-24711465D01*
X27798459Y-24696115D01*
X27796887Y-24680153D01*
X27796887Y-24327064D01*
X27798459Y-24311102D01*
G37*
G36*
X28798459Y-24311102D02*
G01*
X28803115Y-24295752D01*
X28810676Y-24281607D01*
X28820852Y-24269208D01*
X28833251Y-24259032D01*
X28847396Y-24251471D01*
X28862746Y-24246815D01*
X28878708Y-24245243D01*
X29521292Y-24245243D01*
X29537254Y-24246815D01*
X29552604Y-24251471D01*
X29566749Y-24259032D01*
X29579148Y-24269208D01*
X29589324Y-24281607D01*
X29596885Y-24295752D01*
X29601541Y-24311102D01*
X29603113Y-24327064D01*
X29603113Y-24680153D01*
X29601541Y-24696115D01*
X29596885Y-24711465D01*
X29589324Y-24725610D01*
X29579148Y-24738009D01*
X29511365Y-24805792D01*
X29498966Y-24815968D01*
X29484821Y-24823529D01*
X29469471Y-24828185D01*
X29453509Y-24829757D01*
X28946491Y-24829757D01*
X28930529Y-24828185D01*
X28915179Y-24823529D01*
X28901034Y-24815968D01*
X28888635Y-24805792D01*
X28820852Y-24738009D01*
X28810676Y-24725610D01*
X28803115Y-24711465D01*
X28798459Y-24696115D01*
X28796887Y-24680153D01*
X28796887Y-24327064D01*
X28798459Y-24311102D01*
G37*
G36*
X27046815Y-26062746D02*
G01*
X27051471Y-26047396D01*
X27059032Y-26033251D01*
X27069208Y-26020852D01*
X27081607Y-26010676D01*
X27095752Y-26003115D01*
X27111102Y-25998459D01*
X27127064Y-25996887D01*
X27480153Y-25996887D01*
X27496115Y-25998459D01*
X27511465Y-26003115D01*
X27525610Y-26010676D01*
X27538009Y-26020852D01*
X27605792Y-26088635D01*
X27615968Y-26101034D01*
X27623529Y-26115179D01*
X27628185Y-26130529D01*
X27629757Y-26146491D01*
X27629757Y-26653509D01*
X27628185Y-26669471D01*
X27623529Y-26684821D01*
X27615968Y-26698966D01*
X27605792Y-26711365D01*
X27538009Y-26779148D01*
X27525610Y-26789324D01*
X27511465Y-26796885D01*
X27496115Y-26801541D01*
X27480153Y-26803113D01*
X27127064Y-26803113D01*
X27111102Y-26801541D01*
X27095752Y-26796885D01*
X27081607Y-26789324D01*
X27069208Y-26779148D01*
X27059032Y-26766749D01*
X27051471Y-26752604D01*
X27046815Y-26737254D01*
X27045243Y-26721292D01*
X27045243Y-26078708D01*
X27046815Y-26062746D01*
G37*
G36*
X27046815Y-25062746D02*
G01*
X27051471Y-25047396D01*
X27059032Y-25033251D01*
X27069208Y-25020852D01*
X27081607Y-25010676D01*
X27095752Y-25003115D01*
X27111102Y-24998459D01*
X27127064Y-24996887D01*
X27480153Y-24996887D01*
X27496115Y-24998459D01*
X27511465Y-25003115D01*
X27525610Y-25010676D01*
X27538009Y-25020852D01*
X27605792Y-25088635D01*
X27615968Y-25101034D01*
X27623529Y-25115179D01*
X27628185Y-25130529D01*
X27629757Y-25146491D01*
X27629757Y-25653509D01*
X27628185Y-25669471D01*
X27623529Y-25684821D01*
X27615968Y-25698966D01*
X27605792Y-25711365D01*
X27538009Y-25779148D01*
X27525610Y-25789324D01*
X27511465Y-25796885D01*
X27496115Y-25801541D01*
X27480153Y-25803113D01*
X27127064Y-25803113D01*
X27111102Y-25801541D01*
X27095752Y-25796885D01*
X27081607Y-25789324D01*
X27069208Y-25779148D01*
X27059032Y-25766749D01*
X27051471Y-25752604D01*
X27046815Y-25737254D01*
X27045243Y-25721292D01*
X27045243Y-25078708D01*
X27046815Y-25062746D01*
G37*
G36*
X29771815Y-26130529D02*
G01*
X29776471Y-26115179D01*
X29784032Y-26101034D01*
X29794208Y-26088635D01*
X29861991Y-26020852D01*
X29874390Y-26010676D01*
X29888535Y-26003115D01*
X29903885Y-25998459D01*
X29919847Y-25996887D01*
X30272936Y-25996887D01*
X30288898Y-25998459D01*
X30304248Y-26003115D01*
X30318393Y-26010676D01*
X30330792Y-26020852D01*
X30340968Y-26033251D01*
X30348529Y-26047396D01*
X30353185Y-26062746D01*
X30354757Y-26078708D01*
X30354757Y-26721292D01*
X30353185Y-26737254D01*
X30348529Y-26752604D01*
X30340968Y-26766749D01*
X30330792Y-26779148D01*
X30318393Y-26789324D01*
X30304248Y-26796885D01*
X30288898Y-26801541D01*
X30272936Y-26803113D01*
X29919847Y-26803113D01*
X29903885Y-26801541D01*
X29888535Y-26796885D01*
X29874390Y-26789324D01*
X29861991Y-26779148D01*
X29794208Y-26711365D01*
X29784032Y-26698966D01*
X29776471Y-26684821D01*
X29771815Y-26669471D01*
X29770243Y-26653509D01*
X29770243Y-26146491D01*
X29771815Y-26130529D01*
G37*
G36*
X29771815Y-25130529D02*
G01*
X29776471Y-25115179D01*
X29784032Y-25101034D01*
X29794208Y-25088635D01*
X29861991Y-25020852D01*
X29874390Y-25010676D01*
X29888535Y-25003115D01*
X29903885Y-24998459D01*
X29919847Y-24996887D01*
X30272936Y-24996887D01*
X30288898Y-24998459D01*
X30304248Y-25003115D01*
X30318393Y-25010676D01*
X30330792Y-25020852D01*
X30340968Y-25033251D01*
X30348529Y-25047396D01*
X30353185Y-25062746D01*
X30354757Y-25078708D01*
X30354757Y-25721292D01*
X30353185Y-25737254D01*
X30348529Y-25752604D01*
X30340968Y-25766749D01*
X30330792Y-25779148D01*
X30318393Y-25789324D01*
X30304248Y-25796885D01*
X30288898Y-25801541D01*
X30272936Y-25803113D01*
X29919847Y-25803113D01*
X29903885Y-25801541D01*
X29888535Y-25796885D01*
X29874390Y-25789324D01*
X29861991Y-25779148D01*
X29794208Y-25711365D01*
X29784032Y-25698966D01*
X29776471Y-25684821D01*
X29771815Y-25669471D01*
X29770243Y-25653509D01*
X29770243Y-25146491D01*
X29771815Y-25130529D01*
G37*
G36*
X27047177Y-27051266D02*
G01*
X27052905Y-27032383D01*
X27062207Y-27014980D01*
X27074726Y-26999726D01*
X27089980Y-26987207D01*
X27107383Y-26977905D01*
X27126266Y-26972177D01*
X27145904Y-26970243D01*
X27445705Y-26970243D01*
X27465343Y-26972177D01*
X27484226Y-26977905D01*
X27501629Y-26987207D01*
X27516883Y-26999726D01*
X27600274Y-27083117D01*
X27612793Y-27098371D01*
X27622095Y-27115774D01*
X27627823Y-27134657D01*
X27629757Y-27154295D01*
X27629757Y-27454096D01*
X27627823Y-27473734D01*
X27622095Y-27492617D01*
X27612793Y-27510020D01*
X27600274Y-27525274D01*
X27585020Y-27537793D01*
X27567617Y-27547095D01*
X27548734Y-27552823D01*
X27529096Y-27554757D01*
X27145904Y-27554757D01*
X27126266Y-27552823D01*
X27107383Y-27547095D01*
X27089980Y-27537793D01*
X27074726Y-27525274D01*
X27062207Y-27510020D01*
X27052905Y-27492617D01*
X27047177Y-27473734D01*
X27045243Y-27454096D01*
X27045243Y-27070904D01*
X27047177Y-27051266D01*
G37*
G36*
X29772177Y-27134657D02*
G01*
X29777905Y-27115774D01*
X29787207Y-27098371D01*
X29799726Y-27083117D01*
X29883117Y-26999726D01*
X29898371Y-26987207D01*
X29915774Y-26977905D01*
X29934657Y-26972177D01*
X29954295Y-26970243D01*
X30254096Y-26970243D01*
X30273734Y-26972177D01*
X30292617Y-26977905D01*
X30310020Y-26987207D01*
X30325274Y-26999726D01*
X30337793Y-27014980D01*
X30347095Y-27032383D01*
X30352823Y-27051266D01*
X30354757Y-27070904D01*
X30354757Y-27454096D01*
X30352823Y-27473734D01*
X30347095Y-27492617D01*
X30337793Y-27510020D01*
X30325274Y-27525274D01*
X30310020Y-27537793D01*
X30292617Y-27547095D01*
X30273734Y-27552823D01*
X30254096Y-27554757D01*
X29870904Y-27554757D01*
X29851266Y-27552823D01*
X29832383Y-27547095D01*
X29814980Y-27537793D01*
X29799726Y-27525274D01*
X29787207Y-27510020D01*
X29777905Y-27492617D01*
X29772177Y-27473734D01*
X29770243Y-27454096D01*
X29770243Y-27154295D01*
X29772177Y-27134657D01*
G37*
G36*
X27047177Y-24326266D02*
G01*
X27052905Y-24307383D01*
X27062207Y-24289980D01*
X27074726Y-24274726D01*
X27089980Y-24262207D01*
X27107383Y-24252905D01*
X27126266Y-24247177D01*
X27145904Y-24245243D01*
X27529096Y-24245243D01*
X27548734Y-24247177D01*
X27567617Y-24252905D01*
X27585020Y-24262207D01*
X27600274Y-24274726D01*
X27612793Y-24289980D01*
X27622095Y-24307383D01*
X27627823Y-24326266D01*
X27629757Y-24345904D01*
X27629757Y-24645705D01*
X27627823Y-24665343D01*
X27622095Y-24684226D01*
X27612793Y-24701629D01*
X27600274Y-24716883D01*
X27516883Y-24800274D01*
X27501629Y-24812793D01*
X27484226Y-24822095D01*
X27465343Y-24827823D01*
X27445705Y-24829757D01*
X27145904Y-24829757D01*
X27126266Y-24827823D01*
X27107383Y-24822095D01*
X27089980Y-24812793D01*
X27074726Y-24800274D01*
X27062207Y-24785020D01*
X27052905Y-24767617D01*
X27047177Y-24748734D01*
X27045243Y-24729096D01*
X27045243Y-24345904D01*
X27047177Y-24326266D01*
G37*
G36*
X29772177Y-24326266D02*
G01*
X29777905Y-24307383D01*
X29787207Y-24289980D01*
X29799726Y-24274726D01*
X29814980Y-24262207D01*
X29832383Y-24252905D01*
X29851266Y-24247177D01*
X29870904Y-24245243D01*
X30254096Y-24245243D01*
X30273734Y-24247177D01*
X30292617Y-24252905D01*
X30310020Y-24262207D01*
X30325274Y-24274726D01*
X30337793Y-24289980D01*
X30347095Y-24307383D01*
X30352823Y-24326266D01*
X30354757Y-24345904D01*
X30354757Y-24729096D01*
X30352823Y-24748734D01*
X30347095Y-24767617D01*
X30337793Y-24785020D01*
X30325274Y-24800274D01*
X30310020Y-24812793D01*
X30292617Y-24822095D01*
X30273734Y-24827823D01*
X30254096Y-24829757D01*
X29954295Y-24829757D01*
X29934657Y-24827823D01*
X29915774Y-24822095D01*
X29898371Y-24812793D01*
X29883117Y-24800274D01*
X29799726Y-24716883D01*
X29787207Y-24701629D01*
X29777905Y-24684226D01*
X29772177Y-24665343D01*
X29770243Y-24645705D01*
X29770243Y-24345904D01*
X29772177Y-24326266D01*
G37*
%TD*%
%TO.C,R14*%
G36*
G01*
X56937500Y-22112500D02*
X56462500Y-22112500D01*
G75*
G02*
X56225000Y-21875000I0J237500D01*
G01*
X56225000Y-21375000D01*
G75*
G02*
X56462500Y-21137500I237500J0D01*
G01*
X56937500Y-21137500D01*
G75*
G02*
X57175000Y-21375000I0J-237500D01*
G01*
X57175000Y-21875000D01*
G75*
G02*
X56937500Y-22112500I-237500J0D01*
G01*
G37*
G36*
G01*
X56937500Y-20287500D02*
X56462500Y-20287500D01*
G75*
G02*
X56225000Y-20050000I0J237500D01*
G01*
X56225000Y-19550000D01*
G75*
G02*
X56462500Y-19312500I237500J0D01*
G01*
X56937500Y-19312500D01*
G75*
G02*
X57175000Y-19550000I0J-237500D01*
G01*
X57175000Y-20050000D01*
G75*
G02*
X56937500Y-20287500I-237500J0D01*
G01*
G37*
%TD*%
%TO.C,U2*%
G36*
G01*
X51950000Y-17560000D02*
X51950000Y-17860000D01*
G75*
G02*
X51800000Y-18010000I-150000J0D01*
G01*
X50150000Y-18010000D01*
G75*
G02*
X50000000Y-17860000I0J150000D01*
G01*
X50000000Y-17560000D01*
G75*
G02*
X50150000Y-17410000I150000J0D01*
G01*
X51800000Y-17410000D01*
G75*
G02*
X51950000Y-17560000I0J-150000D01*
G01*
G37*
G36*
G01*
X51950000Y-16290000D02*
X51950000Y-16590000D01*
G75*
G02*
X51800000Y-16740000I-150000J0D01*
G01*
X50150000Y-16740000D01*
G75*
G02*
X50000000Y-16590000I0J150000D01*
G01*
X50000000Y-16290000D01*
G75*
G02*
X50150000Y-16140000I150000J0D01*
G01*
X51800000Y-16140000D01*
G75*
G02*
X51950000Y-16290000I0J-150000D01*
G01*
G37*
G36*
G01*
X51950000Y-15020000D02*
X51950000Y-15320000D01*
G75*
G02*
X51800000Y-15470000I-150000J0D01*
G01*
X50150000Y-15470000D01*
G75*
G02*
X50000000Y-15320000I0J150000D01*
G01*
X50000000Y-15020000D01*
G75*
G02*
X50150000Y-14870000I150000J0D01*
G01*
X51800000Y-14870000D01*
G75*
G02*
X51950000Y-15020000I0J-150000D01*
G01*
G37*
G36*
G01*
X51950000Y-13750000D02*
X51950000Y-14050000D01*
G75*
G02*
X51800000Y-14200000I-150000J0D01*
G01*
X50150000Y-14200000D01*
G75*
G02*
X50000000Y-14050000I0J150000D01*
G01*
X50000000Y-13750000D01*
G75*
G02*
X50150000Y-13600000I150000J0D01*
G01*
X51800000Y-13600000D01*
G75*
G02*
X51950000Y-13750000I0J-150000D01*
G01*
G37*
G36*
G01*
X47000000Y-13750000D02*
X47000000Y-14050000D01*
G75*
G02*
X46850000Y-14200000I-150000J0D01*
G01*
X45200000Y-14200000D01*
G75*
G02*
X45050000Y-14050000I0J150000D01*
G01*
X45050000Y-13750000D01*
G75*
G02*
X45200000Y-13600000I150000J0D01*
G01*
X46850000Y-13600000D01*
G75*
G02*
X47000000Y-13750000I0J-150000D01*
G01*
G37*
G36*
G01*
X47000000Y-15020000D02*
X47000000Y-15320000D01*
G75*
G02*
X46850000Y-15470000I-150000J0D01*
G01*
X45200000Y-15470000D01*
G75*
G02*
X45050000Y-15320000I0J150000D01*
G01*
X45050000Y-15020000D01*
G75*
G02*
X45200000Y-14870000I150000J0D01*
G01*
X46850000Y-14870000D01*
G75*
G02*
X47000000Y-15020000I0J-150000D01*
G01*
G37*
G36*
G01*
X47000000Y-16290000D02*
X47000000Y-16590000D01*
G75*
G02*
X46850000Y-16740000I-150000J0D01*
G01*
X45200000Y-16740000D01*
G75*
G02*
X45050000Y-16590000I0J150000D01*
G01*
X45050000Y-16290000D01*
G75*
G02*
X45200000Y-16140000I150000J0D01*
G01*
X46850000Y-16140000D01*
G75*
G02*
X47000000Y-16290000I0J-150000D01*
G01*
G37*
G36*
G01*
X47000000Y-17560000D02*
X47000000Y-17860000D01*
G75*
G02*
X46850000Y-18010000I-150000J0D01*
G01*
X45200000Y-18010000D01*
G75*
G02*
X45050000Y-17860000I0J150000D01*
G01*
X45050000Y-17560000D01*
G75*
G02*
X45200000Y-17410000I150000J0D01*
G01*
X46850000Y-17410000D01*
G75*
G02*
X47000000Y-17560000I0J-150000D01*
G01*
G37*
%TD*%
M02*
