M48
; DRILL file {KiCad 5.1.12-84ad8e8a86~92~ubuntu20.04.1} date Tue 09 Nov 2021 10:03:48 PM PST
; FORMAT={-:-/ absolute / metric / decimal}
; #@! TF.CreationDate,2021-11-09T22:03:48-08:00
; #@! TF.GenerationSoftware,Kicad,Pcbnew,5.1.12-84ad8e8a86~92~ubuntu20.04.1
FMAT,2
METRIC
T1C0.200
T2C0.400
T3C0.750
T4C1.000
T5C1.100
T6C1.270
T7C1.300
T8C3.175
T9C1.200
%
G90
G05
T1
X27.7Y-24.9
X27.7Y-25.9
X27.7Y-26.9
X28.7Y-24.9
X28.7Y-25.9
X28.7Y-26.9
X29.7Y-24.9
X29.7Y-25.9
X29.7Y-26.9
T2
X11.7Y-17.6
X12.4Y-23.8
X12.4Y-26.1
X12.6Y-4.8
X12.8Y-32.2
X13.3Y-20.1
X14.4Y-15.9
X15.5Y-44.0
X15.8Y-4.8
X15.9Y-16.3
X15.9Y-19.1
X16.1Y-42.0
X17.0Y-27.2
X17.5Y-10.4
X17.5Y-38.3
X19.1Y-14.6
X20.3Y-12.7
X21.6Y-10.1
X21.9Y-30.4
X23.3Y-22.5
X23.4Y-19.3
X24.0Y-29.6
X24.3Y-21.5
X24.9Y-5.0
X25.5Y-42.8
X25.6Y-14.2
X25.6Y-34.0
X26.0Y-31.5
X26.3Y-35.0
X26.4Y-22.3
X27.1Y-30.2
X27.5Y-11.0
X28.7Y-22.2
X29.5Y-39.3
X29.7Y-5.0
X30.4Y-21.3
X30.8Y-9.7
X31.0Y-40.2
X32.4Y-27.9
X32.6Y-24.9
X33.6Y-29.8
X33.6Y-42.8
X34.3Y-24.1
X34.9Y-20.1
X35.5Y-44.0
X37.1Y-16.9
X37.9Y-30.9
X39.0Y-39.9
X39.7Y-36.6
X40.0Y-18.0
X40.0Y-20.1
X40.8Y-30.0
X43.4Y-17.7
X43.8Y-36.6
X44.8Y-20.1
X45.2Y-29.9
X46.2Y-42.8
X46.4Y-33.8
X47.0Y-38.5
X47.3Y-11.6
X48.4Y-19.2
X52.7Y-12.9
X53.0Y-28.5
X53.1Y-21.8
X54.8Y-42.8
X54.9Y-28.5
X55.1Y-22.5
X55.5Y-44.0
X56.9Y-29.3
X57.0Y-24.8
X57.6Y-27.2
X58.5Y-25.4
X58.9Y-28.0
X59.2Y-36.9
X61.4Y-40.3
X61.6Y-21.6
X67.7Y-42.8
X71.35Y-31.15
X74.6Y-20.7
X75.5Y-44.0
X76.0Y-41.0
X78.5Y-27.0
X79.9Y-12.3
X81.7Y-21.0
X82.6Y-27.0
X84.8Y-12.3
X84.8Y-31.1
X85.3Y-21.0
X85.5Y-42.6
X86.3Y-35.9
X87.8Y-31.1
X88.5Y-20.8
X88.9Y-12.3
X91.1Y-20.6
X93.3Y-12.3
X93.5Y-20.7
X96.7Y-16.1
X97.3Y-30.8
X97.3Y-35.4
T3
X49.9Y-34.0
X51.9Y-34.0
X53.9Y-34.0
X55.9Y-34.0
T4
X15.3Y-30.9
X15.3Y-33.44
X15.3Y-35.98
X17.84Y-30.9
X17.84Y-33.44
X17.84Y-35.98
X18.1Y-7.5
X20.6Y-7.5
X23.8Y-38.6
X26.3Y-38.6
X27.3Y-7.5
X29.8Y-7.5
X37.0Y-32.8
X39.5Y-32.8
X60.8Y-16.2
X60.8Y-18.74
X63.34Y-16.2
X63.34Y-18.74
X65.88Y-16.2
X65.88Y-18.74
X68.42Y-16.2
X68.42Y-18.74
X70.96Y-16.2
X70.96Y-18.74
T5
X64.39Y-23.58
X64.39Y-28.66
X64.39Y-31.2
X64.39Y-38.82
X66.93Y-23.58
X66.93Y-38.82
X69.47Y-23.58
X69.47Y-38.82
X72.01Y-23.58
X72.01Y-38.82
X74.55Y-23.58
X74.55Y-38.82
X77.09Y-23.58
X77.09Y-38.82
X79.63Y-23.58
X79.63Y-38.82
X82.17Y-23.58
X82.17Y-38.82
X84.71Y-23.58
X84.71Y-38.82
X87.25Y-23.58
X87.25Y-38.82
X89.79Y-23.58
X89.79Y-38.82
X92.33Y-23.58
X92.33Y-38.82
X94.87Y-23.58
X94.87Y-38.82
X97.41Y-23.58
X97.41Y-38.82
T6
X4.5Y-17.3
X4.5Y-32.7
X9.5Y-12.3
X9.5Y-14.8
X9.5Y-19.8
X9.5Y-22.3
X9.5Y-27.7
X9.5Y-30.2
X9.5Y-35.2
X9.5Y-37.7
X41.8Y-9.5
X44.3Y-9.5
X46.8Y-4.5
X49.3Y-9.5
X51.8Y-9.5
X54.4Y-9.5
X56.9Y-9.5
X59.4Y-4.5
X61.9Y-9.5
X64.4Y-9.5
X67.0Y-9.5
X69.5Y-9.5
X72.0Y-4.5
X74.5Y-9.5
X77.0Y-9.5
X79.6Y-9.5
X82.1Y-9.5
X84.6Y-4.5
X87.1Y-9.5
X89.6Y-9.5
T7
X15.5Y-48.0
X20.5Y-48.0
X25.5Y-48.0
X35.5Y-48.0
X40.5Y-48.0
X45.5Y-48.0
X55.5Y-48.0
X60.5Y-48.0
X65.5Y-48.0
X75.5Y-48.0
X80.5Y-48.0
X85.5Y-48.0
T8
X4.5Y-4.5
X4.5Y-45.5
X95.5Y-4.5
X95.8Y-45.8
T9
X2.0Y-12.3
X2.0Y-22.3
X2.0Y-27.7
X2.0Y-37.7
X4.5Y-12.3
X4.5Y-22.3
X4.5Y-27.7
X4.5Y-37.7
X9.5Y-17.3
X9.5Y-32.7
X41.8Y-2.0
X41.8Y-4.5
X46.8Y-9.5
X51.8Y-2.0
X51.8Y-4.5
X54.4Y-2.0
X54.4Y-4.5
X59.4Y-9.5
X64.4Y-2.0
X64.4Y-4.5
X67.0Y-2.0
X67.0Y-4.5
X72.0Y-9.5
X77.0Y-2.0
X77.0Y-4.5
X79.6Y-2.0
X79.6Y-4.5
X84.6Y-9.5
X89.6Y-2.0
X89.6Y-4.5
T0
M30
