%TF.GenerationSoftware,KiCad,Pcbnew,5.1.11-e4df9d881f~92~ubuntu20.04.1*%
%TF.CreationDate,2021-11-07T16:27:16-08:00*%
%TF.ProjectId,TeensyKeyerShield,5465656e-7379-44b6-9579-657253686965,rev?*%
%TF.SameCoordinates,PX4c4b400PY42c1d80*%
%TF.FileFunction,Legend,Top*%
%TF.FilePolarity,Positive*%
%FSLAX46Y46*%
G04 Gerber Fmt 4.6, Leading zero omitted, Abs format (unit mm)*
G04 Created by KiCad (PCBNEW 5.1.11-e4df9d881f~92~ubuntu20.04.1) date 2021-11-07 16:27:16*
%MOMM*%
%LPD*%
G01*
G04 APERTURE LIST*
%ADD10C,0.150000*%
%ADD11C,0.120000*%
%ADD12C,0.002540*%
%ADD13C,0.100000*%
G04 APERTURE END LIST*
D10*
X53923809Y-30352380D02*
X53923809Y-29352380D01*
X54352380Y-29447619D02*
X54400000Y-29400000D01*
X54495238Y-29352380D01*
X54733333Y-29352380D01*
X54828571Y-29400000D01*
X54876190Y-29447619D01*
X54923809Y-29542857D01*
X54923809Y-29638095D01*
X54876190Y-29780952D01*
X54304761Y-30352380D01*
X54923809Y-30352380D01*
X55923809Y-30257142D02*
X55876190Y-30304761D01*
X55733333Y-30352380D01*
X55638095Y-30352380D01*
X55495238Y-30304761D01*
X55400000Y-30209523D01*
X55352380Y-30114285D01*
X55304761Y-29923809D01*
X55304761Y-29780952D01*
X55352380Y-29590476D01*
X55400000Y-29495238D01*
X55495238Y-29400000D01*
X55638095Y-29352380D01*
X55733333Y-29352380D01*
X55876190Y-29400000D01*
X55923809Y-29447619D01*
X90990476Y-11752380D02*
X90990476Y-10752380D01*
X91371428Y-10752380D01*
X91466666Y-10800000D01*
X91514285Y-10847619D01*
X91561904Y-10942857D01*
X91561904Y-11085714D01*
X91514285Y-11180952D01*
X91466666Y-11228571D01*
X91371428Y-11276190D01*
X90990476Y-11276190D01*
X92419047Y-11752380D02*
X92419047Y-11228571D01*
X92371428Y-11133333D01*
X92276190Y-11085714D01*
X92085714Y-11085714D01*
X91990476Y-11133333D01*
X92419047Y-11704761D02*
X92323809Y-11752380D01*
X92085714Y-11752380D01*
X91990476Y-11704761D01*
X91942857Y-11609523D01*
X91942857Y-11514285D01*
X91990476Y-11419047D01*
X92085714Y-11371428D01*
X92323809Y-11371428D01*
X92419047Y-11323809D01*
X93323809Y-11752380D02*
X93323809Y-10752380D01*
X93323809Y-11704761D02*
X93228571Y-11752380D01*
X93038095Y-11752380D01*
X92942857Y-11704761D01*
X92895238Y-11657142D01*
X92847619Y-11561904D01*
X92847619Y-11276190D01*
X92895238Y-11180952D01*
X92942857Y-11133333D01*
X93038095Y-11085714D01*
X93228571Y-11085714D01*
X93323809Y-11133333D01*
X94228571Y-11752380D02*
X94228571Y-10752380D01*
X94228571Y-11704761D02*
X94133333Y-11752380D01*
X93942857Y-11752380D01*
X93847619Y-11704761D01*
X93800000Y-11657142D01*
X93752380Y-11561904D01*
X93752380Y-11276190D01*
X93800000Y-11180952D01*
X93847619Y-11133333D01*
X93942857Y-11085714D01*
X94133333Y-11085714D01*
X94228571Y-11133333D01*
X94847619Y-11752380D02*
X94752380Y-11704761D01*
X94704761Y-11609523D01*
X94704761Y-10752380D01*
X95609523Y-11704761D02*
X95514285Y-11752380D01*
X95323809Y-11752380D01*
X95228571Y-11704761D01*
X95180952Y-11609523D01*
X95180952Y-11228571D01*
X95228571Y-11133333D01*
X95323809Y-11085714D01*
X95514285Y-11085714D01*
X95609523Y-11133333D01*
X95657142Y-11228571D01*
X95657142Y-11323809D01*
X95180952Y-11419047D01*
X68247619Y-13304761D02*
X68390476Y-13352380D01*
X68628571Y-13352380D01*
X68723809Y-13304761D01*
X68771428Y-13257142D01*
X68819047Y-13161904D01*
X68819047Y-13066666D01*
X68771428Y-12971428D01*
X68723809Y-12923809D01*
X68628571Y-12876190D01*
X68438095Y-12828571D01*
X68342857Y-12780952D01*
X68295238Y-12733333D01*
X68247619Y-12638095D01*
X68247619Y-12542857D01*
X68295238Y-12447619D01*
X68342857Y-12400000D01*
X68438095Y-12352380D01*
X68676190Y-12352380D01*
X68819047Y-12400000D01*
X69104761Y-12685714D02*
X69485714Y-12685714D01*
X69247619Y-12352380D02*
X69247619Y-13209523D01*
X69295238Y-13304761D01*
X69390476Y-13352380D01*
X69485714Y-13352380D01*
X69819047Y-13352380D02*
X69819047Y-12685714D01*
X69819047Y-12876190D02*
X69866666Y-12780952D01*
X69914285Y-12733333D01*
X70009523Y-12685714D01*
X70104761Y-12685714D01*
X70866666Y-13352380D02*
X70866666Y-12828571D01*
X70819047Y-12733333D01*
X70723809Y-12685714D01*
X70533333Y-12685714D01*
X70438095Y-12733333D01*
X70866666Y-13304761D02*
X70771428Y-13352380D01*
X70533333Y-13352380D01*
X70438095Y-13304761D01*
X70390476Y-13209523D01*
X70390476Y-13114285D01*
X70438095Y-13019047D01*
X70533333Y-12971428D01*
X70771428Y-12971428D01*
X70866666Y-12923809D01*
X71342857Y-13352380D02*
X71342857Y-12685714D01*
X71342857Y-12352380D02*
X71295238Y-12400000D01*
X71342857Y-12447619D01*
X71390476Y-12400000D01*
X71342857Y-12352380D01*
X71342857Y-12447619D01*
X72247619Y-12685714D02*
X72247619Y-13495238D01*
X72200000Y-13590476D01*
X72152380Y-13638095D01*
X72057142Y-13685714D01*
X71914285Y-13685714D01*
X71819047Y-13638095D01*
X72247619Y-13304761D02*
X72152380Y-13352380D01*
X71961904Y-13352380D01*
X71866666Y-13304761D01*
X71819047Y-13257142D01*
X71771428Y-13161904D01*
X71771428Y-12876190D01*
X71819047Y-12780952D01*
X71866666Y-12733333D01*
X71961904Y-12685714D01*
X72152380Y-12685714D01*
X72247619Y-12733333D01*
X72723809Y-13352380D02*
X72723809Y-12352380D01*
X73152380Y-13352380D02*
X73152380Y-12828571D01*
X73104761Y-12733333D01*
X73009523Y-12685714D01*
X72866666Y-12685714D01*
X72771428Y-12733333D01*
X72723809Y-12780952D01*
X73485714Y-12685714D02*
X73866666Y-12685714D01*
X73628571Y-12352380D02*
X73628571Y-13209523D01*
X73676190Y-13304761D01*
X73771428Y-13352380D01*
X73866666Y-13352380D01*
X74961904Y-13352380D02*
X74961904Y-12352380D01*
X75533333Y-13352380D02*
X75104761Y-12780952D01*
X75533333Y-12352380D02*
X74961904Y-12923809D01*
X76342857Y-13304761D02*
X76247619Y-13352380D01*
X76057142Y-13352380D01*
X75961904Y-13304761D01*
X75914285Y-13209523D01*
X75914285Y-12828571D01*
X75961904Y-12733333D01*
X76057142Y-12685714D01*
X76247619Y-12685714D01*
X76342857Y-12733333D01*
X76390476Y-12828571D01*
X76390476Y-12923809D01*
X75914285Y-13019047D01*
X76723809Y-12685714D02*
X76961904Y-13352380D01*
X77200000Y-12685714D02*
X76961904Y-13352380D01*
X76866666Y-13590476D01*
X76819047Y-13638095D01*
X76723809Y-13685714D01*
X57204761Y-13352380D02*
X57204761Y-12352380D01*
X57585714Y-12352380D01*
X57680952Y-12400000D01*
X57728571Y-12447619D01*
X57776190Y-12542857D01*
X57776190Y-12685714D01*
X57728571Y-12780952D01*
X57680952Y-12828571D01*
X57585714Y-12876190D01*
X57204761Y-12876190D01*
X58061904Y-12352380D02*
X58633333Y-12352380D01*
X58347619Y-13352380D02*
X58347619Y-12352380D01*
X58823809Y-12352380D02*
X59395238Y-12352380D01*
X59109523Y-13352380D02*
X59109523Y-12352380D01*
X60490476Y-13352380D02*
X60490476Y-12352380D01*
X60966666Y-12685714D02*
X60966666Y-13352380D01*
X60966666Y-12780952D02*
X61014285Y-12733333D01*
X61109523Y-12685714D01*
X61252380Y-12685714D01*
X61347619Y-12733333D01*
X61395238Y-12828571D01*
X61395238Y-13352380D01*
X41600000Y-13152380D02*
X41600000Y-12152380D01*
X42171428Y-13152380D02*
X41742857Y-12580952D01*
X42171428Y-12152380D02*
X41600000Y-12723809D01*
X42980952Y-13104761D02*
X42885714Y-13152380D01*
X42695238Y-13152380D01*
X42600000Y-13104761D01*
X42552380Y-13009523D01*
X42552380Y-12628571D01*
X42600000Y-12533333D01*
X42695238Y-12485714D01*
X42885714Y-12485714D01*
X42980952Y-12533333D01*
X43028571Y-12628571D01*
X43028571Y-12723809D01*
X42552380Y-12819047D01*
X43361904Y-12485714D02*
X43600000Y-13152380D01*
X43838095Y-12485714D02*
X43600000Y-13152380D01*
X43504761Y-13390476D01*
X43457142Y-13438095D01*
X43361904Y-13485714D01*
X44933333Y-12104761D02*
X44076190Y-13390476D01*
X45266666Y-13152380D02*
X45266666Y-12152380D01*
X45647619Y-12152380D01*
X45742857Y-12200000D01*
X45790476Y-12247619D01*
X45838095Y-12342857D01*
X45838095Y-12485714D01*
X45790476Y-12580952D01*
X45742857Y-12628571D01*
X45647619Y-12676190D01*
X45266666Y-12676190D01*
X46123809Y-12152380D02*
X46695238Y-12152380D01*
X46409523Y-13152380D02*
X46409523Y-12152380D01*
X46885714Y-12152380D02*
X47457142Y-12152380D01*
X47171428Y-13152380D02*
X47171428Y-12152380D01*
X48742857Y-12152380D02*
X48933333Y-12152380D01*
X49028571Y-12200000D01*
X49123809Y-12295238D01*
X49171428Y-12485714D01*
X49171428Y-12819047D01*
X49123809Y-13009523D01*
X49028571Y-13104761D01*
X48933333Y-13152380D01*
X48742857Y-13152380D01*
X48647619Y-13104761D01*
X48552380Y-13009523D01*
X48504761Y-12819047D01*
X48504761Y-12485714D01*
X48552380Y-12295238D01*
X48647619Y-12200000D01*
X48742857Y-12152380D01*
X50028571Y-12485714D02*
X50028571Y-13152380D01*
X49600000Y-12485714D02*
X49600000Y-13009523D01*
X49647619Y-13104761D01*
X49742857Y-13152380D01*
X49885714Y-13152380D01*
X49980952Y-13104761D01*
X50028571Y-13057142D01*
X50361904Y-12485714D02*
X50742857Y-12485714D01*
X50504761Y-12152380D02*
X50504761Y-13009523D01*
X50552380Y-13104761D01*
X50647619Y-13152380D01*
X50742857Y-13152380D01*
X73647619Y-30052380D02*
X74219047Y-30052380D01*
X73933333Y-31052380D02*
X73933333Y-30052380D01*
X74933333Y-31004761D02*
X74838095Y-31052380D01*
X74647619Y-31052380D01*
X74552380Y-31004761D01*
X74504761Y-30909523D01*
X74504761Y-30528571D01*
X74552380Y-30433333D01*
X74647619Y-30385714D01*
X74838095Y-30385714D01*
X74933333Y-30433333D01*
X74980952Y-30528571D01*
X74980952Y-30623809D01*
X74504761Y-30719047D01*
X75790476Y-31004761D02*
X75695238Y-31052380D01*
X75504761Y-31052380D01*
X75409523Y-31004761D01*
X75361904Y-30909523D01*
X75361904Y-30528571D01*
X75409523Y-30433333D01*
X75504761Y-30385714D01*
X75695238Y-30385714D01*
X75790476Y-30433333D01*
X75838095Y-30528571D01*
X75838095Y-30623809D01*
X75361904Y-30719047D01*
X76266666Y-30385714D02*
X76266666Y-31052380D01*
X76266666Y-30480952D02*
X76314285Y-30433333D01*
X76409523Y-30385714D01*
X76552380Y-30385714D01*
X76647619Y-30433333D01*
X76695238Y-30528571D01*
X76695238Y-31052380D01*
X77123809Y-31004761D02*
X77219047Y-31052380D01*
X77409523Y-31052380D01*
X77504761Y-31004761D01*
X77552380Y-30909523D01*
X77552380Y-30861904D01*
X77504761Y-30766666D01*
X77409523Y-30719047D01*
X77266666Y-30719047D01*
X77171428Y-30671428D01*
X77123809Y-30576190D01*
X77123809Y-30528571D01*
X77171428Y-30433333D01*
X77266666Y-30385714D01*
X77409523Y-30385714D01*
X77504761Y-30433333D01*
X77885714Y-30385714D02*
X78123809Y-31052380D01*
X78361904Y-30385714D02*
X78123809Y-31052380D01*
X78028571Y-31290476D01*
X77980952Y-31338095D01*
X77885714Y-31385714D01*
X79933333Y-30385714D02*
X79933333Y-31052380D01*
X79695238Y-30004761D02*
X79457142Y-30719047D01*
X80076190Y-30719047D01*
X80457142Y-30957142D02*
X80504761Y-31004761D01*
X80457142Y-31052380D01*
X80409523Y-31004761D01*
X80457142Y-30957142D01*
X80457142Y-31052380D01*
X81123809Y-30052380D02*
X81219047Y-30052380D01*
X81314285Y-30100000D01*
X81361904Y-30147619D01*
X81409523Y-30242857D01*
X81457142Y-30433333D01*
X81457142Y-30671428D01*
X81409523Y-30861904D01*
X81361904Y-30957142D01*
X81314285Y-31004761D01*
X81219047Y-31052380D01*
X81123809Y-31052380D01*
X81028571Y-31004761D01*
X80980952Y-30957142D01*
X80933333Y-30861904D01*
X80885714Y-30671428D01*
X80885714Y-30433333D01*
X80933333Y-30242857D01*
X80980952Y-30147619D01*
X81028571Y-30100000D01*
X81123809Y-30052380D01*
X78752380Y-41404761D02*
X78895238Y-41452380D01*
X79133333Y-41452380D01*
X79228571Y-41404761D01*
X79276190Y-41357142D01*
X79323809Y-41261904D01*
X79323809Y-41166666D01*
X79276190Y-41071428D01*
X79228571Y-41023809D01*
X79133333Y-40976190D01*
X78942857Y-40928571D01*
X78847619Y-40880952D01*
X78800000Y-40833333D01*
X78752380Y-40738095D01*
X78752380Y-40642857D01*
X78800000Y-40547619D01*
X78847619Y-40500000D01*
X78942857Y-40452380D01*
X79180952Y-40452380D01*
X79323809Y-40500000D01*
X79752380Y-40785714D02*
X79752380Y-41785714D01*
X79752380Y-40833333D02*
X79847619Y-40785714D01*
X80038095Y-40785714D01*
X80133333Y-40833333D01*
X80180952Y-40880952D01*
X80228571Y-40976190D01*
X80228571Y-41261904D01*
X80180952Y-41357142D01*
X80133333Y-41404761D01*
X80038095Y-41452380D01*
X79847619Y-41452380D01*
X79752380Y-41404761D01*
X81038095Y-41404761D02*
X80942857Y-41452380D01*
X80752380Y-41452380D01*
X80657142Y-41404761D01*
X80609523Y-41309523D01*
X80609523Y-40928571D01*
X80657142Y-40833333D01*
X80752380Y-40785714D01*
X80942857Y-40785714D01*
X81038095Y-40833333D01*
X81085714Y-40928571D01*
X81085714Y-41023809D01*
X80609523Y-41119047D01*
X81895238Y-41404761D02*
X81800000Y-41452380D01*
X81609523Y-41452380D01*
X81514285Y-41404761D01*
X81466666Y-41309523D01*
X81466666Y-40928571D01*
X81514285Y-40833333D01*
X81609523Y-40785714D01*
X81800000Y-40785714D01*
X81895238Y-40833333D01*
X81942857Y-40928571D01*
X81942857Y-41023809D01*
X81466666Y-41119047D01*
X82800000Y-41452380D02*
X82800000Y-40452380D01*
X82800000Y-41404761D02*
X82704761Y-41452380D01*
X82514285Y-41452380D01*
X82419047Y-41404761D01*
X82371428Y-41357142D01*
X82323809Y-41261904D01*
X82323809Y-40976190D01*
X82371428Y-40880952D01*
X82419047Y-40833333D01*
X82514285Y-40785714D01*
X82704761Y-40785714D01*
X82800000Y-40833333D01*
X54790476Y-41504761D02*
X54933333Y-41552380D01*
X55171428Y-41552380D01*
X55266666Y-41504761D01*
X55314285Y-41457142D01*
X55361904Y-41361904D01*
X55361904Y-41266666D01*
X55314285Y-41171428D01*
X55266666Y-41123809D01*
X55171428Y-41076190D01*
X54980952Y-41028571D01*
X54885714Y-40980952D01*
X54838095Y-40933333D01*
X54790476Y-40838095D01*
X54790476Y-40742857D01*
X54838095Y-40647619D01*
X54885714Y-40600000D01*
X54980952Y-40552380D01*
X55219047Y-40552380D01*
X55361904Y-40600000D01*
X55790476Y-41552380D02*
X55790476Y-40885714D01*
X55790476Y-40552380D02*
X55742857Y-40600000D01*
X55790476Y-40647619D01*
X55838095Y-40600000D01*
X55790476Y-40552380D01*
X55790476Y-40647619D01*
X56695238Y-41552380D02*
X56695238Y-40552380D01*
X56695238Y-41504761D02*
X56600000Y-41552380D01*
X56409523Y-41552380D01*
X56314285Y-41504761D01*
X56266666Y-41457142D01*
X56219047Y-41361904D01*
X56219047Y-41076190D01*
X56266666Y-40980952D01*
X56314285Y-40933333D01*
X56409523Y-40885714D01*
X56600000Y-40885714D01*
X56695238Y-40933333D01*
X57552380Y-41504761D02*
X57457142Y-41552380D01*
X57266666Y-41552380D01*
X57171428Y-41504761D01*
X57123809Y-41409523D01*
X57123809Y-41028571D01*
X57171428Y-40933333D01*
X57266666Y-40885714D01*
X57457142Y-40885714D01*
X57552380Y-40933333D01*
X57600000Y-41028571D01*
X57600000Y-41123809D01*
X57123809Y-41219047D01*
X57885714Y-40885714D02*
X58266666Y-40885714D01*
X58028571Y-40552380D02*
X58028571Y-41409523D01*
X58076190Y-41504761D01*
X58171428Y-41552380D01*
X58266666Y-41552380D01*
X58742857Y-41552380D02*
X58647619Y-41504761D01*
X58600000Y-41457142D01*
X58552380Y-41361904D01*
X58552380Y-41076190D01*
X58600000Y-40980952D01*
X58647619Y-40933333D01*
X58742857Y-40885714D01*
X58885714Y-40885714D01*
X58980952Y-40933333D01*
X59028571Y-40980952D01*
X59076190Y-41076190D01*
X59076190Y-41361904D01*
X59028571Y-41457142D01*
X58980952Y-41504761D01*
X58885714Y-41552380D01*
X58742857Y-41552380D01*
X59504761Y-40885714D02*
X59504761Y-41552380D01*
X59504761Y-40980952D02*
X59552380Y-40933333D01*
X59647619Y-40885714D01*
X59790476Y-40885714D01*
X59885714Y-40933333D01*
X59933333Y-41028571D01*
X59933333Y-41552380D01*
X60790476Y-41504761D02*
X60695238Y-41552380D01*
X60504761Y-41552380D01*
X60409523Y-41504761D01*
X60361904Y-41409523D01*
X60361904Y-41028571D01*
X60409523Y-40933333D01*
X60504761Y-40885714D01*
X60695238Y-40885714D01*
X60790476Y-40933333D01*
X60838095Y-41028571D01*
X60838095Y-41123809D01*
X60361904Y-41219047D01*
X62028571Y-41552380D02*
X62028571Y-40552380D01*
X62409523Y-40552380D01*
X62504761Y-40600000D01*
X62552380Y-40647619D01*
X62600000Y-40742857D01*
X62600000Y-40885714D01*
X62552380Y-40980952D01*
X62504761Y-41028571D01*
X62409523Y-41076190D01*
X62028571Y-41076190D01*
X63028571Y-41552380D02*
X63028571Y-40885714D01*
X63028571Y-40552380D02*
X62980952Y-40600000D01*
X63028571Y-40647619D01*
X63076190Y-40600000D01*
X63028571Y-40552380D01*
X63028571Y-40647619D01*
X63361904Y-40885714D02*
X63742857Y-40885714D01*
X63504761Y-40552380D02*
X63504761Y-41409523D01*
X63552380Y-41504761D01*
X63647619Y-41552380D01*
X63742857Y-41552380D01*
X64504761Y-41504761D02*
X64409523Y-41552380D01*
X64219047Y-41552380D01*
X64123809Y-41504761D01*
X64076190Y-41457142D01*
X64028571Y-41361904D01*
X64028571Y-41076190D01*
X64076190Y-40980952D01*
X64123809Y-40933333D01*
X64219047Y-40885714D01*
X64409523Y-40885714D01*
X64504761Y-40933333D01*
X64933333Y-41552380D02*
X64933333Y-40552380D01*
X65361904Y-41552380D02*
X65361904Y-41028571D01*
X65314285Y-40933333D01*
X65219047Y-40885714D01*
X65076190Y-40885714D01*
X64980952Y-40933333D01*
X64933333Y-40980952D01*
X34004761Y-41704761D02*
X34147619Y-41752380D01*
X34385714Y-41752380D01*
X34480952Y-41704761D01*
X34528571Y-41657142D01*
X34576190Y-41561904D01*
X34576190Y-41466666D01*
X34528571Y-41371428D01*
X34480952Y-41323809D01*
X34385714Y-41276190D01*
X34195238Y-41228571D01*
X34100000Y-41180952D01*
X34052380Y-41133333D01*
X34004761Y-41038095D01*
X34004761Y-40942857D01*
X34052380Y-40847619D01*
X34100000Y-40800000D01*
X34195238Y-40752380D01*
X34433333Y-40752380D01*
X34576190Y-40800000D01*
X35004761Y-41752380D02*
X35004761Y-41085714D01*
X35004761Y-40752380D02*
X34957142Y-40800000D01*
X35004761Y-40847619D01*
X35052380Y-40800000D01*
X35004761Y-40752380D01*
X35004761Y-40847619D01*
X35909523Y-41752380D02*
X35909523Y-40752380D01*
X35909523Y-41704761D02*
X35814285Y-41752380D01*
X35623809Y-41752380D01*
X35528571Y-41704761D01*
X35480952Y-41657142D01*
X35433333Y-41561904D01*
X35433333Y-41276190D01*
X35480952Y-41180952D01*
X35528571Y-41133333D01*
X35623809Y-41085714D01*
X35814285Y-41085714D01*
X35909523Y-41133333D01*
X36766666Y-41704761D02*
X36671428Y-41752380D01*
X36480952Y-41752380D01*
X36385714Y-41704761D01*
X36338095Y-41609523D01*
X36338095Y-41228571D01*
X36385714Y-41133333D01*
X36480952Y-41085714D01*
X36671428Y-41085714D01*
X36766666Y-41133333D01*
X36814285Y-41228571D01*
X36814285Y-41323809D01*
X36338095Y-41419047D01*
X37100000Y-41085714D02*
X37480952Y-41085714D01*
X37242857Y-40752380D02*
X37242857Y-41609523D01*
X37290476Y-41704761D01*
X37385714Y-41752380D01*
X37480952Y-41752380D01*
X37957142Y-41752380D02*
X37861904Y-41704761D01*
X37814285Y-41657142D01*
X37766666Y-41561904D01*
X37766666Y-41276190D01*
X37814285Y-41180952D01*
X37861904Y-41133333D01*
X37957142Y-41085714D01*
X38100000Y-41085714D01*
X38195238Y-41133333D01*
X38242857Y-41180952D01*
X38290476Y-41276190D01*
X38290476Y-41561904D01*
X38242857Y-41657142D01*
X38195238Y-41704761D01*
X38100000Y-41752380D01*
X37957142Y-41752380D01*
X38719047Y-41085714D02*
X38719047Y-41752380D01*
X38719047Y-41180952D02*
X38766666Y-41133333D01*
X38861904Y-41085714D01*
X39004761Y-41085714D01*
X39100000Y-41133333D01*
X39147619Y-41228571D01*
X39147619Y-41752380D01*
X40004761Y-41704761D02*
X39909523Y-41752380D01*
X39719047Y-41752380D01*
X39623809Y-41704761D01*
X39576190Y-41609523D01*
X39576190Y-41228571D01*
X39623809Y-41133333D01*
X39719047Y-41085714D01*
X39909523Y-41085714D01*
X40004761Y-41133333D01*
X40052380Y-41228571D01*
X40052380Y-41323809D01*
X39576190Y-41419047D01*
X41100000Y-40752380D02*
X41433333Y-41752380D01*
X41766666Y-40752380D01*
X42242857Y-41752380D02*
X42147619Y-41704761D01*
X42100000Y-41657142D01*
X42052380Y-41561904D01*
X42052380Y-41276190D01*
X42100000Y-41180952D01*
X42147619Y-41133333D01*
X42242857Y-41085714D01*
X42385714Y-41085714D01*
X42480952Y-41133333D01*
X42528571Y-41180952D01*
X42576190Y-41276190D01*
X42576190Y-41561904D01*
X42528571Y-41657142D01*
X42480952Y-41704761D01*
X42385714Y-41752380D01*
X42242857Y-41752380D01*
X43147619Y-41752380D02*
X43052380Y-41704761D01*
X43004761Y-41609523D01*
X43004761Y-40752380D01*
X43957142Y-41085714D02*
X43957142Y-41752380D01*
X43528571Y-41085714D02*
X43528571Y-41609523D01*
X43576190Y-41704761D01*
X43671428Y-41752380D01*
X43814285Y-41752380D01*
X43909523Y-41704761D01*
X43957142Y-41657142D01*
X44433333Y-41752380D02*
X44433333Y-41085714D01*
X44433333Y-41180952D02*
X44480952Y-41133333D01*
X44576190Y-41085714D01*
X44719047Y-41085714D01*
X44814285Y-41133333D01*
X44861904Y-41228571D01*
X44861904Y-41752380D01*
X44861904Y-41228571D02*
X44909523Y-41133333D01*
X45004761Y-41085714D01*
X45147619Y-41085714D01*
X45242857Y-41133333D01*
X45290476Y-41228571D01*
X45290476Y-41752380D01*
X46147619Y-41704761D02*
X46052380Y-41752380D01*
X45861904Y-41752380D01*
X45766666Y-41704761D01*
X45719047Y-41609523D01*
X45719047Y-41228571D01*
X45766666Y-41133333D01*
X45861904Y-41085714D01*
X46052380Y-41085714D01*
X46147619Y-41133333D01*
X46195238Y-41228571D01*
X46195238Y-41323809D01*
X45719047Y-41419047D01*
X16704761Y-40652380D02*
X17038095Y-41652380D01*
X17371428Y-40652380D01*
X17847619Y-41652380D02*
X17752380Y-41604761D01*
X17704761Y-41557142D01*
X17657142Y-41461904D01*
X17657142Y-41176190D01*
X17704761Y-41080952D01*
X17752380Y-41033333D01*
X17847619Y-40985714D01*
X17990476Y-40985714D01*
X18085714Y-41033333D01*
X18133333Y-41080952D01*
X18180952Y-41176190D01*
X18180952Y-41461904D01*
X18133333Y-41557142D01*
X18085714Y-41604761D01*
X17990476Y-41652380D01*
X17847619Y-41652380D01*
X18752380Y-41652380D02*
X18657142Y-41604761D01*
X18609523Y-41509523D01*
X18609523Y-40652380D01*
X19561904Y-40985714D02*
X19561904Y-41652380D01*
X19133333Y-40985714D02*
X19133333Y-41509523D01*
X19180952Y-41604761D01*
X19276190Y-41652380D01*
X19419047Y-41652380D01*
X19514285Y-41604761D01*
X19561904Y-41557142D01*
X20038095Y-41652380D02*
X20038095Y-40985714D01*
X20038095Y-41080952D02*
X20085714Y-41033333D01*
X20180952Y-40985714D01*
X20323809Y-40985714D01*
X20419047Y-41033333D01*
X20466666Y-41128571D01*
X20466666Y-41652380D01*
X20466666Y-41128571D02*
X20514285Y-41033333D01*
X20609523Y-40985714D01*
X20752380Y-40985714D01*
X20847619Y-41033333D01*
X20895238Y-41128571D01*
X20895238Y-41652380D01*
X21752380Y-41604761D02*
X21657142Y-41652380D01*
X21466666Y-41652380D01*
X21371428Y-41604761D01*
X21323809Y-41509523D01*
X21323809Y-41128571D01*
X21371428Y-41033333D01*
X21466666Y-40985714D01*
X21657142Y-40985714D01*
X21752380Y-41033333D01*
X21800000Y-41128571D01*
X21800000Y-41223809D01*
X21323809Y-41319047D01*
X43347619Y-34252380D02*
X43014285Y-33776190D01*
X42776190Y-34252380D02*
X42776190Y-33252380D01*
X43157142Y-33252380D01*
X43252380Y-33300000D01*
X43300000Y-33347619D01*
X43347619Y-33442857D01*
X43347619Y-33585714D01*
X43300000Y-33680952D01*
X43252380Y-33728571D01*
X43157142Y-33776190D01*
X42776190Y-33776190D01*
X43776190Y-34252380D02*
X43776190Y-33252380D01*
X44252380Y-34252380D02*
X44252380Y-33252380D01*
X44823809Y-34252380D01*
X44823809Y-33252380D01*
X19147619Y-39552380D02*
X18671428Y-39552380D01*
X18671428Y-38552380D01*
X19480952Y-39552380D02*
X19480952Y-38552380D01*
X19957142Y-39552380D02*
X19957142Y-38552380D01*
X20528571Y-39552380D01*
X20528571Y-38552380D01*
X33633333Y-8452380D02*
X33300000Y-7976190D01*
X33061904Y-8452380D02*
X33061904Y-7452380D01*
X33442857Y-7452380D01*
X33538095Y-7500000D01*
X33585714Y-7547619D01*
X33633333Y-7642857D01*
X33633333Y-7785714D01*
X33585714Y-7880952D01*
X33538095Y-7928571D01*
X33442857Y-7976190D01*
X33061904Y-7976190D01*
X34014285Y-8404761D02*
X34157142Y-8452380D01*
X34395238Y-8452380D01*
X34490476Y-8404761D01*
X34538095Y-8357142D01*
X34585714Y-8261904D01*
X34585714Y-8166666D01*
X34538095Y-8071428D01*
X34490476Y-8023809D01*
X34395238Y-7976190D01*
X34204761Y-7928571D01*
X34109523Y-7880952D01*
X34061904Y-7833333D01*
X34014285Y-7738095D01*
X34014285Y-7642857D01*
X34061904Y-7547619D01*
X34109523Y-7500000D01*
X34204761Y-7452380D01*
X34442857Y-7452380D01*
X34585714Y-7500000D01*
X35014285Y-8452380D02*
X35014285Y-7452380D01*
X35395238Y-7452380D01*
X35490476Y-7500000D01*
X35538095Y-7547619D01*
X35585714Y-7642857D01*
X35585714Y-7785714D01*
X35538095Y-7880952D01*
X35490476Y-7928571D01*
X35395238Y-7976190D01*
X35014285Y-7976190D01*
X36014285Y-8452380D02*
X36014285Y-7452380D01*
X36585714Y-8452380D02*
X36157142Y-7880952D01*
X36585714Y-7452380D02*
X36014285Y-8023809D01*
X37585714Y-8452380D02*
X37252380Y-7976190D01*
X37014285Y-8452380D02*
X37014285Y-7452380D01*
X37395238Y-7452380D01*
X37490476Y-7500000D01*
X37538095Y-7547619D01*
X37585714Y-7642857D01*
X37585714Y-7785714D01*
X37538095Y-7880952D01*
X37490476Y-7928571D01*
X37395238Y-7976190D01*
X37014285Y-7976190D01*
X10933333Y-8452380D02*
X10457142Y-8452380D01*
X10457142Y-7452380D01*
X11219047Y-8404761D02*
X11361904Y-8452380D01*
X11600000Y-8452380D01*
X11695238Y-8404761D01*
X11742857Y-8357142D01*
X11790476Y-8261904D01*
X11790476Y-8166666D01*
X11742857Y-8071428D01*
X11695238Y-8023809D01*
X11600000Y-7976190D01*
X11409523Y-7928571D01*
X11314285Y-7880952D01*
X11266666Y-7833333D01*
X11219047Y-7738095D01*
X11219047Y-7642857D01*
X11266666Y-7547619D01*
X11314285Y-7500000D01*
X11409523Y-7452380D01*
X11647619Y-7452380D01*
X11790476Y-7500000D01*
X12219047Y-8452380D02*
X12219047Y-7452380D01*
X12600000Y-7452380D01*
X12695238Y-7500000D01*
X12742857Y-7547619D01*
X12790476Y-7642857D01*
X12790476Y-7785714D01*
X12742857Y-7880952D01*
X12695238Y-7928571D01*
X12600000Y-7976190D01*
X12219047Y-7976190D01*
X13219047Y-8452380D02*
X13219047Y-7452380D01*
X13790476Y-8452380D02*
X13361904Y-7880952D01*
X13790476Y-7452380D02*
X13219047Y-8023809D01*
X14790476Y-8452380D02*
X14457142Y-7976190D01*
X14219047Y-8452380D02*
X14219047Y-7452380D01*
X14600000Y-7452380D01*
X14695238Y-7500000D01*
X14742857Y-7547619D01*
X14790476Y-7642857D01*
X14790476Y-7785714D01*
X14742857Y-7880952D01*
X14695238Y-7928571D01*
X14600000Y-7976190D01*
X14219047Y-7976190D01*
X1700000Y-26152380D02*
X1700000Y-25152380D01*
X2033333Y-25866666D01*
X2366666Y-25152380D01*
X2366666Y-26152380D01*
X2842857Y-26152380D02*
X2842857Y-25485714D01*
X2842857Y-25152380D02*
X2795238Y-25200000D01*
X2842857Y-25247619D01*
X2890476Y-25200000D01*
X2842857Y-25152380D01*
X2842857Y-25247619D01*
X3747619Y-26104761D02*
X3652380Y-26152380D01*
X3461904Y-26152380D01*
X3366666Y-26104761D01*
X3319047Y-26057142D01*
X3271428Y-25961904D01*
X3271428Y-25676190D01*
X3319047Y-25580952D01*
X3366666Y-25533333D01*
X3461904Y-25485714D01*
X3652380Y-25485714D01*
X3747619Y-25533333D01*
X4176190Y-26152380D02*
X4176190Y-25485714D01*
X4176190Y-25676190D02*
X4223809Y-25580952D01*
X4271428Y-25533333D01*
X4366666Y-25485714D01*
X4461904Y-25485714D01*
X4938095Y-26152380D02*
X4842857Y-26104761D01*
X4795238Y-26057142D01*
X4747619Y-25961904D01*
X4747619Y-25676190D01*
X4795238Y-25580952D01*
X4842857Y-25533333D01*
X4938095Y-25485714D01*
X5080952Y-25485714D01*
X5176190Y-25533333D01*
X5223809Y-25580952D01*
X5271428Y-25676190D01*
X5271428Y-25961904D01*
X5223809Y-26057142D01*
X5176190Y-26104761D01*
X5080952Y-26152380D01*
X4938095Y-26152380D01*
X5700000Y-25485714D02*
X5700000Y-26485714D01*
X5700000Y-25533333D02*
X5795238Y-25485714D01*
X5985714Y-25485714D01*
X6080952Y-25533333D01*
X6128571Y-25580952D01*
X6176190Y-25676190D01*
X6176190Y-25961904D01*
X6128571Y-26057142D01*
X6080952Y-26104761D01*
X5985714Y-26152380D01*
X5795238Y-26152380D01*
X5700000Y-26104761D01*
X6604761Y-26152380D02*
X6604761Y-25152380D01*
X7033333Y-26152380D02*
X7033333Y-25628571D01*
X6985714Y-25533333D01*
X6890476Y-25485714D01*
X6747619Y-25485714D01*
X6652380Y-25533333D01*
X6604761Y-25580952D01*
X7652380Y-26152380D02*
X7557142Y-26104761D01*
X7509523Y-26057142D01*
X7461904Y-25961904D01*
X7461904Y-25676190D01*
X7509523Y-25580952D01*
X7557142Y-25533333D01*
X7652380Y-25485714D01*
X7795238Y-25485714D01*
X7890476Y-25533333D01*
X7938095Y-25580952D01*
X7985714Y-25676190D01*
X7985714Y-25961904D01*
X7938095Y-26057142D01*
X7890476Y-26104761D01*
X7795238Y-26152380D01*
X7652380Y-26152380D01*
X8414285Y-25485714D02*
X8414285Y-26152380D01*
X8414285Y-25580952D02*
X8461904Y-25533333D01*
X8557142Y-25485714D01*
X8700000Y-25485714D01*
X8795238Y-25533333D01*
X8842857Y-25628571D01*
X8842857Y-26152380D01*
X9700000Y-26104761D02*
X9604761Y-26152380D01*
X9414285Y-26152380D01*
X9319047Y-26104761D01*
X9271428Y-26009523D01*
X9271428Y-25628571D01*
X9319047Y-25533333D01*
X9414285Y-25485714D01*
X9604761Y-25485714D01*
X9700000Y-25533333D01*
X9747619Y-25628571D01*
X9747619Y-25723809D01*
X9271428Y-25819047D01*
X1638095Y-10652380D02*
X1638095Y-9652380D01*
X1638095Y-10128571D02*
X2209523Y-10128571D01*
X2209523Y-10652380D02*
X2209523Y-9652380D01*
X3066666Y-10604761D02*
X2971428Y-10652380D01*
X2780952Y-10652380D01*
X2685714Y-10604761D01*
X2638095Y-10509523D01*
X2638095Y-10128571D01*
X2685714Y-10033333D01*
X2780952Y-9985714D01*
X2971428Y-9985714D01*
X3066666Y-10033333D01*
X3114285Y-10128571D01*
X3114285Y-10223809D01*
X2638095Y-10319047D01*
X3971428Y-10652380D02*
X3971428Y-10128571D01*
X3923809Y-10033333D01*
X3828571Y-9985714D01*
X3638095Y-9985714D01*
X3542857Y-10033333D01*
X3971428Y-10604761D02*
X3876190Y-10652380D01*
X3638095Y-10652380D01*
X3542857Y-10604761D01*
X3495238Y-10509523D01*
X3495238Y-10414285D01*
X3542857Y-10319047D01*
X3638095Y-10271428D01*
X3876190Y-10271428D01*
X3971428Y-10223809D01*
X4876190Y-10652380D02*
X4876190Y-9652380D01*
X4876190Y-10604761D02*
X4780952Y-10652380D01*
X4590476Y-10652380D01*
X4495238Y-10604761D01*
X4447619Y-10557142D01*
X4400000Y-10461904D01*
X4400000Y-10176190D01*
X4447619Y-10080952D01*
X4495238Y-10033333D01*
X4590476Y-9985714D01*
X4780952Y-9985714D01*
X4876190Y-10033333D01*
X5352380Y-9985714D02*
X5352380Y-10985714D01*
X5352380Y-10033333D02*
X5447619Y-9985714D01*
X5638095Y-9985714D01*
X5733333Y-10033333D01*
X5780952Y-10080952D01*
X5828571Y-10176190D01*
X5828571Y-10461904D01*
X5780952Y-10557142D01*
X5733333Y-10604761D01*
X5638095Y-10652380D01*
X5447619Y-10652380D01*
X5352380Y-10604761D01*
X6257142Y-10652380D02*
X6257142Y-9652380D01*
X6685714Y-10652380D02*
X6685714Y-10128571D01*
X6638095Y-10033333D01*
X6542857Y-9985714D01*
X6400000Y-9985714D01*
X6304761Y-10033333D01*
X6257142Y-10080952D01*
X7304761Y-10652380D02*
X7209523Y-10604761D01*
X7161904Y-10557142D01*
X7114285Y-10461904D01*
X7114285Y-10176190D01*
X7161904Y-10080952D01*
X7209523Y-10033333D01*
X7304761Y-9985714D01*
X7447619Y-9985714D01*
X7542857Y-10033333D01*
X7590476Y-10080952D01*
X7638095Y-10176190D01*
X7638095Y-10461904D01*
X7590476Y-10557142D01*
X7542857Y-10604761D01*
X7447619Y-10652380D01*
X7304761Y-10652380D01*
X8066666Y-9985714D02*
X8066666Y-10652380D01*
X8066666Y-10080952D02*
X8114285Y-10033333D01*
X8209523Y-9985714D01*
X8352380Y-9985714D01*
X8447619Y-10033333D01*
X8495238Y-10128571D01*
X8495238Y-10652380D01*
X9352380Y-10604761D02*
X9257142Y-10652380D01*
X9066666Y-10652380D01*
X8971428Y-10604761D01*
X8923809Y-10509523D01*
X8923809Y-10128571D01*
X8971428Y-10033333D01*
X9066666Y-9985714D01*
X9257142Y-9985714D01*
X9352380Y-10033333D01*
X9400000Y-10128571D01*
X9400000Y-10223809D01*
X8923809Y-10319047D01*
X9780952Y-10604761D02*
X9876190Y-10652380D01*
X10066666Y-10652380D01*
X10161904Y-10604761D01*
X10209523Y-10509523D01*
X10209523Y-10461904D01*
X10161904Y-10366666D01*
X10066666Y-10319047D01*
X9923809Y-10319047D01*
X9828571Y-10271428D01*
X9780952Y-10176190D01*
X9780952Y-10128571D01*
X9828571Y-10033333D01*
X9923809Y-9985714D01*
X10066666Y-9985714D01*
X10161904Y-10033333D01*
X17007023Y-2632142D02*
X16959404Y-2679761D01*
X16816547Y-2727380D01*
X16721309Y-2727380D01*
X16578452Y-2679761D01*
X16483214Y-2584523D01*
X16435595Y-2489285D01*
X16387976Y-2298809D01*
X16387976Y-2155952D01*
X16435595Y-1965476D01*
X16483214Y-1870238D01*
X16578452Y-1775000D01*
X16721309Y-1727380D01*
X16816547Y-1727380D01*
X16959404Y-1775000D01*
X17007023Y-1822619D01*
X17340357Y-1727380D02*
X17578452Y-2727380D01*
X17768928Y-2013095D01*
X17959404Y-2727380D01*
X18197500Y-1727380D01*
X19340357Y-2727380D02*
X19340357Y-1727380D01*
X19911785Y-2727380D02*
X19483214Y-2155952D01*
X19911785Y-1727380D02*
X19340357Y-2298809D01*
X20721309Y-2679761D02*
X20626071Y-2727380D01*
X20435595Y-2727380D01*
X20340357Y-2679761D01*
X20292738Y-2584523D01*
X20292738Y-2203571D01*
X20340357Y-2108333D01*
X20435595Y-2060714D01*
X20626071Y-2060714D01*
X20721309Y-2108333D01*
X20768928Y-2203571D01*
X20768928Y-2298809D01*
X20292738Y-2394047D01*
X21102261Y-2060714D02*
X21340357Y-2727380D01*
X21578452Y-2060714D02*
X21340357Y-2727380D01*
X21245119Y-2965476D01*
X21197500Y-3013095D01*
X21102261Y-3060714D01*
X22340357Y-2679761D02*
X22245119Y-2727380D01*
X22054642Y-2727380D01*
X21959404Y-2679761D01*
X21911785Y-2584523D01*
X21911785Y-2203571D01*
X21959404Y-2108333D01*
X22054642Y-2060714D01*
X22245119Y-2060714D01*
X22340357Y-2108333D01*
X22387976Y-2203571D01*
X22387976Y-2298809D01*
X21911785Y-2394047D01*
X22816547Y-2727380D02*
X22816547Y-2060714D01*
X22816547Y-2251190D02*
X22864166Y-2155952D01*
X22911785Y-2108333D01*
X23007023Y-2060714D01*
X23102261Y-2060714D01*
X24149880Y-2679761D02*
X24292738Y-2727380D01*
X24530833Y-2727380D01*
X24626071Y-2679761D01*
X24673690Y-2632142D01*
X24721309Y-2536904D01*
X24721309Y-2441666D01*
X24673690Y-2346428D01*
X24626071Y-2298809D01*
X24530833Y-2251190D01*
X24340357Y-2203571D01*
X24245119Y-2155952D01*
X24197500Y-2108333D01*
X24149880Y-2013095D01*
X24149880Y-1917857D01*
X24197500Y-1822619D01*
X24245119Y-1775000D01*
X24340357Y-1727380D01*
X24578452Y-1727380D01*
X24721309Y-1775000D01*
X25149880Y-2727380D02*
X25149880Y-1727380D01*
X25578452Y-2727380D02*
X25578452Y-2203571D01*
X25530833Y-2108333D01*
X25435595Y-2060714D01*
X25292738Y-2060714D01*
X25197500Y-2108333D01*
X25149880Y-2155952D01*
X26054642Y-2727380D02*
X26054642Y-2060714D01*
X26054642Y-1727380D02*
X26007023Y-1775000D01*
X26054642Y-1822619D01*
X26102261Y-1775000D01*
X26054642Y-1727380D01*
X26054642Y-1822619D01*
X26911785Y-2679761D02*
X26816547Y-2727380D01*
X26626071Y-2727380D01*
X26530833Y-2679761D01*
X26483214Y-2584523D01*
X26483214Y-2203571D01*
X26530833Y-2108333D01*
X26626071Y-2060714D01*
X26816547Y-2060714D01*
X26911785Y-2108333D01*
X26959404Y-2203571D01*
X26959404Y-2298809D01*
X26483214Y-2394047D01*
X27530833Y-2727380D02*
X27435595Y-2679761D01*
X27387976Y-2584523D01*
X27387976Y-1727380D01*
X28340357Y-2727380D02*
X28340357Y-1727380D01*
X28340357Y-2679761D02*
X28245119Y-2727380D01*
X28054642Y-2727380D01*
X27959404Y-2679761D01*
X27911785Y-2632142D01*
X27864166Y-2536904D01*
X27864166Y-2251190D01*
X27911785Y-2155952D01*
X27959404Y-2108333D01*
X28054642Y-2060714D01*
X28245119Y-2060714D01*
X28340357Y-2108333D01*
X29768928Y-1727380D02*
X29864166Y-1727380D01*
X29959404Y-1775000D01*
X30007023Y-1822619D01*
X30054642Y-1917857D01*
X30102261Y-2108333D01*
X30102261Y-2346428D01*
X30054642Y-2536904D01*
X30007023Y-2632142D01*
X29959404Y-2679761D01*
X29864166Y-2727380D01*
X29768928Y-2727380D01*
X29673690Y-2679761D01*
X29626071Y-2632142D01*
X29578452Y-2536904D01*
X29530833Y-2346428D01*
X29530833Y-2108333D01*
X29578452Y-1917857D01*
X29626071Y-1822619D01*
X29673690Y-1775000D01*
X29768928Y-1727380D01*
X30530833Y-2632142D02*
X30578452Y-2679761D01*
X30530833Y-2727380D01*
X30483214Y-2679761D01*
X30530833Y-2632142D01*
X30530833Y-2727380D01*
X31054642Y-2727380D02*
X31245119Y-2727380D01*
X31340357Y-2679761D01*
X31387976Y-2632142D01*
X31483214Y-2489285D01*
X31530833Y-2298809D01*
X31530833Y-1917857D01*
X31483214Y-1822619D01*
X31435595Y-1775000D01*
X31340357Y-1727380D01*
X31149880Y-1727380D01*
X31054642Y-1775000D01*
X31007023Y-1822619D01*
X30959404Y-1917857D01*
X30959404Y-2155952D01*
X31007023Y-2251190D01*
X31054642Y-2298809D01*
X31149880Y-2346428D01*
X31340357Y-2346428D01*
X31435595Y-2298809D01*
X31483214Y-2251190D01*
X31530833Y-2155952D01*
X17245119Y-3615476D02*
X17149880Y-3567857D01*
X16959404Y-3567857D01*
X16864166Y-3615476D01*
X16768928Y-3710714D01*
X16721309Y-3805952D01*
X16721309Y-3996428D01*
X16768928Y-4091666D01*
X16864166Y-4186904D01*
X16959404Y-4234523D01*
X17149880Y-4234523D01*
X17245119Y-4186904D01*
X17054642Y-3234523D02*
X16816547Y-3282142D01*
X16578452Y-3425000D01*
X16435595Y-3663095D01*
X16387976Y-3901190D01*
X16435595Y-4139285D01*
X16578452Y-4377380D01*
X16816547Y-4520238D01*
X17054642Y-4567857D01*
X17292738Y-4520238D01*
X17530833Y-4377380D01*
X17673690Y-4139285D01*
X17721309Y-3901190D01*
X17673690Y-3663095D01*
X17530833Y-3425000D01*
X17292738Y-3282142D01*
X17054642Y-3234523D01*
X18864166Y-3472619D02*
X18911785Y-3425000D01*
X19007023Y-3377380D01*
X19245119Y-3377380D01*
X19340357Y-3425000D01*
X19387976Y-3472619D01*
X19435595Y-3567857D01*
X19435595Y-3663095D01*
X19387976Y-3805952D01*
X18816547Y-4377380D01*
X19435595Y-4377380D01*
X20054642Y-3377380D02*
X20149880Y-3377380D01*
X20245119Y-3425000D01*
X20292738Y-3472619D01*
X20340357Y-3567857D01*
X20387976Y-3758333D01*
X20387976Y-3996428D01*
X20340357Y-4186904D01*
X20292738Y-4282142D01*
X20245119Y-4329761D01*
X20149880Y-4377380D01*
X20054642Y-4377380D01*
X19959404Y-4329761D01*
X19911785Y-4282142D01*
X19864166Y-4186904D01*
X19816547Y-3996428D01*
X19816547Y-3758333D01*
X19864166Y-3567857D01*
X19911785Y-3472619D01*
X19959404Y-3425000D01*
X20054642Y-3377380D01*
X20768928Y-3472619D02*
X20816547Y-3425000D01*
X20911785Y-3377380D01*
X21149880Y-3377380D01*
X21245119Y-3425000D01*
X21292738Y-3472619D01*
X21340357Y-3567857D01*
X21340357Y-3663095D01*
X21292738Y-3805952D01*
X20721309Y-4377380D01*
X21340357Y-4377380D01*
X22292738Y-4377380D02*
X21721309Y-4377380D01*
X22007023Y-4377380D02*
X22007023Y-3377380D01*
X21911785Y-3520238D01*
X21816547Y-3615476D01*
X21721309Y-3663095D01*
X23435595Y-4329761D02*
X23578452Y-4377380D01*
X23816547Y-4377380D01*
X23911785Y-4329761D01*
X23959404Y-4282142D01*
X24007023Y-4186904D01*
X24007023Y-4091666D01*
X23959404Y-3996428D01*
X23911785Y-3948809D01*
X23816547Y-3901190D01*
X23626071Y-3853571D01*
X23530833Y-3805952D01*
X23483214Y-3758333D01*
X23435595Y-3663095D01*
X23435595Y-3567857D01*
X23483214Y-3472619D01*
X23530833Y-3425000D01*
X23626071Y-3377380D01*
X23864166Y-3377380D01*
X24007023Y-3425000D01*
X24578452Y-4377380D02*
X24483214Y-4329761D01*
X24435595Y-4282142D01*
X24387976Y-4186904D01*
X24387976Y-3901190D01*
X24435595Y-3805952D01*
X24483214Y-3758333D01*
X24578452Y-3710714D01*
X24721309Y-3710714D01*
X24816547Y-3758333D01*
X24864166Y-3805952D01*
X24911785Y-3901190D01*
X24911785Y-4186904D01*
X24864166Y-4282142D01*
X24816547Y-4329761D01*
X24721309Y-4377380D01*
X24578452Y-4377380D01*
X25197500Y-3710714D02*
X25578452Y-3710714D01*
X25340357Y-4377380D02*
X25340357Y-3520238D01*
X25387976Y-3425000D01*
X25483214Y-3377380D01*
X25578452Y-3377380D01*
X25768928Y-3710714D02*
X26149880Y-3710714D01*
X25911785Y-3377380D02*
X25911785Y-4234523D01*
X25959404Y-4329761D01*
X26054642Y-4377380D01*
X26149880Y-4377380D01*
X26864166Y-4329761D02*
X26768928Y-4377380D01*
X26578452Y-4377380D01*
X26483214Y-4329761D01*
X26435595Y-4234523D01*
X26435595Y-3853571D01*
X26483214Y-3758333D01*
X26578452Y-3710714D01*
X26768928Y-3710714D01*
X26864166Y-3758333D01*
X26911785Y-3853571D01*
X26911785Y-3948809D01*
X26435595Y-4044047D01*
X27340357Y-4377380D02*
X27340357Y-3710714D01*
X27340357Y-3901190D02*
X27387976Y-3805952D01*
X27435595Y-3758333D01*
X27530833Y-3710714D01*
X27626071Y-3710714D01*
X27959404Y-4377380D02*
X27959404Y-3377380D01*
X27959404Y-3853571D02*
X28530833Y-3853571D01*
X28530833Y-4377380D02*
X28530833Y-3377380D01*
X29435595Y-4377380D02*
X29435595Y-3853571D01*
X29387976Y-3758333D01*
X29292738Y-3710714D01*
X29102261Y-3710714D01*
X29007023Y-3758333D01*
X29435595Y-4329761D02*
X29340357Y-4377380D01*
X29102261Y-4377380D01*
X29007023Y-4329761D01*
X28959404Y-4234523D01*
X28959404Y-4139285D01*
X29007023Y-4044047D01*
X29102261Y-3996428D01*
X29340357Y-3996428D01*
X29435595Y-3948809D01*
X29911785Y-4377380D02*
X29911785Y-3710714D01*
X29911785Y-3901190D02*
X29959404Y-3805952D01*
X30007023Y-3758333D01*
X30102261Y-3710714D01*
X30197500Y-3710714D01*
X30959404Y-4377380D02*
X30959404Y-3377380D01*
X30959404Y-4329761D02*
X30864166Y-4377380D01*
X30673690Y-4377380D01*
X30578452Y-4329761D01*
X30530833Y-4282142D01*
X30483214Y-4186904D01*
X30483214Y-3901190D01*
X30530833Y-3805952D01*
X30578452Y-3758333D01*
X30673690Y-3710714D01*
X30864166Y-3710714D01*
X30959404Y-3758333D01*
X31340357Y-3710714D02*
X31530833Y-4377380D01*
X31721309Y-3901190D01*
X31911785Y-4377380D01*
X32102261Y-3710714D01*
X32911785Y-4377380D02*
X32911785Y-3853571D01*
X32864166Y-3758333D01*
X32768928Y-3710714D01*
X32578452Y-3710714D01*
X32483214Y-3758333D01*
X32911785Y-4329761D02*
X32816547Y-4377380D01*
X32578452Y-4377380D01*
X32483214Y-4329761D01*
X32435595Y-4234523D01*
X32435595Y-4139285D01*
X32483214Y-4044047D01*
X32578452Y-3996428D01*
X32816547Y-3996428D01*
X32911785Y-3948809D01*
X33387976Y-4377380D02*
X33387976Y-3710714D01*
X33387976Y-3901190D02*
X33435595Y-3805952D01*
X33483214Y-3758333D01*
X33578452Y-3710714D01*
X33673690Y-3710714D01*
X34387976Y-4329761D02*
X34292738Y-4377380D01*
X34102261Y-4377380D01*
X34007023Y-4329761D01*
X33959404Y-4234523D01*
X33959404Y-3853571D01*
X34007023Y-3758333D01*
X34102261Y-3710714D01*
X34292738Y-3710714D01*
X34387976Y-3758333D01*
X34435595Y-3853571D01*
X34435595Y-3948809D01*
X33959404Y-4044047D01*
D11*
%TO.C,RV2*%
X48620000Y-41880000D02*
X48620000Y-49620000D01*
X32380000Y-41880000D02*
X32380000Y-49620000D01*
X48620000Y-41880000D02*
X32380000Y-41880000D01*
X48620000Y-49620000D02*
X32380000Y-49620000D01*
X44120000Y-49620000D02*
X44120000Y-54620000D01*
X36880000Y-49620000D02*
X36880000Y-54620000D01*
X44120000Y-49620000D02*
X36880000Y-49620000D01*
X44120000Y-54620000D02*
X36880000Y-54620000D01*
X42620000Y-54620000D02*
X42620000Y-64620000D01*
X38380000Y-54620000D02*
X38380000Y-64620000D01*
X42620000Y-54620000D02*
X38380000Y-54620000D01*
X42620000Y-64620000D02*
X38380000Y-64620000D01*
D12*
%TO.C,G\u002A\u002A\u002A*%
G36*
X13895480Y-3796620D02*
G01*
X13905640Y-3791540D01*
X13928500Y-3776300D01*
X13961520Y-3755980D01*
X14002160Y-3728040D01*
X14040260Y-3702640D01*
X14073280Y-3679780D01*
X14096140Y-3664540D01*
X14106300Y-3659460D01*
X14111380Y-3662000D01*
X14129160Y-3672160D01*
X14157100Y-3684860D01*
X14172340Y-3692480D01*
X14197740Y-3705180D01*
X14210440Y-3707720D01*
X14212980Y-3702640D01*
X14223140Y-3684860D01*
X14235840Y-3651840D01*
X14256160Y-3608660D01*
X14276480Y-3557860D01*
X14299340Y-3501980D01*
X14322200Y-3446100D01*
X14345060Y-3392760D01*
X14365380Y-3344500D01*
X14380620Y-3306400D01*
X14390780Y-3278460D01*
X14395860Y-3268300D01*
X14393320Y-3265760D01*
X14380620Y-3253060D01*
X14360300Y-3237820D01*
X14312040Y-3197180D01*
X14266320Y-3138760D01*
X14235840Y-3072720D01*
X14228220Y-2999060D01*
X14235840Y-2933020D01*
X14261240Y-2869520D01*
X14306960Y-2808560D01*
X14362840Y-2765380D01*
X14428880Y-2737440D01*
X14500000Y-2729820D01*
X14568580Y-2737440D01*
X14634620Y-2762840D01*
X14695580Y-2808560D01*
X14718440Y-2836500D01*
X14754000Y-2897460D01*
X14774320Y-2958420D01*
X14774320Y-2973660D01*
X14771780Y-3044780D01*
X14751460Y-3113360D01*
X14715900Y-3171780D01*
X14662560Y-3222580D01*
X14657480Y-3227660D01*
X14632080Y-3245440D01*
X14616840Y-3255600D01*
X14604140Y-3265760D01*
X14693040Y-3481660D01*
X14708280Y-3517220D01*
X14733680Y-3575640D01*
X14754000Y-3626440D01*
X14771780Y-3667080D01*
X14784480Y-3692480D01*
X14789560Y-3705180D01*
X14797180Y-3705180D01*
X14812420Y-3700100D01*
X14842900Y-3684860D01*
X14863220Y-3674700D01*
X14886080Y-3664540D01*
X14896240Y-3659460D01*
X14906400Y-3664540D01*
X14926720Y-3679780D01*
X14959740Y-3700100D01*
X14997840Y-3725500D01*
X15033400Y-3750900D01*
X15068960Y-3773760D01*
X15091820Y-3789000D01*
X15104520Y-3796620D01*
X15107060Y-3796620D01*
X15117220Y-3789000D01*
X15137540Y-3773760D01*
X15165480Y-3745820D01*
X15206120Y-3705180D01*
X15213740Y-3700100D01*
X15246760Y-3664540D01*
X15274700Y-3634060D01*
X15295020Y-3613740D01*
X15300100Y-3606120D01*
X15295020Y-3593420D01*
X15279780Y-3568020D01*
X15256920Y-3535000D01*
X15228980Y-3494360D01*
X15157860Y-3390220D01*
X15198500Y-3293700D01*
X15208660Y-3263220D01*
X15223900Y-3227660D01*
X15236600Y-3202260D01*
X15241680Y-3189560D01*
X15251840Y-3187020D01*
X15279780Y-3179400D01*
X15317880Y-3171780D01*
X15363600Y-3164160D01*
X15409320Y-3154000D01*
X15447420Y-3146380D01*
X15477900Y-3141300D01*
X15490600Y-3138760D01*
X15493140Y-3136220D01*
X15495680Y-3131140D01*
X15498220Y-3118440D01*
X15498220Y-3093040D01*
X15498220Y-3054940D01*
X15498220Y-2999060D01*
X15498220Y-2993980D01*
X15498220Y-2940640D01*
X15498220Y-2900000D01*
X15495680Y-2874600D01*
X15493140Y-2864440D01*
X15480440Y-2859360D01*
X15452500Y-2854280D01*
X15414400Y-2846660D01*
X15366140Y-2836500D01*
X15363600Y-2836500D01*
X15315340Y-2828880D01*
X15277240Y-2818720D01*
X15249300Y-2813640D01*
X15236600Y-2808560D01*
X15234060Y-2806020D01*
X15223900Y-2788240D01*
X15211200Y-2757760D01*
X15195960Y-2722200D01*
X15180720Y-2686640D01*
X15165480Y-2651080D01*
X15157860Y-2628220D01*
X15155320Y-2615520D01*
X15162940Y-2605360D01*
X15178180Y-2579960D01*
X15201040Y-2546940D01*
X15228980Y-2506300D01*
X15231520Y-2501220D01*
X15259460Y-2463120D01*
X15279780Y-2427560D01*
X15295020Y-2404700D01*
X15300100Y-2394540D01*
X15300100Y-2392000D01*
X15292480Y-2381840D01*
X15272160Y-2358980D01*
X15241680Y-2328500D01*
X15206120Y-2292940D01*
X15195960Y-2282780D01*
X15157860Y-2244680D01*
X15129920Y-2219280D01*
X15112140Y-2206580D01*
X15104520Y-2201500D01*
X15104520Y-2204040D01*
X15091820Y-2209120D01*
X15066420Y-2226900D01*
X15033400Y-2249760D01*
X14992760Y-2277700D01*
X14990220Y-2280240D01*
X14949580Y-2305640D01*
X14916560Y-2328500D01*
X14893700Y-2343740D01*
X14883540Y-2351360D01*
X14881000Y-2351360D01*
X14865760Y-2346280D01*
X14835280Y-2336120D01*
X14802260Y-2323420D01*
X14764160Y-2308180D01*
X14731140Y-2292940D01*
X14705740Y-2282780D01*
X14693040Y-2275160D01*
X14687960Y-2259920D01*
X14682880Y-2229440D01*
X14672720Y-2188800D01*
X14665100Y-2140540D01*
X14662560Y-2132920D01*
X14654940Y-2084660D01*
X14647320Y-2046560D01*
X14639700Y-2018620D01*
X14637160Y-2005920D01*
X14632080Y-2005920D01*
X14606680Y-2003380D01*
X14571120Y-2003380D01*
X14527940Y-2003380D01*
X14484760Y-2003380D01*
X14441580Y-2003380D01*
X14403480Y-2005920D01*
X14378080Y-2005920D01*
X14365380Y-2008460D01*
X14365380Y-2011000D01*
X14360300Y-2023700D01*
X14355220Y-2054180D01*
X14345060Y-2094820D01*
X14337440Y-2145620D01*
X14334900Y-2153240D01*
X14327280Y-2201500D01*
X14317120Y-2239600D01*
X14312040Y-2267540D01*
X14309500Y-2277700D01*
X14304420Y-2280240D01*
X14286640Y-2287860D01*
X14253620Y-2300560D01*
X14212980Y-2318340D01*
X14121540Y-2353900D01*
X14009780Y-2277700D01*
X13999620Y-2270080D01*
X13958980Y-2242140D01*
X13925960Y-2221820D01*
X13903100Y-2206580D01*
X13892940Y-2201500D01*
X13882780Y-2211660D01*
X13859920Y-2231980D01*
X13829440Y-2262460D01*
X13793880Y-2295480D01*
X13768480Y-2323420D01*
X13738000Y-2353900D01*
X13717680Y-2374220D01*
X13707520Y-2389460D01*
X13702440Y-2397080D01*
X13704980Y-2402160D01*
X13710060Y-2414860D01*
X13727840Y-2437720D01*
X13750700Y-2473280D01*
X13778640Y-2511380D01*
X13801500Y-2546940D01*
X13824360Y-2582500D01*
X13839600Y-2610440D01*
X13847220Y-2623140D01*
X13844680Y-2628220D01*
X13837060Y-2651080D01*
X13824360Y-2684100D01*
X13806580Y-2724740D01*
X13768480Y-2813640D01*
X13710060Y-2823800D01*
X13674500Y-2831420D01*
X13623700Y-2839040D01*
X13577980Y-2849200D01*
X13504320Y-2864440D01*
X13501780Y-3131140D01*
X13511940Y-3136220D01*
X13524640Y-3141300D01*
X13550040Y-3146380D01*
X13590680Y-3154000D01*
X13636400Y-3161620D01*
X13674500Y-3169240D01*
X13715140Y-3176860D01*
X13743080Y-3181940D01*
X13755780Y-3184480D01*
X13758320Y-3189560D01*
X13768480Y-3209880D01*
X13783720Y-3240360D01*
X13798960Y-3275920D01*
X13814200Y-3314020D01*
X13826900Y-3349580D01*
X13837060Y-3374980D01*
X13842140Y-3390220D01*
X13837060Y-3400380D01*
X13821820Y-3423240D01*
X13798960Y-3456260D01*
X13773560Y-3494360D01*
X13745620Y-3535000D01*
X13722760Y-3568020D01*
X13707520Y-3593420D01*
X13699900Y-3603580D01*
X13704980Y-3611200D01*
X13720220Y-3628980D01*
X13748160Y-3659460D01*
X13793880Y-3705180D01*
X13801500Y-3710260D01*
X13834520Y-3745820D01*
X13865000Y-3771220D01*
X13885320Y-3791540D01*
X13895480Y-3796620D01*
G37*
X13895480Y-3796620D02*
X13905640Y-3791540D01*
X13928500Y-3776300D01*
X13961520Y-3755980D01*
X14002160Y-3728040D01*
X14040260Y-3702640D01*
X14073280Y-3679780D01*
X14096140Y-3664540D01*
X14106300Y-3659460D01*
X14111380Y-3662000D01*
X14129160Y-3672160D01*
X14157100Y-3684860D01*
X14172340Y-3692480D01*
X14197740Y-3705180D01*
X14210440Y-3707720D01*
X14212980Y-3702640D01*
X14223140Y-3684860D01*
X14235840Y-3651840D01*
X14256160Y-3608660D01*
X14276480Y-3557860D01*
X14299340Y-3501980D01*
X14322200Y-3446100D01*
X14345060Y-3392760D01*
X14365380Y-3344500D01*
X14380620Y-3306400D01*
X14390780Y-3278460D01*
X14395860Y-3268300D01*
X14393320Y-3265760D01*
X14380620Y-3253060D01*
X14360300Y-3237820D01*
X14312040Y-3197180D01*
X14266320Y-3138760D01*
X14235840Y-3072720D01*
X14228220Y-2999060D01*
X14235840Y-2933020D01*
X14261240Y-2869520D01*
X14306960Y-2808560D01*
X14362840Y-2765380D01*
X14428880Y-2737440D01*
X14500000Y-2729820D01*
X14568580Y-2737440D01*
X14634620Y-2762840D01*
X14695580Y-2808560D01*
X14718440Y-2836500D01*
X14754000Y-2897460D01*
X14774320Y-2958420D01*
X14774320Y-2973660D01*
X14771780Y-3044780D01*
X14751460Y-3113360D01*
X14715900Y-3171780D01*
X14662560Y-3222580D01*
X14657480Y-3227660D01*
X14632080Y-3245440D01*
X14616840Y-3255600D01*
X14604140Y-3265760D01*
X14693040Y-3481660D01*
X14708280Y-3517220D01*
X14733680Y-3575640D01*
X14754000Y-3626440D01*
X14771780Y-3667080D01*
X14784480Y-3692480D01*
X14789560Y-3705180D01*
X14797180Y-3705180D01*
X14812420Y-3700100D01*
X14842900Y-3684860D01*
X14863220Y-3674700D01*
X14886080Y-3664540D01*
X14896240Y-3659460D01*
X14906400Y-3664540D01*
X14926720Y-3679780D01*
X14959740Y-3700100D01*
X14997840Y-3725500D01*
X15033400Y-3750900D01*
X15068960Y-3773760D01*
X15091820Y-3789000D01*
X15104520Y-3796620D01*
X15107060Y-3796620D01*
X15117220Y-3789000D01*
X15137540Y-3773760D01*
X15165480Y-3745820D01*
X15206120Y-3705180D01*
X15213740Y-3700100D01*
X15246760Y-3664540D01*
X15274700Y-3634060D01*
X15295020Y-3613740D01*
X15300100Y-3606120D01*
X15295020Y-3593420D01*
X15279780Y-3568020D01*
X15256920Y-3535000D01*
X15228980Y-3494360D01*
X15157860Y-3390220D01*
X15198500Y-3293700D01*
X15208660Y-3263220D01*
X15223900Y-3227660D01*
X15236600Y-3202260D01*
X15241680Y-3189560D01*
X15251840Y-3187020D01*
X15279780Y-3179400D01*
X15317880Y-3171780D01*
X15363600Y-3164160D01*
X15409320Y-3154000D01*
X15447420Y-3146380D01*
X15477900Y-3141300D01*
X15490600Y-3138760D01*
X15493140Y-3136220D01*
X15495680Y-3131140D01*
X15498220Y-3118440D01*
X15498220Y-3093040D01*
X15498220Y-3054940D01*
X15498220Y-2999060D01*
X15498220Y-2993980D01*
X15498220Y-2940640D01*
X15498220Y-2900000D01*
X15495680Y-2874600D01*
X15493140Y-2864440D01*
X15480440Y-2859360D01*
X15452500Y-2854280D01*
X15414400Y-2846660D01*
X15366140Y-2836500D01*
X15363600Y-2836500D01*
X15315340Y-2828880D01*
X15277240Y-2818720D01*
X15249300Y-2813640D01*
X15236600Y-2808560D01*
X15234060Y-2806020D01*
X15223900Y-2788240D01*
X15211200Y-2757760D01*
X15195960Y-2722200D01*
X15180720Y-2686640D01*
X15165480Y-2651080D01*
X15157860Y-2628220D01*
X15155320Y-2615520D01*
X15162940Y-2605360D01*
X15178180Y-2579960D01*
X15201040Y-2546940D01*
X15228980Y-2506300D01*
X15231520Y-2501220D01*
X15259460Y-2463120D01*
X15279780Y-2427560D01*
X15295020Y-2404700D01*
X15300100Y-2394540D01*
X15300100Y-2392000D01*
X15292480Y-2381840D01*
X15272160Y-2358980D01*
X15241680Y-2328500D01*
X15206120Y-2292940D01*
X15195960Y-2282780D01*
X15157860Y-2244680D01*
X15129920Y-2219280D01*
X15112140Y-2206580D01*
X15104520Y-2201500D01*
X15104520Y-2204040D01*
X15091820Y-2209120D01*
X15066420Y-2226900D01*
X15033400Y-2249760D01*
X14992760Y-2277700D01*
X14990220Y-2280240D01*
X14949580Y-2305640D01*
X14916560Y-2328500D01*
X14893700Y-2343740D01*
X14883540Y-2351360D01*
X14881000Y-2351360D01*
X14865760Y-2346280D01*
X14835280Y-2336120D01*
X14802260Y-2323420D01*
X14764160Y-2308180D01*
X14731140Y-2292940D01*
X14705740Y-2282780D01*
X14693040Y-2275160D01*
X14687960Y-2259920D01*
X14682880Y-2229440D01*
X14672720Y-2188800D01*
X14665100Y-2140540D01*
X14662560Y-2132920D01*
X14654940Y-2084660D01*
X14647320Y-2046560D01*
X14639700Y-2018620D01*
X14637160Y-2005920D01*
X14632080Y-2005920D01*
X14606680Y-2003380D01*
X14571120Y-2003380D01*
X14527940Y-2003380D01*
X14484760Y-2003380D01*
X14441580Y-2003380D01*
X14403480Y-2005920D01*
X14378080Y-2005920D01*
X14365380Y-2008460D01*
X14365380Y-2011000D01*
X14360300Y-2023700D01*
X14355220Y-2054180D01*
X14345060Y-2094820D01*
X14337440Y-2145620D01*
X14334900Y-2153240D01*
X14327280Y-2201500D01*
X14317120Y-2239600D01*
X14312040Y-2267540D01*
X14309500Y-2277700D01*
X14304420Y-2280240D01*
X14286640Y-2287860D01*
X14253620Y-2300560D01*
X14212980Y-2318340D01*
X14121540Y-2353900D01*
X14009780Y-2277700D01*
X13999620Y-2270080D01*
X13958980Y-2242140D01*
X13925960Y-2221820D01*
X13903100Y-2206580D01*
X13892940Y-2201500D01*
X13882780Y-2211660D01*
X13859920Y-2231980D01*
X13829440Y-2262460D01*
X13793880Y-2295480D01*
X13768480Y-2323420D01*
X13738000Y-2353900D01*
X13717680Y-2374220D01*
X13707520Y-2389460D01*
X13702440Y-2397080D01*
X13704980Y-2402160D01*
X13710060Y-2414860D01*
X13727840Y-2437720D01*
X13750700Y-2473280D01*
X13778640Y-2511380D01*
X13801500Y-2546940D01*
X13824360Y-2582500D01*
X13839600Y-2610440D01*
X13847220Y-2623140D01*
X13844680Y-2628220D01*
X13837060Y-2651080D01*
X13824360Y-2684100D01*
X13806580Y-2724740D01*
X13768480Y-2813640D01*
X13710060Y-2823800D01*
X13674500Y-2831420D01*
X13623700Y-2839040D01*
X13577980Y-2849200D01*
X13504320Y-2864440D01*
X13501780Y-3131140D01*
X13511940Y-3136220D01*
X13524640Y-3141300D01*
X13550040Y-3146380D01*
X13590680Y-3154000D01*
X13636400Y-3161620D01*
X13674500Y-3169240D01*
X13715140Y-3176860D01*
X13743080Y-3181940D01*
X13755780Y-3184480D01*
X13758320Y-3189560D01*
X13768480Y-3209880D01*
X13783720Y-3240360D01*
X13798960Y-3275920D01*
X13814200Y-3314020D01*
X13826900Y-3349580D01*
X13837060Y-3374980D01*
X13842140Y-3390220D01*
X13837060Y-3400380D01*
X13821820Y-3423240D01*
X13798960Y-3456260D01*
X13773560Y-3494360D01*
X13745620Y-3535000D01*
X13722760Y-3568020D01*
X13707520Y-3593420D01*
X13699900Y-3603580D01*
X13704980Y-3611200D01*
X13720220Y-3628980D01*
X13748160Y-3659460D01*
X13793880Y-3705180D01*
X13801500Y-3710260D01*
X13834520Y-3745820D01*
X13865000Y-3771220D01*
X13885320Y-3791540D01*
X13895480Y-3796620D01*
D10*
%TO.C,U3*%
X98680000Y-22310000D02*
X98680000Y-40090000D01*
X63120000Y-22310000D02*
X98680000Y-22310000D01*
X63120000Y-40090000D02*
X63120000Y-22310000D01*
X98680000Y-40090000D02*
X63120000Y-40090000D01*
X99950000Y-35010000D02*
X98680000Y-35010000D01*
X99950000Y-27390000D02*
X99950000Y-35010000D01*
X98680000Y-27390000D02*
X99950000Y-27390000D01*
D11*
%TO.C,C17*%
X33016233Y-10890000D02*
X33308767Y-10890000D01*
X33016233Y-11910000D02*
X33308767Y-11910000D01*
%TO.C,C1*%
X19411252Y-18810000D02*
X17988748Y-18810000D01*
X19411252Y-16990000D02*
X17988748Y-16990000D01*
%TO.C,C2*%
X35790000Y-28791233D02*
X35790000Y-29083767D01*
X36810000Y-28791233D02*
X36810000Y-29083767D01*
%TO.C,C3*%
X34190000Y-29083767D02*
X34190000Y-28791233D01*
X35210000Y-29083767D02*
X35210000Y-28791233D01*
%TO.C,C4*%
X19583767Y-28010000D02*
X19291233Y-28010000D01*
X19583767Y-26990000D02*
X19291233Y-26990000D01*
%TO.C,C5*%
X18383767Y-15290000D02*
X18091233Y-15290000D01*
X18383767Y-16310000D02*
X18091233Y-16310000D01*
%TO.C,C6*%
X22990000Y-33973752D02*
X22990000Y-32551248D01*
X24810000Y-33973752D02*
X24810000Y-32551248D01*
%TO.C,C7*%
X17926248Y-23810000D02*
X19348752Y-23810000D01*
X17926248Y-21990000D02*
X19348752Y-21990000D01*
%TO.C,C8*%
X17926248Y-24490000D02*
X19348752Y-24490000D01*
X17926248Y-26310000D02*
X19348752Y-26310000D01*
%TO.C,C9*%
X28010000Y-33516233D02*
X28010000Y-33808767D01*
X26990000Y-33516233D02*
X26990000Y-33808767D01*
%TO.C,C10*%
X22710000Y-20083767D02*
X22710000Y-19791233D01*
X21690000Y-20083767D02*
X21690000Y-19791233D01*
%TO.C,C11*%
X32590000Y-33516233D02*
X32590000Y-33808767D01*
X33610000Y-33516233D02*
X33610000Y-33808767D01*
%TO.C,C12*%
X19348752Y-19490000D02*
X17926248Y-19490000D01*
X19348752Y-21310000D02*
X17926248Y-21310000D01*
%TO.C,C13*%
X14590000Y-22253733D02*
X14590000Y-22546267D01*
X15610000Y-22253733D02*
X15610000Y-22546267D01*
%TO.C,C14*%
X14210000Y-25716233D02*
X14210000Y-26008767D01*
X13190000Y-25716233D02*
X13190000Y-26008767D01*
%TO.C,C15*%
X28590000Y-33808767D02*
X28590000Y-33516233D01*
X29610000Y-33808767D02*
X29610000Y-33516233D01*
%TO.C,C16*%
X22916233Y-10890000D02*
X23208767Y-10890000D01*
X22916233Y-11910000D02*
X23208767Y-11910000D01*
%TO.C,C18*%
X19491233Y-11910000D02*
X19783767Y-11910000D01*
X19491233Y-10890000D02*
X19783767Y-10890000D01*
%TO.C,C19*%
X26110000Y-12446267D02*
X26110000Y-12153733D01*
X25090000Y-12446267D02*
X25090000Y-12153733D01*
%TO.C,C20*%
X29491233Y-10890000D02*
X29783767Y-10890000D01*
X29491233Y-11910000D02*
X29783767Y-11910000D01*
%TO.C,C21*%
X36490000Y-14783767D02*
X36490000Y-14491233D01*
X37510000Y-14783767D02*
X37510000Y-14491233D01*
%TO.C,C22*%
X30190000Y-33973752D02*
X30190000Y-32551248D01*
X32010000Y-33973752D02*
X32010000Y-32551248D01*
%TO.C,C23*%
X30190000Y-37691233D02*
X30190000Y-37983767D01*
X31210000Y-37691233D02*
X31210000Y-37983767D01*
%TO.C,C24*%
X33383767Y-37790000D02*
X33091233Y-37790000D01*
X33383767Y-38810000D02*
X33091233Y-38810000D01*
%TO.C,C25*%
X36716233Y-39390000D02*
X37008767Y-39390000D01*
X36716233Y-40410000D02*
X37008767Y-40410000D01*
%TO.C,C26*%
X29990000Y-43241233D02*
X29990000Y-43533767D01*
X31010000Y-43241233D02*
X31010000Y-43533767D01*
%TO.C,C27*%
X49990000Y-43266233D02*
X49990000Y-43558767D01*
X51010000Y-43266233D02*
X51010000Y-43558767D01*
%TO.C,C28*%
X71010000Y-43253733D02*
X71010000Y-43546267D01*
X69990000Y-43253733D02*
X69990000Y-43546267D01*
%TO.C,C29*%
X84290000Y-14583767D02*
X84290000Y-14291233D01*
X85310000Y-14583767D02*
X85310000Y-14291233D01*
%TO.C,C30*%
X80410000Y-14583767D02*
X80410000Y-14291233D01*
X79390000Y-14583767D02*
X79390000Y-14291233D01*
%TO.C,C31*%
X88390000Y-14546267D02*
X88390000Y-14253733D01*
X89410000Y-14546267D02*
X89410000Y-14253733D01*
%TO.C,C32*%
X93810000Y-14546267D02*
X93810000Y-14253733D01*
X92790000Y-14546267D02*
X92790000Y-14253733D01*
%TO.C,C33*%
X91116233Y-41465000D02*
X91408767Y-41465000D01*
X91116233Y-42485000D02*
X91408767Y-42485000D01*
%TO.C,C34*%
X94910000Y-34648752D02*
X94910000Y-33226248D01*
X93090000Y-34648752D02*
X93090000Y-33226248D01*
%TO.C,C35*%
X92110000Y-34883767D02*
X92110000Y-34591233D01*
X91090000Y-34883767D02*
X91090000Y-34591233D01*
%TO.C,C36*%
X20190000Y-14691233D02*
X20190000Y-14983767D01*
X21210000Y-14691233D02*
X21210000Y-14983767D01*
%TO.C,C37*%
X26110000Y-15853733D02*
X26110000Y-16146267D01*
X25090000Y-15853733D02*
X25090000Y-16146267D01*
%TO.C,C38*%
X30910000Y-19608767D02*
X30910000Y-19316233D01*
X29890000Y-19608767D02*
X29890000Y-19316233D01*
%TO.C,C39*%
X33090000Y-19608767D02*
X33090000Y-19316233D01*
X34110000Y-19608767D02*
X34110000Y-19316233D01*
%TO.C,D1*%
X12950000Y-11600000D02*
X12950000Y-14000000D01*
X16050000Y-14000000D02*
X16050000Y-11050000D01*
%TO.C,FB1*%
X38977500Y-28657776D02*
X38977500Y-29167224D01*
X40022500Y-28657776D02*
X40022500Y-29167224D01*
%TO.C,FB2*%
X22422500Y-28145276D02*
X22422500Y-28654724D01*
X21377500Y-28145276D02*
X21377500Y-28654724D01*
%TO.C,FB3*%
X26122500Y-19232776D02*
X26122500Y-19742224D01*
X25077500Y-19232776D02*
X25077500Y-19742224D01*
%TO.C,FB4*%
X26677500Y-19257776D02*
X26677500Y-19767224D01*
X27722500Y-19257776D02*
X27722500Y-19767224D01*
%TO.C,FB5*%
X28277500Y-19245276D02*
X28277500Y-19754724D01*
X29322500Y-19245276D02*
X29322500Y-19754724D01*
%TO.C,FB6*%
X32522500Y-19245276D02*
X32522500Y-19754724D01*
X31477500Y-19245276D02*
X31477500Y-19754724D01*
%TO.C,FB7*%
X14332776Y-39277500D02*
X14842224Y-39277500D01*
X14332776Y-40322500D02*
X14842224Y-40322500D01*
%TO.C,FB8*%
X32932776Y-40422500D02*
X33442224Y-40422500D01*
X32932776Y-39377500D02*
X33442224Y-39377500D01*
%TO.C,FB10*%
X82477500Y-14667224D02*
X82477500Y-14157776D01*
X83522500Y-14667224D02*
X83522500Y-14157776D01*
%TO.C,FB11*%
X77477500Y-14642224D02*
X77477500Y-14132776D01*
X78522500Y-14642224D02*
X78522500Y-14132776D01*
%TO.C,FB12*%
X87622500Y-14642224D02*
X87622500Y-14132776D01*
X86577500Y-14642224D02*
X86577500Y-14132776D01*
%TO.C,FB13*%
X90977500Y-14654724D02*
X90977500Y-14145276D01*
X92022500Y-14654724D02*
X92022500Y-14145276D01*
%TO.C,J1*%
X29210000Y-35990000D02*
X26710000Y-35990000D01*
X29210000Y-38490000D02*
X29210000Y-35990000D01*
X22190000Y-37790000D02*
X22190000Y-36290000D01*
X21190000Y-37790000D02*
X22190000Y-37790000D01*
X27910000Y-37790000D02*
X27910000Y-36290000D01*
X28910000Y-37790000D02*
X27910000Y-37790000D01*
X21690000Y-38600000D02*
X21190000Y-38600000D01*
X21690000Y-39810000D02*
X21690000Y-38600000D01*
X28410000Y-39810000D02*
X21690000Y-39810000D01*
X28410000Y-38600000D02*
X28410000Y-39810000D01*
X28910000Y-38600000D02*
X28410000Y-38600000D01*
X21190000Y-40310000D02*
X28910000Y-40310000D01*
X21190000Y-36290000D02*
X21190000Y-40310000D01*
X28910000Y-36290000D02*
X21190000Y-36290000D01*
X28910000Y-40310000D02*
X28910000Y-36290000D01*
%TO.C,J2*%
X34090000Y-35410000D02*
X36590000Y-35410000D01*
X34090000Y-32910000D02*
X34090000Y-35410000D01*
X41110000Y-33610000D02*
X41110000Y-35110000D01*
X42110000Y-33610000D02*
X41110000Y-33610000D01*
X35390000Y-33610000D02*
X35390000Y-35110000D01*
X34390000Y-33610000D02*
X35390000Y-33610000D01*
X41610000Y-32800000D02*
X42110000Y-32800000D01*
X41610000Y-31590000D02*
X41610000Y-32800000D01*
X34890000Y-31590000D02*
X41610000Y-31590000D01*
X34890000Y-32800000D02*
X34890000Y-31590000D01*
X34390000Y-32800000D02*
X34890000Y-32800000D01*
X42110000Y-31090000D02*
X34390000Y-31090000D01*
X42110000Y-35110000D02*
X42110000Y-31090000D01*
X34390000Y-35110000D02*
X42110000Y-35110000D01*
X34390000Y-31090000D02*
X34390000Y-35110000D01*
%TO.C,J3*%
X15490000Y-5790000D02*
X15490000Y-9810000D01*
X15490000Y-9810000D02*
X23210000Y-9810000D01*
X23210000Y-9810000D02*
X23210000Y-5790000D01*
X23210000Y-5790000D02*
X15490000Y-5790000D01*
X15490000Y-7500000D02*
X15990000Y-7500000D01*
X15990000Y-7500000D02*
X15990000Y-6290000D01*
X15990000Y-6290000D02*
X22710000Y-6290000D01*
X22710000Y-6290000D02*
X22710000Y-7500000D01*
X22710000Y-7500000D02*
X23210000Y-7500000D01*
X15490000Y-8310000D02*
X16490000Y-8310000D01*
X16490000Y-8310000D02*
X16490000Y-9810000D01*
X23210000Y-8310000D02*
X22210000Y-8310000D01*
X22210000Y-8310000D02*
X22210000Y-9810000D01*
X15190000Y-7610000D02*
X15190000Y-10110000D01*
X15190000Y-10110000D02*
X17690000Y-10110000D01*
%TO.C,J4*%
X24690000Y-5790000D02*
X24690000Y-9810000D01*
X24690000Y-9810000D02*
X32410000Y-9810000D01*
X32410000Y-9810000D02*
X32410000Y-5790000D01*
X32410000Y-5790000D02*
X24690000Y-5790000D01*
X24690000Y-7500000D02*
X25190000Y-7500000D01*
X25190000Y-7500000D02*
X25190000Y-6290000D01*
X25190000Y-6290000D02*
X31910000Y-6290000D01*
X31910000Y-6290000D02*
X31910000Y-7500000D01*
X31910000Y-7500000D02*
X32410000Y-7500000D01*
X24690000Y-8310000D02*
X25690000Y-8310000D01*
X25690000Y-8310000D02*
X25690000Y-9810000D01*
X32410000Y-8310000D02*
X31410000Y-8310000D01*
X31410000Y-8310000D02*
X31410000Y-9810000D01*
X24390000Y-7610000D02*
X24390000Y-10110000D01*
X24390000Y-10110000D02*
X26890000Y-10110000D01*
D13*
%TO.C,J5*%
X200000Y-11300000D02*
X12100000Y-11300000D01*
X12100000Y-11300000D02*
X12100000Y-23300000D01*
X12100000Y-23300000D02*
X200000Y-23300000D01*
%TO.C,J6*%
X12100000Y-38700000D02*
X200000Y-38700000D01*
X12100000Y-26700000D02*
X12100000Y-38700000D01*
X200000Y-26700000D02*
X12100000Y-26700000D01*
%TO.C,J7*%
X78000000Y-200000D02*
X78000000Y-12100000D01*
X78000000Y-12100000D02*
X66000000Y-12100000D01*
X66000000Y-12100000D02*
X66000000Y-200000D01*
%TO.C,J8*%
X53400000Y-12100000D02*
X53400000Y-200000D01*
X65400000Y-12100000D02*
X53400000Y-12100000D01*
X65400000Y-200000D02*
X65400000Y-12100000D01*
%TO.C,J9*%
X52800000Y-200000D02*
X52800000Y-12100000D01*
X52800000Y-12100000D02*
X40800000Y-12100000D01*
X40800000Y-12100000D02*
X40800000Y-200000D01*
%TO.C,J12*%
X78600000Y-12100000D02*
X78600000Y-200000D01*
X90600000Y-12100000D02*
X78600000Y-12100000D01*
X90600000Y-200000D02*
X90600000Y-12100000D01*
D11*
%TO.C,L1*%
X24560000Y-15289564D02*
X24560000Y-14085436D01*
X21840000Y-15289564D02*
X21840000Y-14085436D01*
%TO.C,L2*%
X26640000Y-15314564D02*
X26640000Y-14110436D01*
X29360000Y-15314564D02*
X29360000Y-14110436D01*
%TO.C,L3*%
X32660000Y-15314564D02*
X32660000Y-14110436D01*
X29940000Y-15314564D02*
X29940000Y-14110436D01*
%TO.C,L4*%
X33240000Y-15314564D02*
X33240000Y-14110436D01*
X35960000Y-15314564D02*
X35960000Y-14110436D01*
%TO.C,L5*%
X33103733Y-36190000D02*
X33446267Y-36190000D01*
X33103733Y-37210000D02*
X33446267Y-37210000D01*
D13*
%TO.C,MIC1*%
X35300000Y-35900000D02*
X35300000Y-39000000D01*
X39200000Y-35900000D02*
X35300000Y-35900000D01*
X39200000Y-39000000D02*
X39200000Y-35900000D01*
X35300000Y-39000000D02*
X39200000Y-39000000D01*
D11*
X35300000Y-36100000D02*
G75*
G02*
X35500000Y-35900000I0J200000D01*
G01*
%TO.C,R1*%
X57042224Y-37722500D02*
X56532776Y-37722500D01*
X57042224Y-36677500D02*
X56532776Y-36677500D01*
%TO.C,R2*%
X52732776Y-37722500D02*
X53242224Y-37722500D01*
X52732776Y-36677500D02*
X53242224Y-36677500D01*
%TO.C,R3*%
X38422500Y-29142224D02*
X38422500Y-28632776D01*
X37377500Y-29142224D02*
X37377500Y-28632776D01*
%TO.C,R4*%
X35332776Y-26922500D02*
X35842224Y-26922500D01*
X35332776Y-25877500D02*
X35842224Y-25877500D01*
%TO.C,R5*%
X21377500Y-33067224D02*
X21377500Y-32557776D01*
X22422500Y-33067224D02*
X22422500Y-32557776D01*
%TO.C,R6*%
X12977500Y-22654724D02*
X12977500Y-22145276D01*
X14022500Y-22654724D02*
X14022500Y-22145276D01*
%TO.C,R7*%
X14777500Y-26167224D02*
X14777500Y-25657776D01*
X15822500Y-26167224D02*
X15822500Y-25657776D01*
%TO.C,R8*%
X89277500Y-26682776D02*
X89277500Y-27192224D01*
X90322500Y-26682776D02*
X90322500Y-27192224D01*
%TO.C,R9*%
X86777500Y-26682776D02*
X86777500Y-27192224D01*
X87822500Y-26682776D02*
X87822500Y-27192224D01*
%TO.C,R10*%
X55167224Y-13977500D02*
X54657776Y-13977500D01*
X55167224Y-15022500D02*
X54657776Y-15022500D01*
%TO.C,R11*%
X55167224Y-17622500D02*
X54657776Y-17622500D01*
X55167224Y-16577500D02*
X54657776Y-16577500D01*
%TO.C,R12*%
X91877500Y-26707776D02*
X91877500Y-27217224D01*
X92922500Y-26707776D02*
X92922500Y-27217224D01*
%TO.C,R13*%
X95422500Y-26707776D02*
X95422500Y-27217224D01*
X94377500Y-26707776D02*
X94377500Y-27217224D01*
%TO.C,RV1*%
X22620000Y-64620000D02*
X18380000Y-64620000D01*
X22620000Y-54620000D02*
X18380000Y-54620000D01*
X18380000Y-54620000D02*
X18380000Y-64620000D01*
X22620000Y-54620000D02*
X22620000Y-64620000D01*
X24120000Y-54620000D02*
X16880000Y-54620000D01*
X24120000Y-49620000D02*
X16880000Y-49620000D01*
X16880000Y-49620000D02*
X16880000Y-54620000D01*
X24120000Y-49620000D02*
X24120000Y-54620000D01*
X28620000Y-49620000D02*
X12380000Y-49620000D01*
X28620000Y-41880000D02*
X12380000Y-41880000D01*
X12380000Y-41880000D02*
X12380000Y-49620000D01*
X28620000Y-41880000D02*
X28620000Y-49620000D01*
%TO.C,RV3*%
X62620000Y-64620000D02*
X58380000Y-64620000D01*
X62620000Y-54620000D02*
X58380000Y-54620000D01*
X58380000Y-54620000D02*
X58380000Y-64620000D01*
X62620000Y-54620000D02*
X62620000Y-64620000D01*
X64120000Y-54620000D02*
X56880000Y-54620000D01*
X64120000Y-49620000D02*
X56880000Y-49620000D01*
X56880000Y-49620000D02*
X56880000Y-54620000D01*
X64120000Y-49620000D02*
X64120000Y-54620000D01*
X68620000Y-49620000D02*
X52380000Y-49620000D01*
X68620000Y-41880000D02*
X52380000Y-41880000D01*
X52380000Y-41880000D02*
X52380000Y-49620000D01*
X68620000Y-41880000D02*
X68620000Y-49620000D01*
%TO.C,RV4*%
X88620000Y-41880000D02*
X88620000Y-49620000D01*
X72380000Y-41880000D02*
X72380000Y-49620000D01*
X88620000Y-41880000D02*
X72380000Y-41880000D01*
X88620000Y-49620000D02*
X72380000Y-49620000D01*
X84120000Y-49620000D02*
X84120000Y-54620000D01*
X76880000Y-49620000D02*
X76880000Y-54620000D01*
X84120000Y-49620000D02*
X76880000Y-49620000D01*
X84120000Y-54620000D02*
X76880000Y-54620000D01*
X82620000Y-54620000D02*
X82620000Y-64620000D01*
X78380000Y-54620000D02*
X78380000Y-64620000D01*
X82620000Y-54620000D02*
X78380000Y-54620000D01*
X82620000Y-64620000D02*
X78380000Y-64620000D01*
%TO.C,U1*%
X26090000Y-23765000D02*
X26090000Y-23290000D01*
X26090000Y-23290000D02*
X26565000Y-23290000D01*
X31310000Y-28035000D02*
X31310000Y-28510000D01*
X31310000Y-28510000D02*
X30835000Y-28510000D01*
X31310000Y-23765000D02*
X31310000Y-23290000D01*
X31310000Y-23290000D02*
X30835000Y-23290000D01*
X26090000Y-28035000D02*
X26090000Y-28510000D01*
%TO.C,TP1*%
X33100000Y-29600000D02*
G75*
G03*
X33100000Y-29600000I-700000J0D01*
G01*
%TO.C,TP2*%
X22800000Y-25400000D02*
G75*
G03*
X22800000Y-25400000I-700000J0D01*
G01*
%TO.C,J11*%
X72290000Y-20070000D02*
X72290000Y-14870000D01*
X62070000Y-20070000D02*
X72290000Y-20070000D01*
X59470000Y-14870000D02*
X72290000Y-14870000D01*
X62070000Y-20070000D02*
X62070000Y-17470000D01*
X62070000Y-17470000D02*
X59470000Y-17470000D01*
X59470000Y-17470000D02*
X59470000Y-14870000D01*
X60800000Y-20070000D02*
X59470000Y-20070000D01*
X59470000Y-20070000D02*
X59470000Y-18740000D01*
%TO.C,R14*%
X56177500Y-20967224D02*
X56177500Y-20457776D01*
X57222500Y-20967224D02*
X57222500Y-20457776D01*
%TO.C,U2*%
X48500000Y-13245000D02*
X46550000Y-13245000D01*
X48500000Y-13245000D02*
X50450000Y-13245000D01*
X48500000Y-18365000D02*
X46550000Y-18365000D01*
X48500000Y-18365000D02*
X51950000Y-18365000D01*
%TO.C,JP1*%
X13970000Y-29570000D02*
X15300000Y-29570000D01*
X13970000Y-30900000D02*
X13970000Y-29570000D01*
X16570000Y-29570000D02*
X19170000Y-29570000D01*
X16570000Y-32170000D02*
X16570000Y-29570000D01*
X13970000Y-32170000D02*
X16570000Y-32170000D01*
X19170000Y-29570000D02*
X19170000Y-37310000D01*
X13970000Y-32170000D02*
X13970000Y-37310000D01*
X13970000Y-37310000D02*
X19170000Y-37310000D01*
%TO.C,J10*%
X57960000Y-35810000D02*
X57960000Y-31090000D01*
X57960000Y-31090000D02*
X47840000Y-31090000D01*
X47840000Y-31090000D02*
X47840000Y-35810000D01*
X47840000Y-35810000D02*
X57960000Y-35810000D01*
X56200000Y-35810000D02*
X56200000Y-36010000D01*
X56200000Y-36010000D02*
X56500000Y-36010000D01*
X56500000Y-36010000D02*
X56500000Y-35810000D01*
X56200000Y-35910000D02*
X56500000Y-35910000D01*
X55400000Y-35810000D02*
X55400000Y-35200000D01*
X55400000Y-35200000D02*
X57350000Y-35200000D01*
X57350000Y-35200000D02*
X57350000Y-31700000D01*
X57350000Y-31700000D02*
X48450000Y-31700000D01*
X48450000Y-31700000D02*
X48450000Y-35200000D01*
X48450000Y-35200000D02*
X50400000Y-35200000D01*
X50400000Y-35200000D02*
X50400000Y-35810000D01*
X57960000Y-34500000D02*
X57350000Y-34500000D01*
X57960000Y-33200000D02*
X57350000Y-33200000D01*
X47840000Y-34500000D02*
X48450000Y-34500000D01*
X47840000Y-33200000D02*
X48450000Y-33200000D01*
X55000000Y-31700000D02*
X55000000Y-32200000D01*
X55000000Y-32200000D02*
X54800000Y-32200000D01*
X54800000Y-32200000D02*
X54800000Y-31700000D01*
X54900000Y-31700000D02*
X54900000Y-32200000D01*
X53000000Y-31700000D02*
X53000000Y-32200000D01*
X53000000Y-32200000D02*
X52800000Y-32200000D01*
X52800000Y-32200000D02*
X52800000Y-31700000D01*
X52900000Y-31700000D02*
X52900000Y-32200000D01*
X51000000Y-31700000D02*
X51000000Y-32200000D01*
X51000000Y-32200000D02*
X50800000Y-32200000D01*
X50800000Y-32200000D02*
X50800000Y-31700000D01*
X50900000Y-31700000D02*
X50900000Y-32200000D01*
X57010000Y-36110000D02*
X58260000Y-36110000D01*
X58260000Y-36110000D02*
X58260000Y-34860000D01*
%TO.C,RV2*%
D10*
X49504761Y-48452380D02*
X49171428Y-47976190D01*
X48933333Y-48452380D02*
X48933333Y-47452380D01*
X49314285Y-47452380D01*
X49409523Y-47500000D01*
X49457142Y-47547619D01*
X49504761Y-47642857D01*
X49504761Y-47785714D01*
X49457142Y-47880952D01*
X49409523Y-47928571D01*
X49314285Y-47976190D01*
X48933333Y-47976190D01*
X49790476Y-47452380D02*
X50123809Y-48452380D01*
X50457142Y-47452380D01*
X50742857Y-47547619D02*
X50790476Y-47500000D01*
X50885714Y-47452380D01*
X51123809Y-47452380D01*
X51219047Y-47500000D01*
X51266666Y-47547619D01*
X51314285Y-47642857D01*
X51314285Y-47738095D01*
X51266666Y-47880952D01*
X50695238Y-48452380D01*
X51314285Y-48452380D01*
%TO.C,U3*%
X61138095Y-26452380D02*
X61138095Y-27261904D01*
X61185714Y-27357142D01*
X61233333Y-27404761D01*
X61328571Y-27452380D01*
X61519047Y-27452380D01*
X61614285Y-27404761D01*
X61661904Y-27357142D01*
X61709523Y-27261904D01*
X61709523Y-26452380D01*
X62090476Y-26452380D02*
X62709523Y-26452380D01*
X62376190Y-26833333D01*
X62519047Y-26833333D01*
X62614285Y-26880952D01*
X62661904Y-26928571D01*
X62709523Y-27023809D01*
X62709523Y-27261904D01*
X62661904Y-27357142D01*
X62614285Y-27404761D01*
X62519047Y-27452380D01*
X62233333Y-27452380D01*
X62138095Y-27404761D01*
X62090476Y-27357142D01*
%TO.C,C26*%
X29757142Y-46257142D02*
X29709523Y-46304761D01*
X29566666Y-46352380D01*
X29471428Y-46352380D01*
X29328571Y-46304761D01*
X29233333Y-46209523D01*
X29185714Y-46114285D01*
X29138095Y-45923809D01*
X29138095Y-45780952D01*
X29185714Y-45590476D01*
X29233333Y-45495238D01*
X29328571Y-45400000D01*
X29471428Y-45352380D01*
X29566666Y-45352380D01*
X29709523Y-45400000D01*
X29757142Y-45447619D01*
X30138095Y-45447619D02*
X30185714Y-45400000D01*
X30280952Y-45352380D01*
X30519047Y-45352380D01*
X30614285Y-45400000D01*
X30661904Y-45447619D01*
X30709523Y-45542857D01*
X30709523Y-45638095D01*
X30661904Y-45780952D01*
X30090476Y-46352380D01*
X30709523Y-46352380D01*
X31566666Y-45352380D02*
X31376190Y-45352380D01*
X31280952Y-45400000D01*
X31233333Y-45447619D01*
X31138095Y-45590476D01*
X31090476Y-45780952D01*
X31090476Y-46161904D01*
X31138095Y-46257142D01*
X31185714Y-46304761D01*
X31280952Y-46352380D01*
X31471428Y-46352380D01*
X31566666Y-46304761D01*
X31614285Y-46257142D01*
X31661904Y-46161904D01*
X31661904Y-45923809D01*
X31614285Y-45828571D01*
X31566666Y-45780952D01*
X31471428Y-45733333D01*
X31280952Y-45733333D01*
X31185714Y-45780952D01*
X31138095Y-45828571D01*
X31090476Y-45923809D01*
%TO.C,C27*%
X49557142Y-46357142D02*
X49509523Y-46404761D01*
X49366666Y-46452380D01*
X49271428Y-46452380D01*
X49128571Y-46404761D01*
X49033333Y-46309523D01*
X48985714Y-46214285D01*
X48938095Y-46023809D01*
X48938095Y-45880952D01*
X48985714Y-45690476D01*
X49033333Y-45595238D01*
X49128571Y-45500000D01*
X49271428Y-45452380D01*
X49366666Y-45452380D01*
X49509523Y-45500000D01*
X49557142Y-45547619D01*
X49938095Y-45547619D02*
X49985714Y-45500000D01*
X50080952Y-45452380D01*
X50319047Y-45452380D01*
X50414285Y-45500000D01*
X50461904Y-45547619D01*
X50509523Y-45642857D01*
X50509523Y-45738095D01*
X50461904Y-45880952D01*
X49890476Y-46452380D01*
X50509523Y-46452380D01*
X50842857Y-45452380D02*
X51509523Y-45452380D01*
X51080952Y-46452380D01*
%TO.C,C28*%
X69757142Y-46257142D02*
X69709523Y-46304761D01*
X69566666Y-46352380D01*
X69471428Y-46352380D01*
X69328571Y-46304761D01*
X69233333Y-46209523D01*
X69185714Y-46114285D01*
X69138095Y-45923809D01*
X69138095Y-45780952D01*
X69185714Y-45590476D01*
X69233333Y-45495238D01*
X69328571Y-45400000D01*
X69471428Y-45352380D01*
X69566666Y-45352380D01*
X69709523Y-45400000D01*
X69757142Y-45447619D01*
X70138095Y-45447619D02*
X70185714Y-45400000D01*
X70280952Y-45352380D01*
X70519047Y-45352380D01*
X70614285Y-45400000D01*
X70661904Y-45447619D01*
X70709523Y-45542857D01*
X70709523Y-45638095D01*
X70661904Y-45780952D01*
X70090476Y-46352380D01*
X70709523Y-46352380D01*
X71280952Y-45780952D02*
X71185714Y-45733333D01*
X71138095Y-45685714D01*
X71090476Y-45590476D01*
X71090476Y-45542857D01*
X71138095Y-45447619D01*
X71185714Y-45400000D01*
X71280952Y-45352380D01*
X71471428Y-45352380D01*
X71566666Y-45400000D01*
X71614285Y-45447619D01*
X71661904Y-45542857D01*
X71661904Y-45590476D01*
X71614285Y-45685714D01*
X71566666Y-45733333D01*
X71471428Y-45780952D01*
X71280952Y-45780952D01*
X71185714Y-45828571D01*
X71138095Y-45876190D01*
X71090476Y-45971428D01*
X71090476Y-46161904D01*
X71138095Y-46257142D01*
X71185714Y-46304761D01*
X71280952Y-46352380D01*
X71471428Y-46352380D01*
X71566666Y-46304761D01*
X71614285Y-46257142D01*
X71661904Y-46161904D01*
X71661904Y-45971428D01*
X71614285Y-45876190D01*
X71566666Y-45828571D01*
X71471428Y-45780952D01*
%TO.C,C29*%
X85157142Y-19042857D02*
X85204761Y-19090476D01*
X85252380Y-19233333D01*
X85252380Y-19328571D01*
X85204761Y-19471428D01*
X85109523Y-19566666D01*
X85014285Y-19614285D01*
X84823809Y-19661904D01*
X84680952Y-19661904D01*
X84490476Y-19614285D01*
X84395238Y-19566666D01*
X84300000Y-19471428D01*
X84252380Y-19328571D01*
X84252380Y-19233333D01*
X84300000Y-19090476D01*
X84347619Y-19042857D01*
X84347619Y-18661904D02*
X84300000Y-18614285D01*
X84252380Y-18519047D01*
X84252380Y-18280952D01*
X84300000Y-18185714D01*
X84347619Y-18138095D01*
X84442857Y-18090476D01*
X84538095Y-18090476D01*
X84680952Y-18138095D01*
X85252380Y-18709523D01*
X85252380Y-18090476D01*
X85252380Y-17614285D02*
X85252380Y-17423809D01*
X85204761Y-17328571D01*
X85157142Y-17280952D01*
X85014285Y-17185714D01*
X84823809Y-17138095D01*
X84442857Y-17138095D01*
X84347619Y-17185714D01*
X84300000Y-17233333D01*
X84252380Y-17328571D01*
X84252380Y-17519047D01*
X84300000Y-17614285D01*
X84347619Y-17661904D01*
X84442857Y-17709523D01*
X84680952Y-17709523D01*
X84776190Y-17661904D01*
X84823809Y-17614285D01*
X84871428Y-17519047D01*
X84871428Y-17328571D01*
X84823809Y-17233333D01*
X84776190Y-17185714D01*
X84680952Y-17138095D01*
%TO.C,C30*%
X80257142Y-19042857D02*
X80304761Y-19090476D01*
X80352380Y-19233333D01*
X80352380Y-19328571D01*
X80304761Y-19471428D01*
X80209523Y-19566666D01*
X80114285Y-19614285D01*
X79923809Y-19661904D01*
X79780952Y-19661904D01*
X79590476Y-19614285D01*
X79495238Y-19566666D01*
X79400000Y-19471428D01*
X79352380Y-19328571D01*
X79352380Y-19233333D01*
X79400000Y-19090476D01*
X79447619Y-19042857D01*
X79352380Y-18709523D02*
X79352380Y-18090476D01*
X79733333Y-18423809D01*
X79733333Y-18280952D01*
X79780952Y-18185714D01*
X79828571Y-18138095D01*
X79923809Y-18090476D01*
X80161904Y-18090476D01*
X80257142Y-18138095D01*
X80304761Y-18185714D01*
X80352380Y-18280952D01*
X80352380Y-18566666D01*
X80304761Y-18661904D01*
X80257142Y-18709523D01*
X79352380Y-17471428D02*
X79352380Y-17376190D01*
X79400000Y-17280952D01*
X79447619Y-17233333D01*
X79542857Y-17185714D01*
X79733333Y-17138095D01*
X79971428Y-17138095D01*
X80161904Y-17185714D01*
X80257142Y-17233333D01*
X80304761Y-17280952D01*
X80352380Y-17376190D01*
X80352380Y-17471428D01*
X80304761Y-17566666D01*
X80257142Y-17614285D01*
X80161904Y-17661904D01*
X79971428Y-17709523D01*
X79733333Y-17709523D01*
X79542857Y-17661904D01*
X79447619Y-17614285D01*
X79400000Y-17566666D01*
X79352380Y-17471428D01*
%TO.C,C31*%
X89257142Y-19042857D02*
X89304761Y-19090476D01*
X89352380Y-19233333D01*
X89352380Y-19328571D01*
X89304761Y-19471428D01*
X89209523Y-19566666D01*
X89114285Y-19614285D01*
X88923809Y-19661904D01*
X88780952Y-19661904D01*
X88590476Y-19614285D01*
X88495238Y-19566666D01*
X88400000Y-19471428D01*
X88352380Y-19328571D01*
X88352380Y-19233333D01*
X88400000Y-19090476D01*
X88447619Y-19042857D01*
X88352380Y-18709523D02*
X88352380Y-18090476D01*
X88733333Y-18423809D01*
X88733333Y-18280952D01*
X88780952Y-18185714D01*
X88828571Y-18138095D01*
X88923809Y-18090476D01*
X89161904Y-18090476D01*
X89257142Y-18138095D01*
X89304761Y-18185714D01*
X89352380Y-18280952D01*
X89352380Y-18566666D01*
X89304761Y-18661904D01*
X89257142Y-18709523D01*
X89352380Y-17138095D02*
X89352380Y-17709523D01*
X89352380Y-17423809D02*
X88352380Y-17423809D01*
X88495238Y-17519047D01*
X88590476Y-17614285D01*
X88638095Y-17709523D01*
%TO.C,C32*%
X93657142Y-19042857D02*
X93704761Y-19090476D01*
X93752380Y-19233333D01*
X93752380Y-19328571D01*
X93704761Y-19471428D01*
X93609523Y-19566666D01*
X93514285Y-19614285D01*
X93323809Y-19661904D01*
X93180952Y-19661904D01*
X92990476Y-19614285D01*
X92895238Y-19566666D01*
X92800000Y-19471428D01*
X92752380Y-19328571D01*
X92752380Y-19233333D01*
X92800000Y-19090476D01*
X92847619Y-19042857D01*
X92752380Y-18709523D02*
X92752380Y-18090476D01*
X93133333Y-18423809D01*
X93133333Y-18280952D01*
X93180952Y-18185714D01*
X93228571Y-18138095D01*
X93323809Y-18090476D01*
X93561904Y-18090476D01*
X93657142Y-18138095D01*
X93704761Y-18185714D01*
X93752380Y-18280952D01*
X93752380Y-18566666D01*
X93704761Y-18661904D01*
X93657142Y-18709523D01*
X92847619Y-17709523D02*
X92800000Y-17661904D01*
X92752380Y-17566666D01*
X92752380Y-17328571D01*
X92800000Y-17233333D01*
X92847619Y-17185714D01*
X92942857Y-17138095D01*
X93038095Y-17138095D01*
X93180952Y-17185714D01*
X93752380Y-17757142D01*
X93752380Y-17138095D01*
%TO.C,C33*%
X90157142Y-43857142D02*
X90109523Y-43904761D01*
X89966666Y-43952380D01*
X89871428Y-43952380D01*
X89728571Y-43904761D01*
X89633333Y-43809523D01*
X89585714Y-43714285D01*
X89538095Y-43523809D01*
X89538095Y-43380952D01*
X89585714Y-43190476D01*
X89633333Y-43095238D01*
X89728571Y-43000000D01*
X89871428Y-42952380D01*
X89966666Y-42952380D01*
X90109523Y-43000000D01*
X90157142Y-43047619D01*
X90490476Y-42952380D02*
X91109523Y-42952380D01*
X90776190Y-43333333D01*
X90919047Y-43333333D01*
X91014285Y-43380952D01*
X91061904Y-43428571D01*
X91109523Y-43523809D01*
X91109523Y-43761904D01*
X91061904Y-43857142D01*
X91014285Y-43904761D01*
X90919047Y-43952380D01*
X90633333Y-43952380D01*
X90538095Y-43904761D01*
X90490476Y-43857142D01*
X91442857Y-42952380D02*
X92061904Y-42952380D01*
X91728571Y-43333333D01*
X91871428Y-43333333D01*
X91966666Y-43380952D01*
X92014285Y-43428571D01*
X92061904Y-43523809D01*
X92061904Y-43761904D01*
X92014285Y-43857142D01*
X91966666Y-43904761D01*
X91871428Y-43952380D01*
X91585714Y-43952380D01*
X91490476Y-43904761D01*
X91442857Y-43857142D01*
%TO.C,C34*%
X96257142Y-34294642D02*
X96209523Y-34342261D01*
X96066666Y-34389880D01*
X95971428Y-34389880D01*
X95828571Y-34342261D01*
X95733333Y-34247023D01*
X95685714Y-34151785D01*
X95638095Y-33961309D01*
X95638095Y-33818452D01*
X95685714Y-33627976D01*
X95733333Y-33532738D01*
X95828571Y-33437500D01*
X95971428Y-33389880D01*
X96066666Y-33389880D01*
X96209523Y-33437500D01*
X96257142Y-33485119D01*
X96590476Y-33389880D02*
X97209523Y-33389880D01*
X96876190Y-33770833D01*
X97019047Y-33770833D01*
X97114285Y-33818452D01*
X97161904Y-33866071D01*
X97209523Y-33961309D01*
X97209523Y-34199404D01*
X97161904Y-34294642D01*
X97114285Y-34342261D01*
X97019047Y-34389880D01*
X96733333Y-34389880D01*
X96638095Y-34342261D01*
X96590476Y-34294642D01*
X98066666Y-33723214D02*
X98066666Y-34389880D01*
X97828571Y-33342261D02*
X97590476Y-34056547D01*
X98209523Y-34056547D01*
%TO.C,C35*%
X88457142Y-35157142D02*
X88409523Y-35204761D01*
X88266666Y-35252380D01*
X88171428Y-35252380D01*
X88028571Y-35204761D01*
X87933333Y-35109523D01*
X87885714Y-35014285D01*
X87838095Y-34823809D01*
X87838095Y-34680952D01*
X87885714Y-34490476D01*
X87933333Y-34395238D01*
X88028571Y-34300000D01*
X88171428Y-34252380D01*
X88266666Y-34252380D01*
X88409523Y-34300000D01*
X88457142Y-34347619D01*
X88790476Y-34252380D02*
X89409523Y-34252380D01*
X89076190Y-34633333D01*
X89219047Y-34633333D01*
X89314285Y-34680952D01*
X89361904Y-34728571D01*
X89409523Y-34823809D01*
X89409523Y-35061904D01*
X89361904Y-35157142D01*
X89314285Y-35204761D01*
X89219047Y-35252380D01*
X88933333Y-35252380D01*
X88838095Y-35204761D01*
X88790476Y-35157142D01*
X90314285Y-34252380D02*
X89838095Y-34252380D01*
X89790476Y-34728571D01*
X89838095Y-34680952D01*
X89933333Y-34633333D01*
X90171428Y-34633333D01*
X90266666Y-34680952D01*
X90314285Y-34728571D01*
X90361904Y-34823809D01*
X90361904Y-35061904D01*
X90314285Y-35157142D01*
X90266666Y-35204761D01*
X90171428Y-35252380D01*
X89933333Y-35252380D01*
X89838095Y-35204761D01*
X89790476Y-35157142D01*
%TO.C,D1*%
X12661904Y-10452380D02*
X12661904Y-9452380D01*
X12900000Y-9452380D01*
X13042857Y-9500000D01*
X13138095Y-9595238D01*
X13185714Y-9690476D01*
X13233333Y-9880952D01*
X13233333Y-10023809D01*
X13185714Y-10214285D01*
X13138095Y-10309523D01*
X13042857Y-10404761D01*
X12900000Y-10452380D01*
X12661904Y-10452380D01*
X14185714Y-10452380D02*
X13614285Y-10452380D01*
X13900000Y-10452380D02*
X13900000Y-9452380D01*
X13804761Y-9595238D01*
X13709523Y-9690476D01*
X13614285Y-9738095D01*
%TO.C,FB10*%
X82928571Y-19209523D02*
X82928571Y-19542857D01*
X83452380Y-19542857D02*
X82452380Y-19542857D01*
X82452380Y-19066666D01*
X82928571Y-18352380D02*
X82976190Y-18209523D01*
X83023809Y-18161904D01*
X83119047Y-18114285D01*
X83261904Y-18114285D01*
X83357142Y-18161904D01*
X83404761Y-18209523D01*
X83452380Y-18304761D01*
X83452380Y-18685714D01*
X82452380Y-18685714D01*
X82452380Y-18352380D01*
X82500000Y-18257142D01*
X82547619Y-18209523D01*
X82642857Y-18161904D01*
X82738095Y-18161904D01*
X82833333Y-18209523D01*
X82880952Y-18257142D01*
X82928571Y-18352380D01*
X82928571Y-18685714D01*
X83452380Y-17161904D02*
X83452380Y-17733333D01*
X83452380Y-17447619D02*
X82452380Y-17447619D01*
X82595238Y-17542857D01*
X82690476Y-17638095D01*
X82738095Y-17733333D01*
X82452380Y-16542857D02*
X82452380Y-16447619D01*
X82500000Y-16352380D01*
X82547619Y-16304761D01*
X82642857Y-16257142D01*
X82833333Y-16209523D01*
X83071428Y-16209523D01*
X83261904Y-16257142D01*
X83357142Y-16304761D01*
X83404761Y-16352380D01*
X83452380Y-16447619D01*
X83452380Y-16542857D01*
X83404761Y-16638095D01*
X83357142Y-16685714D01*
X83261904Y-16733333D01*
X83071428Y-16780952D01*
X82833333Y-16780952D01*
X82642857Y-16733333D01*
X82547619Y-16685714D01*
X82500000Y-16638095D01*
X82452380Y-16542857D01*
%TO.C,FB11*%
X77828571Y-19209523D02*
X77828571Y-19542857D01*
X78352380Y-19542857D02*
X77352380Y-19542857D01*
X77352380Y-19066666D01*
X77828571Y-18352380D02*
X77876190Y-18209523D01*
X77923809Y-18161904D01*
X78019047Y-18114285D01*
X78161904Y-18114285D01*
X78257142Y-18161904D01*
X78304761Y-18209523D01*
X78352380Y-18304761D01*
X78352380Y-18685714D01*
X77352380Y-18685714D01*
X77352380Y-18352380D01*
X77400000Y-18257142D01*
X77447619Y-18209523D01*
X77542857Y-18161904D01*
X77638095Y-18161904D01*
X77733333Y-18209523D01*
X77780952Y-18257142D01*
X77828571Y-18352380D01*
X77828571Y-18685714D01*
X78352380Y-17161904D02*
X78352380Y-17733333D01*
X78352380Y-17447619D02*
X77352380Y-17447619D01*
X77495238Y-17542857D01*
X77590476Y-17638095D01*
X77638095Y-17733333D01*
X78352380Y-16209523D02*
X78352380Y-16780952D01*
X78352380Y-16495238D02*
X77352380Y-16495238D01*
X77495238Y-16590476D01*
X77590476Y-16685714D01*
X77638095Y-16780952D01*
%TO.C,FB12*%
X87028571Y-19209523D02*
X87028571Y-19542857D01*
X87552380Y-19542857D02*
X86552380Y-19542857D01*
X86552380Y-19066666D01*
X87028571Y-18352380D02*
X87076190Y-18209523D01*
X87123809Y-18161904D01*
X87219047Y-18114285D01*
X87361904Y-18114285D01*
X87457142Y-18161904D01*
X87504761Y-18209523D01*
X87552380Y-18304761D01*
X87552380Y-18685714D01*
X86552380Y-18685714D01*
X86552380Y-18352380D01*
X86600000Y-18257142D01*
X86647619Y-18209523D01*
X86742857Y-18161904D01*
X86838095Y-18161904D01*
X86933333Y-18209523D01*
X86980952Y-18257142D01*
X87028571Y-18352380D01*
X87028571Y-18685714D01*
X87552380Y-17161904D02*
X87552380Y-17733333D01*
X87552380Y-17447619D02*
X86552380Y-17447619D01*
X86695238Y-17542857D01*
X86790476Y-17638095D01*
X86838095Y-17733333D01*
X86647619Y-16780952D02*
X86600000Y-16733333D01*
X86552380Y-16638095D01*
X86552380Y-16400000D01*
X86600000Y-16304761D01*
X86647619Y-16257142D01*
X86742857Y-16209523D01*
X86838095Y-16209523D01*
X86980952Y-16257142D01*
X87552380Y-16828571D01*
X87552380Y-16209523D01*
%TO.C,FB13*%
X91428571Y-19209523D02*
X91428571Y-19542857D01*
X91952380Y-19542857D02*
X90952380Y-19542857D01*
X90952380Y-19066666D01*
X91428571Y-18352380D02*
X91476190Y-18209523D01*
X91523809Y-18161904D01*
X91619047Y-18114285D01*
X91761904Y-18114285D01*
X91857142Y-18161904D01*
X91904761Y-18209523D01*
X91952380Y-18304761D01*
X91952380Y-18685714D01*
X90952380Y-18685714D01*
X90952380Y-18352380D01*
X91000000Y-18257142D01*
X91047619Y-18209523D01*
X91142857Y-18161904D01*
X91238095Y-18161904D01*
X91333333Y-18209523D01*
X91380952Y-18257142D01*
X91428571Y-18352380D01*
X91428571Y-18685714D01*
X91952380Y-17161904D02*
X91952380Y-17733333D01*
X91952380Y-17447619D02*
X90952380Y-17447619D01*
X91095238Y-17542857D01*
X91190476Y-17638095D01*
X91238095Y-17733333D01*
X90952380Y-16828571D02*
X90952380Y-16209523D01*
X91333333Y-16542857D01*
X91333333Y-16400000D01*
X91380952Y-16304761D01*
X91428571Y-16257142D01*
X91523809Y-16209523D01*
X91761904Y-16209523D01*
X91857142Y-16257142D01*
X91904761Y-16304761D01*
X91952380Y-16400000D01*
X91952380Y-16685714D01*
X91904761Y-16780952D01*
X91857142Y-16828571D01*
%TO.C,J1*%
X19766666Y-37152380D02*
X19766666Y-37866666D01*
X19719047Y-38009523D01*
X19623809Y-38104761D01*
X19480952Y-38152380D01*
X19385714Y-38152380D01*
X20766666Y-38152380D02*
X20195238Y-38152380D01*
X20480952Y-38152380D02*
X20480952Y-37152380D01*
X20385714Y-37295238D01*
X20290476Y-37390476D01*
X20195238Y-37438095D01*
%TO.C,J2*%
X43166666Y-31852380D02*
X43166666Y-32566666D01*
X43119047Y-32709523D01*
X43023809Y-32804761D01*
X42880952Y-32852380D01*
X42785714Y-32852380D01*
X43595238Y-31947619D02*
X43642857Y-31900000D01*
X43738095Y-31852380D01*
X43976190Y-31852380D01*
X44071428Y-31900000D01*
X44119047Y-31947619D01*
X44166666Y-32042857D01*
X44166666Y-32138095D01*
X44119047Y-32280952D01*
X43547619Y-32852380D01*
X44166666Y-32852380D01*
%TO.C,J3*%
X13766666Y-5852380D02*
X13766666Y-6566666D01*
X13719047Y-6709523D01*
X13623809Y-6804761D01*
X13480952Y-6852380D01*
X13385714Y-6852380D01*
X14147619Y-5852380D02*
X14766666Y-5852380D01*
X14433333Y-6233333D01*
X14576190Y-6233333D01*
X14671428Y-6280952D01*
X14719047Y-6328571D01*
X14766666Y-6423809D01*
X14766666Y-6661904D01*
X14719047Y-6757142D01*
X14671428Y-6804761D01*
X14576190Y-6852380D01*
X14290476Y-6852380D01*
X14195238Y-6804761D01*
X14147619Y-6757142D01*
%TO.C,J4*%
X33366666Y-5752380D02*
X33366666Y-6466666D01*
X33319047Y-6609523D01*
X33223809Y-6704761D01*
X33080952Y-6752380D01*
X32985714Y-6752380D01*
X34271428Y-6085714D02*
X34271428Y-6752380D01*
X34033333Y-5704761D02*
X33795238Y-6419047D01*
X34414285Y-6419047D01*
%TO.C,J5*%
X5666666Y-23652380D02*
X5666666Y-24366666D01*
X5619047Y-24509523D01*
X5523809Y-24604761D01*
X5380952Y-24652380D01*
X5285714Y-24652380D01*
X6619047Y-23652380D02*
X6142857Y-23652380D01*
X6095238Y-24128571D01*
X6142857Y-24080952D01*
X6238095Y-24033333D01*
X6476190Y-24033333D01*
X6571428Y-24080952D01*
X6619047Y-24128571D01*
X6666666Y-24223809D01*
X6666666Y-24461904D01*
X6619047Y-24557142D01*
X6571428Y-24604761D01*
X6476190Y-24652380D01*
X6238095Y-24652380D01*
X6142857Y-24604761D01*
X6095238Y-24557142D01*
%TO.C,J6*%
X5866666Y-39252380D02*
X5866666Y-39966666D01*
X5819047Y-40109523D01*
X5723809Y-40204761D01*
X5580952Y-40252380D01*
X5485714Y-40252380D01*
X6771428Y-39252380D02*
X6580952Y-39252380D01*
X6485714Y-39300000D01*
X6438095Y-39347619D01*
X6342857Y-39490476D01*
X6295238Y-39680952D01*
X6295238Y-40061904D01*
X6342857Y-40157142D01*
X6390476Y-40204761D01*
X6485714Y-40252380D01*
X6676190Y-40252380D01*
X6771428Y-40204761D01*
X6819047Y-40157142D01*
X6866666Y-40061904D01*
X6866666Y-39823809D01*
X6819047Y-39728571D01*
X6771428Y-39680952D01*
X6676190Y-39633333D01*
X6485714Y-39633333D01*
X6390476Y-39680952D01*
X6342857Y-39728571D01*
X6295238Y-39823809D01*
%TO.C,J7*%
X66266666Y-12452380D02*
X66266666Y-13166666D01*
X66219047Y-13309523D01*
X66123809Y-13404761D01*
X65980952Y-13452380D01*
X65885714Y-13452380D01*
X66647619Y-12452380D02*
X67314285Y-12452380D01*
X66885714Y-13452380D01*
%TO.C,J8*%
X53866666Y-12452380D02*
X53866666Y-13166666D01*
X53819047Y-13309523D01*
X53723809Y-13404761D01*
X53580952Y-13452380D01*
X53485714Y-13452380D01*
X54485714Y-12880952D02*
X54390476Y-12833333D01*
X54342857Y-12785714D01*
X54295238Y-12690476D01*
X54295238Y-12642857D01*
X54342857Y-12547619D01*
X54390476Y-12500000D01*
X54485714Y-12452380D01*
X54676190Y-12452380D01*
X54771428Y-12500000D01*
X54819047Y-12547619D01*
X54866666Y-12642857D01*
X54866666Y-12690476D01*
X54819047Y-12785714D01*
X54771428Y-12833333D01*
X54676190Y-12880952D01*
X54485714Y-12880952D01*
X54390476Y-12928571D01*
X54342857Y-12976190D01*
X54295238Y-13071428D01*
X54295238Y-13261904D01*
X54342857Y-13357142D01*
X54390476Y-13404761D01*
X54485714Y-13452380D01*
X54676190Y-13452380D01*
X54771428Y-13404761D01*
X54819047Y-13357142D01*
X54866666Y-13261904D01*
X54866666Y-13071428D01*
X54819047Y-12976190D01*
X54771428Y-12928571D01*
X54676190Y-12880952D01*
%TO.C,J9*%
X39266666Y-10952380D02*
X39266666Y-11666666D01*
X39219047Y-11809523D01*
X39123809Y-11904761D01*
X38980952Y-11952380D01*
X38885714Y-11952380D01*
X39790476Y-11952380D02*
X39980952Y-11952380D01*
X40076190Y-11904761D01*
X40123809Y-11857142D01*
X40219047Y-11714285D01*
X40266666Y-11523809D01*
X40266666Y-11142857D01*
X40219047Y-11047619D01*
X40171428Y-11000000D01*
X40076190Y-10952380D01*
X39885714Y-10952380D01*
X39790476Y-11000000D01*
X39742857Y-11047619D01*
X39695238Y-11142857D01*
X39695238Y-11380952D01*
X39742857Y-11476190D01*
X39790476Y-11523809D01*
X39885714Y-11571428D01*
X40076190Y-11571428D01*
X40171428Y-11523809D01*
X40219047Y-11476190D01*
X40266666Y-11380952D01*
%TO.C,J12*%
X91390476Y-9152380D02*
X91390476Y-9866666D01*
X91342857Y-10009523D01*
X91247619Y-10104761D01*
X91104761Y-10152380D01*
X91009523Y-10152380D01*
X92390476Y-10152380D02*
X91819047Y-10152380D01*
X92104761Y-10152380D02*
X92104761Y-9152380D01*
X92009523Y-9295238D01*
X91914285Y-9390476D01*
X91819047Y-9438095D01*
X92771428Y-9247619D02*
X92819047Y-9200000D01*
X92914285Y-9152380D01*
X93152380Y-9152380D01*
X93247619Y-9200000D01*
X93295238Y-9247619D01*
X93342857Y-9342857D01*
X93342857Y-9438095D01*
X93295238Y-9580952D01*
X92723809Y-10152380D01*
X93342857Y-10152380D01*
%TO.C,L1*%
X23033333Y-15152380D02*
X22557142Y-15152380D01*
X22557142Y-14152380D01*
X23890476Y-15152380D02*
X23319047Y-15152380D01*
X23604761Y-15152380D02*
X23604761Y-14152380D01*
X23509523Y-14295238D01*
X23414285Y-14390476D01*
X23319047Y-14438095D01*
%TO.C,L2*%
X27833333Y-15152380D02*
X27357142Y-15152380D01*
X27357142Y-14152380D01*
X28119047Y-14247619D02*
X28166666Y-14200000D01*
X28261904Y-14152380D01*
X28500000Y-14152380D01*
X28595238Y-14200000D01*
X28642857Y-14247619D01*
X28690476Y-14342857D01*
X28690476Y-14438095D01*
X28642857Y-14580952D01*
X28071428Y-15152380D01*
X28690476Y-15152380D01*
%TO.C,L3*%
X31233333Y-15152380D02*
X30757142Y-15152380D01*
X30757142Y-14152380D01*
X31471428Y-14152380D02*
X32090476Y-14152380D01*
X31757142Y-14533333D01*
X31900000Y-14533333D01*
X31995238Y-14580952D01*
X32042857Y-14628571D01*
X32090476Y-14723809D01*
X32090476Y-14961904D01*
X32042857Y-15057142D01*
X31995238Y-15104761D01*
X31900000Y-15152380D01*
X31614285Y-15152380D01*
X31519047Y-15104761D01*
X31471428Y-15057142D01*
%TO.C,L4*%
X34333333Y-15152380D02*
X33857142Y-15152380D01*
X33857142Y-14152380D01*
X35095238Y-14485714D02*
X35095238Y-15152380D01*
X34857142Y-14104761D02*
X34619047Y-14819047D01*
X35238095Y-14819047D01*
%TO.C,MIC1*%
X39552380Y-38552380D02*
X39552380Y-37552380D01*
X39885714Y-38266666D01*
X40219047Y-37552380D01*
X40219047Y-38552380D01*
X40695238Y-38552380D02*
X40695238Y-37552380D01*
X41742857Y-38457142D02*
X41695238Y-38504761D01*
X41552380Y-38552380D01*
X41457142Y-38552380D01*
X41314285Y-38504761D01*
X41219047Y-38409523D01*
X41171428Y-38314285D01*
X41123809Y-38123809D01*
X41123809Y-37980952D01*
X41171428Y-37790476D01*
X41219047Y-37695238D01*
X41314285Y-37600000D01*
X41457142Y-37552380D01*
X41552380Y-37552380D01*
X41695238Y-37600000D01*
X41742857Y-37647619D01*
X42695238Y-38552380D02*
X42123809Y-38552380D01*
X42409523Y-38552380D02*
X42409523Y-37552380D01*
X42314285Y-37695238D01*
X42219047Y-37790476D01*
X42123809Y-37838095D01*
%TO.C,R1*%
X56620833Y-39082380D02*
X56287500Y-38606190D01*
X56049404Y-39082380D02*
X56049404Y-38082380D01*
X56430357Y-38082380D01*
X56525595Y-38130000D01*
X56573214Y-38177619D01*
X56620833Y-38272857D01*
X56620833Y-38415714D01*
X56573214Y-38510952D01*
X56525595Y-38558571D01*
X56430357Y-38606190D01*
X56049404Y-38606190D01*
X57573214Y-39082380D02*
X57001785Y-39082380D01*
X57287500Y-39082380D02*
X57287500Y-38082380D01*
X57192261Y-38225238D01*
X57097023Y-38320476D01*
X57001785Y-38368095D01*
%TO.C,R2*%
X52733333Y-39052380D02*
X52400000Y-38576190D01*
X52161904Y-39052380D02*
X52161904Y-38052380D01*
X52542857Y-38052380D01*
X52638095Y-38100000D01*
X52685714Y-38147619D01*
X52733333Y-38242857D01*
X52733333Y-38385714D01*
X52685714Y-38480952D01*
X52638095Y-38528571D01*
X52542857Y-38576190D01*
X52161904Y-38576190D01*
X53114285Y-38147619D02*
X53161904Y-38100000D01*
X53257142Y-38052380D01*
X53495238Y-38052380D01*
X53590476Y-38100000D01*
X53638095Y-38147619D01*
X53685714Y-38242857D01*
X53685714Y-38338095D01*
X53638095Y-38480952D01*
X53066666Y-39052380D01*
X53685714Y-39052380D01*
%TO.C,R8*%
X89233333Y-30052380D02*
X88900000Y-29576190D01*
X88661904Y-30052380D02*
X88661904Y-29052380D01*
X89042857Y-29052380D01*
X89138095Y-29100000D01*
X89185714Y-29147619D01*
X89233333Y-29242857D01*
X89233333Y-29385714D01*
X89185714Y-29480952D01*
X89138095Y-29528571D01*
X89042857Y-29576190D01*
X88661904Y-29576190D01*
X89804761Y-29480952D02*
X89709523Y-29433333D01*
X89661904Y-29385714D01*
X89614285Y-29290476D01*
X89614285Y-29242857D01*
X89661904Y-29147619D01*
X89709523Y-29100000D01*
X89804761Y-29052380D01*
X89995238Y-29052380D01*
X90090476Y-29100000D01*
X90138095Y-29147619D01*
X90185714Y-29242857D01*
X90185714Y-29290476D01*
X90138095Y-29385714D01*
X90090476Y-29433333D01*
X89995238Y-29480952D01*
X89804761Y-29480952D01*
X89709523Y-29528571D01*
X89661904Y-29576190D01*
X89614285Y-29671428D01*
X89614285Y-29861904D01*
X89661904Y-29957142D01*
X89709523Y-30004761D01*
X89804761Y-30052380D01*
X89995238Y-30052380D01*
X90090476Y-30004761D01*
X90138095Y-29957142D01*
X90185714Y-29861904D01*
X90185714Y-29671428D01*
X90138095Y-29576190D01*
X90090476Y-29528571D01*
X89995238Y-29480952D01*
%TO.C,R9*%
X86733333Y-30052380D02*
X86400000Y-29576190D01*
X86161904Y-30052380D02*
X86161904Y-29052380D01*
X86542857Y-29052380D01*
X86638095Y-29100000D01*
X86685714Y-29147619D01*
X86733333Y-29242857D01*
X86733333Y-29385714D01*
X86685714Y-29480952D01*
X86638095Y-29528571D01*
X86542857Y-29576190D01*
X86161904Y-29576190D01*
X87209523Y-30052380D02*
X87400000Y-30052380D01*
X87495238Y-30004761D01*
X87542857Y-29957142D01*
X87638095Y-29814285D01*
X87685714Y-29623809D01*
X87685714Y-29242857D01*
X87638095Y-29147619D01*
X87590476Y-29100000D01*
X87495238Y-29052380D01*
X87304761Y-29052380D01*
X87209523Y-29100000D01*
X87161904Y-29147619D01*
X87114285Y-29242857D01*
X87114285Y-29480952D01*
X87161904Y-29576190D01*
X87209523Y-29623809D01*
X87304761Y-29671428D01*
X87495238Y-29671428D01*
X87590476Y-29623809D01*
X87638095Y-29576190D01*
X87685714Y-29480952D01*
%TO.C,R10*%
X53857142Y-16382380D02*
X53523809Y-15906190D01*
X53285714Y-16382380D02*
X53285714Y-15382380D01*
X53666666Y-15382380D01*
X53761904Y-15430000D01*
X53809523Y-15477619D01*
X53857142Y-15572857D01*
X53857142Y-15715714D01*
X53809523Y-15810952D01*
X53761904Y-15858571D01*
X53666666Y-15906190D01*
X53285714Y-15906190D01*
X54809523Y-16382380D02*
X54238095Y-16382380D01*
X54523809Y-16382380D02*
X54523809Y-15382380D01*
X54428571Y-15525238D01*
X54333333Y-15620476D01*
X54238095Y-15668095D01*
X55428571Y-15382380D02*
X55523809Y-15382380D01*
X55619047Y-15430000D01*
X55666666Y-15477619D01*
X55714285Y-15572857D01*
X55761904Y-15763333D01*
X55761904Y-16001428D01*
X55714285Y-16191904D01*
X55666666Y-16287142D01*
X55619047Y-16334761D01*
X55523809Y-16382380D01*
X55428571Y-16382380D01*
X55333333Y-16334761D01*
X55285714Y-16287142D01*
X55238095Y-16191904D01*
X55190476Y-16001428D01*
X55190476Y-15763333D01*
X55238095Y-15572857D01*
X55285714Y-15477619D01*
X55333333Y-15430000D01*
X55428571Y-15382380D01*
%TO.C,R11*%
X53757142Y-19152380D02*
X53423809Y-18676190D01*
X53185714Y-19152380D02*
X53185714Y-18152380D01*
X53566666Y-18152380D01*
X53661904Y-18200000D01*
X53709523Y-18247619D01*
X53757142Y-18342857D01*
X53757142Y-18485714D01*
X53709523Y-18580952D01*
X53661904Y-18628571D01*
X53566666Y-18676190D01*
X53185714Y-18676190D01*
X54709523Y-19152380D02*
X54138095Y-19152380D01*
X54423809Y-19152380D02*
X54423809Y-18152380D01*
X54328571Y-18295238D01*
X54233333Y-18390476D01*
X54138095Y-18438095D01*
X55661904Y-19152380D02*
X55090476Y-19152380D01*
X55376190Y-19152380D02*
X55376190Y-18152380D01*
X55280952Y-18295238D01*
X55185714Y-18390476D01*
X55090476Y-18438095D01*
%TO.C,R12*%
X91657142Y-30052380D02*
X91323809Y-29576190D01*
X91085714Y-30052380D02*
X91085714Y-29052380D01*
X91466666Y-29052380D01*
X91561904Y-29100000D01*
X91609523Y-29147619D01*
X91657142Y-29242857D01*
X91657142Y-29385714D01*
X91609523Y-29480952D01*
X91561904Y-29528571D01*
X91466666Y-29576190D01*
X91085714Y-29576190D01*
X92609523Y-30052380D02*
X92038095Y-30052380D01*
X92323809Y-30052380D02*
X92323809Y-29052380D01*
X92228571Y-29195238D01*
X92133333Y-29290476D01*
X92038095Y-29338095D01*
X92990476Y-29147619D02*
X93038095Y-29100000D01*
X93133333Y-29052380D01*
X93371428Y-29052380D01*
X93466666Y-29100000D01*
X93514285Y-29147619D01*
X93561904Y-29242857D01*
X93561904Y-29338095D01*
X93514285Y-29480952D01*
X92942857Y-30052380D01*
X93561904Y-30052380D01*
%TO.C,R13*%
X95157142Y-30052380D02*
X94823809Y-29576190D01*
X94585714Y-30052380D02*
X94585714Y-29052380D01*
X94966666Y-29052380D01*
X95061904Y-29100000D01*
X95109523Y-29147619D01*
X95157142Y-29242857D01*
X95157142Y-29385714D01*
X95109523Y-29480952D01*
X95061904Y-29528571D01*
X94966666Y-29576190D01*
X94585714Y-29576190D01*
X96109523Y-30052380D02*
X95538095Y-30052380D01*
X95823809Y-30052380D02*
X95823809Y-29052380D01*
X95728571Y-29195238D01*
X95633333Y-29290476D01*
X95538095Y-29338095D01*
X96442857Y-29052380D02*
X97061904Y-29052380D01*
X96728571Y-29433333D01*
X96871428Y-29433333D01*
X96966666Y-29480952D01*
X97014285Y-29528571D01*
X97061904Y-29623809D01*
X97061904Y-29861904D01*
X97014285Y-29957142D01*
X96966666Y-30004761D01*
X96871428Y-30052380D01*
X96585714Y-30052380D01*
X96490476Y-30004761D01*
X96442857Y-29957142D01*
%TO.C,RV1*%
X29504761Y-48452380D02*
X29171428Y-47976190D01*
X28933333Y-48452380D02*
X28933333Y-47452380D01*
X29314285Y-47452380D01*
X29409523Y-47500000D01*
X29457142Y-47547619D01*
X29504761Y-47642857D01*
X29504761Y-47785714D01*
X29457142Y-47880952D01*
X29409523Y-47928571D01*
X29314285Y-47976190D01*
X28933333Y-47976190D01*
X29790476Y-47452380D02*
X30123809Y-48452380D01*
X30457142Y-47452380D01*
X31314285Y-48452380D02*
X30742857Y-48452380D01*
X31028571Y-48452380D02*
X31028571Y-47452380D01*
X30933333Y-47595238D01*
X30838095Y-47690476D01*
X30742857Y-47738095D01*
%TO.C,RV3*%
X69504761Y-48452380D02*
X69171428Y-47976190D01*
X68933333Y-48452380D02*
X68933333Y-47452380D01*
X69314285Y-47452380D01*
X69409523Y-47500000D01*
X69457142Y-47547619D01*
X69504761Y-47642857D01*
X69504761Y-47785714D01*
X69457142Y-47880952D01*
X69409523Y-47928571D01*
X69314285Y-47976190D01*
X68933333Y-47976190D01*
X69790476Y-47452380D02*
X70123809Y-48452380D01*
X70457142Y-47452380D01*
X70695238Y-47452380D02*
X71314285Y-47452380D01*
X70980952Y-47833333D01*
X71123809Y-47833333D01*
X71219047Y-47880952D01*
X71266666Y-47928571D01*
X71314285Y-48023809D01*
X71314285Y-48261904D01*
X71266666Y-48357142D01*
X71219047Y-48404761D01*
X71123809Y-48452380D01*
X70838095Y-48452380D01*
X70742857Y-48404761D01*
X70695238Y-48357142D01*
%TO.C,RV4*%
X89804761Y-48452380D02*
X89471428Y-47976190D01*
X89233333Y-48452380D02*
X89233333Y-47452380D01*
X89614285Y-47452380D01*
X89709523Y-47500000D01*
X89757142Y-47547619D01*
X89804761Y-47642857D01*
X89804761Y-47785714D01*
X89757142Y-47880952D01*
X89709523Y-47928571D01*
X89614285Y-47976190D01*
X89233333Y-47976190D01*
X90090476Y-47452380D02*
X90423809Y-48452380D01*
X90757142Y-47452380D01*
X91519047Y-47785714D02*
X91519047Y-48452380D01*
X91280952Y-47404761D02*
X91042857Y-48119047D01*
X91661904Y-48119047D01*
%TO.C,U1*%
X23638095Y-27852380D02*
X23638095Y-28661904D01*
X23685714Y-28757142D01*
X23733333Y-28804761D01*
X23828571Y-28852380D01*
X24019047Y-28852380D01*
X24114285Y-28804761D01*
X24161904Y-28757142D01*
X24209523Y-28661904D01*
X24209523Y-27852380D01*
X25209523Y-28852380D02*
X24638095Y-28852380D01*
X24923809Y-28852380D02*
X24923809Y-27852380D01*
X24828571Y-27995238D01*
X24733333Y-28090476D01*
X24638095Y-28138095D01*
%TO.C,TP1*%
X28838095Y-29252380D02*
X29409523Y-29252380D01*
X29123809Y-30252380D02*
X29123809Y-29252380D01*
X29742857Y-30252380D02*
X29742857Y-29252380D01*
X30123809Y-29252380D01*
X30219047Y-29300000D01*
X30266666Y-29347619D01*
X30314285Y-29442857D01*
X30314285Y-29585714D01*
X30266666Y-29680952D01*
X30219047Y-29728571D01*
X30123809Y-29776190D01*
X29742857Y-29776190D01*
X31266666Y-30252380D02*
X30695238Y-30252380D01*
X30980952Y-30252380D02*
X30980952Y-29252380D01*
X30885714Y-29395238D01*
X30790476Y-29490476D01*
X30695238Y-29538095D01*
%TO.C,TP2*%
X21338095Y-23152380D02*
X21909523Y-23152380D01*
X21623809Y-24152380D02*
X21623809Y-23152380D01*
X22242857Y-24152380D02*
X22242857Y-23152380D01*
X22623809Y-23152380D01*
X22719047Y-23200000D01*
X22766666Y-23247619D01*
X22814285Y-23342857D01*
X22814285Y-23485714D01*
X22766666Y-23580952D01*
X22719047Y-23628571D01*
X22623809Y-23676190D01*
X22242857Y-23676190D01*
X23195238Y-23247619D02*
X23242857Y-23200000D01*
X23338095Y-23152380D01*
X23576190Y-23152380D01*
X23671428Y-23200000D01*
X23719047Y-23247619D01*
X23766666Y-23342857D01*
X23766666Y-23438095D01*
X23719047Y-23580952D01*
X23147619Y-24152380D01*
X23766666Y-24152380D01*
%TO.C,J11*%
X59290476Y-20952380D02*
X59290476Y-21666666D01*
X59242857Y-21809523D01*
X59147619Y-21904761D01*
X59004761Y-21952380D01*
X58909523Y-21952380D01*
X60290476Y-21952380D02*
X59719047Y-21952380D01*
X60004761Y-21952380D02*
X60004761Y-20952380D01*
X59909523Y-21095238D01*
X59814285Y-21190476D01*
X59719047Y-21238095D01*
X61242857Y-21952380D02*
X60671428Y-21952380D01*
X60957142Y-21952380D02*
X60957142Y-20952380D01*
X60861904Y-21095238D01*
X60766666Y-21190476D01*
X60671428Y-21238095D01*
%TO.C,R14*%
X53757142Y-21152380D02*
X53423809Y-20676190D01*
X53185714Y-21152380D02*
X53185714Y-20152380D01*
X53566666Y-20152380D01*
X53661904Y-20200000D01*
X53709523Y-20247619D01*
X53757142Y-20342857D01*
X53757142Y-20485714D01*
X53709523Y-20580952D01*
X53661904Y-20628571D01*
X53566666Y-20676190D01*
X53185714Y-20676190D01*
X54709523Y-21152380D02*
X54138095Y-21152380D01*
X54423809Y-21152380D02*
X54423809Y-20152380D01*
X54328571Y-20295238D01*
X54233333Y-20390476D01*
X54138095Y-20438095D01*
X55566666Y-20485714D02*
X55566666Y-21152380D01*
X55328571Y-20104761D02*
X55090476Y-20819047D01*
X55709523Y-20819047D01*
%TO.C,U2*%
X47738095Y-18852380D02*
X47738095Y-19661904D01*
X47785714Y-19757142D01*
X47833333Y-19804761D01*
X47928571Y-19852380D01*
X48119047Y-19852380D01*
X48214285Y-19804761D01*
X48261904Y-19757142D01*
X48309523Y-19661904D01*
X48309523Y-18852380D01*
X48738095Y-18947619D02*
X48785714Y-18900000D01*
X48880952Y-18852380D01*
X49119047Y-18852380D01*
X49214285Y-18900000D01*
X49261904Y-18947619D01*
X49309523Y-19042857D01*
X49309523Y-19138095D01*
X49261904Y-19280952D01*
X48690476Y-19852380D01*
X49309523Y-19852380D01*
%TO.C,JP1*%
X15566666Y-27852380D02*
X15566666Y-28566666D01*
X15519047Y-28709523D01*
X15423809Y-28804761D01*
X15280952Y-28852380D01*
X15185714Y-28852380D01*
X16042857Y-28852380D02*
X16042857Y-27852380D01*
X16423809Y-27852380D01*
X16519047Y-27900000D01*
X16566666Y-27947619D01*
X16614285Y-28042857D01*
X16614285Y-28185714D01*
X16566666Y-28280952D01*
X16519047Y-28328571D01*
X16423809Y-28376190D01*
X16042857Y-28376190D01*
X17566666Y-28852380D02*
X16995238Y-28852380D01*
X17280952Y-28852380D02*
X17280952Y-27852380D01*
X17185714Y-27995238D01*
X17090476Y-28090476D01*
X16995238Y-28138095D01*
%TO.C,J10*%
X49990476Y-29352380D02*
X49990476Y-30066666D01*
X49942857Y-30209523D01*
X49847619Y-30304761D01*
X49704761Y-30352380D01*
X49609523Y-30352380D01*
X50990476Y-30352380D02*
X50419047Y-30352380D01*
X50704761Y-30352380D02*
X50704761Y-29352380D01*
X50609523Y-29495238D01*
X50514285Y-29590476D01*
X50419047Y-29638095D01*
X51609523Y-29352380D02*
X51704761Y-29352380D01*
X51800000Y-29400000D01*
X51847619Y-29447619D01*
X51895238Y-29542857D01*
X51942857Y-29733333D01*
X51942857Y-29971428D01*
X51895238Y-30161904D01*
X51847619Y-30257142D01*
X51800000Y-30304761D01*
X51704761Y-30352380D01*
X51609523Y-30352380D01*
X51514285Y-30304761D01*
X51466666Y-30257142D01*
X51419047Y-30161904D01*
X51371428Y-29971428D01*
X51371428Y-29733333D01*
X51419047Y-29542857D01*
X51466666Y-29447619D01*
X51514285Y-29400000D01*
X51609523Y-29352380D01*
%TD*%
M02*
