%TF.GenerationSoftware,KiCad,Pcbnew,5.1.11-e4df9d881f~92~ubuntu20.04.1*%
%TF.CreationDate,2021-11-07T16:27:16-08:00*%
%TF.ProjectId,TeensyKeyerShield,5465656e-7379-44b6-9579-657253686965,rev?*%
%TF.SameCoordinates,PX4c4b400PY42c1d80*%
%TF.FileFunction,Soldermask,Bot*%
%TF.FilePolarity,Negative*%
%FSLAX46Y46*%
G04 Gerber Fmt 4.6, Leading zero omitted, Abs format (unit mm)*
G04 Created by KiCad (PCBNEW 5.1.11-e4df9d881f~92~ubuntu20.04.1) date 2021-11-07 16:27:16*
%MOMM*%
%LPD*%
G01*
G04 APERTURE LIST*
%ADD10C,2.340000*%
%ADD11C,1.600000*%
%ADD12O,1.700000X2.000000*%
%ADD13C,2.100000*%
%ADD14C,2.050000*%
%ADD15C,1.200000*%
%ADD16C,6.350000*%
%ADD17R,1.700000X1.700000*%
%ADD18O,1.700000X1.700000*%
%ADD19O,1.200000X1.750000*%
G04 APERTURE END LIST*
D10*
%TO.C,RV2*%
X45500000Y-48000000D03*
X40500000Y-48000000D03*
X35500000Y-48000000D03*
%TD*%
D11*
%TO.C,U3*%
X64390000Y-31200000D03*
X64390000Y-38820000D03*
X64390000Y-28660000D03*
X64390000Y-23580000D03*
X66930000Y-38820000D03*
X69470000Y-38820000D03*
X72010000Y-38820000D03*
X74550000Y-38820000D03*
X77090000Y-38820000D03*
X79630000Y-38820000D03*
X82170000Y-38820000D03*
X84710000Y-38820000D03*
X87250000Y-38820000D03*
X89790000Y-38820000D03*
X92330000Y-38820000D03*
X94870000Y-38820000D03*
X97410000Y-38820000D03*
X66930000Y-23580000D03*
X69470000Y-23580000D03*
X72010000Y-23580000D03*
X74550000Y-23580000D03*
X77090000Y-23580000D03*
X79630000Y-23580000D03*
X82170000Y-23580000D03*
X84710000Y-23580000D03*
X87250000Y-23580000D03*
X89790000Y-23580000D03*
X92330000Y-23580000D03*
X94870000Y-23580000D03*
X97410000Y-23580000D03*
%TD*%
D12*
%TO.C,J1*%
X23800000Y-38600000D03*
G36*
G01*
X27150000Y-37850000D02*
X27150000Y-39350000D01*
G75*
G02*
X26900000Y-39600000I-250000J0D01*
G01*
X25700000Y-39600000D01*
G75*
G02*
X25450000Y-39350000I0J250000D01*
G01*
X25450000Y-37850000D01*
G75*
G02*
X25700000Y-37600000I250000J0D01*
G01*
X26900000Y-37600000D01*
G75*
G02*
X27150000Y-37850000I0J-250000D01*
G01*
G37*
%TD*%
%TO.C,J2*%
X39500000Y-32800000D03*
G36*
G01*
X36150000Y-33550000D02*
X36150000Y-32050000D01*
G75*
G02*
X36400000Y-31800000I250000J0D01*
G01*
X37600000Y-31800000D01*
G75*
G02*
X37850000Y-32050000I0J-250000D01*
G01*
X37850000Y-33550000D01*
G75*
G02*
X37600000Y-33800000I-250000J0D01*
G01*
X36400000Y-33800000D01*
G75*
G02*
X36150000Y-33550000I0J250000D01*
G01*
G37*
%TD*%
%TO.C,J3*%
G36*
G01*
X17250000Y-8250000D02*
X17250000Y-6750000D01*
G75*
G02*
X17500000Y-6500000I250000J0D01*
G01*
X18700000Y-6500000D01*
G75*
G02*
X18950000Y-6750000I0J-250000D01*
G01*
X18950000Y-8250000D01*
G75*
G02*
X18700000Y-8500000I-250000J0D01*
G01*
X17500000Y-8500000D01*
G75*
G02*
X17250000Y-8250000I0J250000D01*
G01*
G37*
X20600000Y-7500000D03*
%TD*%
%TO.C,J4*%
G36*
G01*
X26450000Y-8250000D02*
X26450000Y-6750000D01*
G75*
G02*
X26700000Y-6500000I250000J0D01*
G01*
X27900000Y-6500000D01*
G75*
G02*
X28150000Y-6750000I0J-250000D01*
G01*
X28150000Y-8250000D01*
G75*
G02*
X27900000Y-8500000I-250000J0D01*
G01*
X26700000Y-8500000D01*
G75*
G02*
X26450000Y-8250000I0J250000D01*
G01*
G37*
X29800000Y-7500000D03*
%TD*%
D13*
%TO.C,J5*%
X4500000Y-17300000D03*
D14*
X9500000Y-22300000D03*
X9500000Y-19800000D03*
X9500000Y-12300000D03*
X9500000Y-14800000D03*
D15*
X9500000Y-17300000D03*
X4500000Y-22300000D03*
X4500000Y-12300000D03*
X2000000Y-22300000D03*
X2000000Y-12300000D03*
%TD*%
%TO.C,J6*%
X2000000Y-27700000D03*
X2000000Y-37700000D03*
X4500000Y-27700000D03*
X4500000Y-37700000D03*
X9500000Y-32700000D03*
D14*
X9500000Y-30200000D03*
X9500000Y-27700000D03*
X9500000Y-35200000D03*
X9500000Y-37700000D03*
D13*
X4500000Y-32700000D03*
%TD*%
%TO.C,J7*%
X72000000Y-4500000D03*
D14*
X67000000Y-9500000D03*
X69500000Y-9500000D03*
X77000000Y-9500000D03*
X74500000Y-9500000D03*
D15*
X72000000Y-9500000D03*
X67000000Y-4500000D03*
X77000000Y-4500000D03*
X67000000Y-2000000D03*
X77000000Y-2000000D03*
%TD*%
%TO.C,J8*%
X64400000Y-2000000D03*
X54400000Y-2000000D03*
X64400000Y-4500000D03*
X54400000Y-4500000D03*
X59400000Y-9500000D03*
D14*
X61900000Y-9500000D03*
X64400000Y-9500000D03*
X56900000Y-9500000D03*
X54400000Y-9500000D03*
D13*
X59400000Y-4500000D03*
%TD*%
%TO.C,J9*%
X46800000Y-4500000D03*
D14*
X41800000Y-9500000D03*
X44300000Y-9500000D03*
X51800000Y-9500000D03*
X49300000Y-9500000D03*
D15*
X46800000Y-9500000D03*
X41800000Y-4500000D03*
X51800000Y-4500000D03*
X41800000Y-2000000D03*
X51800000Y-2000000D03*
%TD*%
%TO.C,J12*%
X89600000Y-2000000D03*
X79600000Y-2000000D03*
X89600000Y-4500000D03*
X79600000Y-4500000D03*
X84600000Y-9500000D03*
D14*
X87100000Y-9500000D03*
X89600000Y-9500000D03*
X82100000Y-9500000D03*
X79600000Y-9500000D03*
D13*
X84600000Y-4500000D03*
%TD*%
D10*
%TO.C,RV1*%
X15500000Y-48000000D03*
X20500000Y-48000000D03*
X25500000Y-48000000D03*
%TD*%
%TO.C,RV3*%
X55500000Y-48000000D03*
X60500000Y-48000000D03*
X65500000Y-48000000D03*
%TD*%
%TO.C,RV4*%
X85500000Y-48000000D03*
X80500000Y-48000000D03*
X75500000Y-48000000D03*
%TD*%
D16*
%TO.C,MH1*%
X95800000Y-45800000D03*
%TD*%
%TO.C,MH2*%
X95500000Y-4500000D03*
%TD*%
%TO.C,MH3*%
X4500000Y-4500000D03*
%TD*%
%TO.C,MH4*%
X4500000Y-45500000D03*
%TD*%
D17*
%TO.C,J11*%
X60800000Y-18740000D03*
D18*
X60800000Y-16200000D03*
X63340000Y-18740000D03*
X63340000Y-16200000D03*
X65880000Y-18740000D03*
X65880000Y-16200000D03*
X68420000Y-18740000D03*
X68420000Y-16200000D03*
X70960000Y-18740000D03*
X70960000Y-16200000D03*
%TD*%
D17*
%TO.C,JP1*%
X15300000Y-30900000D03*
D18*
X17840000Y-30900000D03*
X15300000Y-33440000D03*
X17840000Y-33440000D03*
X15300000Y-35980000D03*
X17840000Y-35980000D03*
%TD*%
%TO.C,J10*%
G36*
G01*
X56500000Y-33374999D02*
X56500000Y-34625001D01*
G75*
G02*
X56250001Y-34875000I-249999J0D01*
G01*
X55549999Y-34875000D01*
G75*
G02*
X55300000Y-34625001I0J249999D01*
G01*
X55300000Y-33374999D01*
G75*
G02*
X55549999Y-33125000I249999J0D01*
G01*
X56250001Y-33125000D01*
G75*
G02*
X56500000Y-33374999I0J-249999D01*
G01*
G37*
D19*
X53900000Y-34000000D03*
X51900000Y-34000000D03*
X49900000Y-34000000D03*
%TD*%
M02*
